<svg width="100" height="40" viewBox="0 0 100 40" fill="none" xmlns="http://www.w3.org/2000/svg">
<rect width="100" height="40" rx="20" fill="white"/>
<path fill-rule="evenodd" clip-rule="evenodd" d="M80 35C88.2843 35 95 28.2843 95 20C95 11.7157 88.2843 5 80 5C71.7157 5 65 11.7157 65 20C65 28.2843 71.7157 35 80 35Z" fill="#00ACDB"/>
<path d="M13.166 21.696C13.4553 21.752 13.7213 21.8547 13.964 22.004C14.2067 22.144 14.412 22.3213 14.58 22.536C14.748 22.7507 14.8787 22.998 14.972 23.278C15.0653 23.558 15.112 23.8613 15.112 24.188C15.112 24.6267 15.028 25.0187 14.86 25.364C14.7013 25.7187 14.468 26.022 14.16 26.274C13.8613 26.526 13.4973 26.7173 13.068 26.848C12.6387 26.988 12.158 27.058 11.626 27.058C10.9167 27.058 10.2913 26.932 9.75 26.68C9.20867 26.4373 8.77467 26.0827 8.448 25.616L9.386 24.552C9.61 24.8973 9.89933 25.168 10.254 25.364C10.6087 25.56 11.0567 25.658 11.598 25.658C12.214 25.658 12.6853 25.5273 13.012 25.266C13.348 25.0047 13.516 24.6127 13.516 24.09C13.516 23.5487 13.3293 23.124 12.956 22.816C12.5827 22.508 12.032 22.354 11.304 22.354H10.926V21.15H11.346C11.9713 21.15 12.452 21.0053 12.788 20.716C13.124 20.4173 13.292 20.044 13.292 19.596C13.292 19.148 13.1427 18.8213 12.844 18.616C12.5453 18.4013 12.158 18.294 11.682 18.294C11.206 18.294 10.786 18.3967 10.422 18.602C10.058 18.8073 9.76867 19.1013 9.554 19.484L8.588 18.434C8.71867 18.21 8.896 18.0093 9.12 17.832C9.344 17.6453 9.596 17.4867 9.876 17.356C10.1653 17.216 10.4733 17.1133 10.8 17.048C11.136 16.9733 11.4813 16.936 11.836 16.936C12.2933 16.936 12.7087 16.9967 13.082 17.118C13.4647 17.2393 13.7913 17.4073 14.062 17.622C14.342 17.8367 14.5567 18.098 14.706 18.406C14.8553 18.714 14.93 19.0547 14.93 19.428C14.93 19.708 14.888 19.974 14.804 20.226C14.72 20.478 14.5987 20.7067 14.44 20.912C14.2907 21.1173 14.1087 21.29 13.894 21.43C13.6793 21.5607 13.4367 21.6493 13.166 21.696ZM16.8036 25V15.06H20.3316C21.1343 15.06 21.8343 15.1907 22.4316 15.452C23.0383 15.7133 23.5423 16.068 23.9436 16.516C24.3543 16.964 24.6623 17.4913 24.8676 18.098C25.0729 18.6953 25.1756 19.3347 25.1756 20.016C25.1756 20.772 25.0589 21.458 24.8256 22.074C24.6016 22.6807 24.2796 23.2033 23.8596 23.642C23.4396 24.0713 22.9309 24.4073 22.3336 24.65C21.7363 24.8833 21.0689 25 20.3316 25H16.8036ZM23.5796 20.016C23.5796 19.4933 23.5049 19.0127 23.3556 18.574C23.2156 18.1353 23.0056 17.762 22.7256 17.454C22.4456 17.1367 22.1049 16.8893 21.7036 16.712C21.3023 16.5347 20.8449 16.446 20.3316 16.446H18.3716V23.614H20.3316C20.8543 23.614 21.3163 23.5253 21.7176 23.348C22.1283 23.1613 22.4689 22.9093 22.7396 22.592C23.0196 22.2653 23.2296 21.8827 23.3696 21.444C23.5096 21.0053 23.5796 20.5293 23.5796 20.016ZM30.4355 15.06L33.4315 23.026L36.4135 15.06H38.0795L34.1035 25H32.7595L28.7695 15.06H30.4355ZM39.0978 25V17.678H40.6378V25H39.0978ZM39.0978 16.474V14.78H40.6378V16.474H39.0978ZM45.8065 25.14C45.2371 25.14 44.7191 25.042 44.2525 24.846C43.7858 24.6407 43.3845 24.3653 43.0485 24.02C42.7218 23.6747 42.4651 23.2733 42.2785 22.816C42.1011 22.3587 42.0125 21.8733 42.0125 21.36C42.0125 20.8467 42.1011 20.3613 42.2785 19.904C42.4651 19.4373 42.7218 19.0313 43.0485 18.686C43.3845 18.3313 43.7858 18.056 44.2525 17.86C44.7191 17.6547 45.2418 17.552 45.8205 17.552C46.3898 17.552 46.9031 17.6547 47.3605 17.86C47.8271 18.0653 48.2238 18.3407 48.5505 18.686C48.8771 19.022 49.1245 19.4187 49.2925 19.876C49.4698 20.324 49.5585 20.7953 49.5585 21.29C49.5585 21.402 49.5538 21.5093 49.5445 21.612C49.5351 21.7053 49.5258 21.7847 49.5165 21.85H43.6505C43.6785 22.1767 43.7531 22.4707 43.8745 22.732C44.0051 22.9933 44.1685 23.222 44.3645 23.418C44.5698 23.6047 44.7985 23.7493 45.0505 23.852C45.3118 23.9547 45.5825 24.006 45.8625 24.006C46.0678 24.006 46.2685 23.9827 46.4645 23.936C46.6698 23.88 46.8565 23.8053 47.0245 23.712C47.1925 23.6093 47.3418 23.488 47.4725 23.348C47.6031 23.208 47.7058 23.054 47.7805 22.886L49.0965 23.264C48.8445 23.8147 48.4245 24.2673 47.8365 24.622C47.2578 24.9673 46.5811 25.14 45.8065 25.14ZM48.0325 20.786C48.0045 20.478 47.9251 20.1933 47.7945 19.932C47.6731 19.6707 47.5145 19.4513 47.3185 19.274C47.1225 19.0873 46.8938 18.9427 46.6325 18.84C46.3711 18.7373 46.0958 18.686 45.8065 18.686C45.5171 18.686 45.2418 18.7373 44.9805 18.84C44.7285 18.9427 44.5045 19.0873 44.3085 19.274C44.1125 19.4513 43.9538 19.6707 43.8325 19.932C43.7111 20.1933 43.6365 20.478 43.6085 20.786H48.0325ZM59.7512 17.678H61.2212L58.1412 25H56.8672L55.5092 21.598L54.1512 25H52.8772L49.7832 17.678H51.2532L53.6192 23.516L54.6832 20.8L53.4092 17.692H54.6692L55.5092 19.988L56.3352 17.692H57.5952L56.3352 20.8L57.3992 23.516L59.7512 17.678Z" fill="#575665"/>
</svg>
