<svg width="91" height="54" viewBox="0 0 91 54" fill="none" xmlns="http://www.w3.org/2000/svg">
    <path fill-rule="evenodd" clip-rule="evenodd" d="M37.25 5.16284C38.0784 5.16284 38.75 5.83441 38.75 6.66284V46.6628C38.75 47.4913 38.0784 48.1628 37.25 48.1628C36.4216 48.1628 35.75 47.4913 35.75 46.6628V6.66284C35.75 5.83441 36.4216 5.16284 37.25 5.16284Z" fill="url(#paint0_linear_354_4081)"/>
    <path fill-rule="evenodd" clip-rule="evenodd" d="M44.25 0.162842C45.0784 0.162842 45.75 0.834415 45.75 1.66284V51.6628C45.75 52.4913 45.0784 53.1628 44.25 53.1628C43.4216 53.1628 42.75 52.4913 42.75 51.6628V1.66284C42.75 0.834415 43.4216 0.162842 44.25 0.162842Z" fill="url(#paint1_linear_354_4081)"/>
    <path fill-rule="evenodd" clip-rule="evenodd" d="M51.25 5.16284C52.0784 5.16284 52.75 5.83441 52.75 6.66284V46.6628C52.75 47.4913 52.0784 48.1628 51.25 48.1628C50.4216 48.1628 49.75 47.4913 49.75 46.6628V6.66284C49.75 5.83441 50.4216 5.16284 51.25 5.16284Z" fill="url(#paint2_linear_354_4081)"/>
    <path fill-rule="evenodd" clip-rule="evenodd" d="M58.25 13.1628C59.0784 13.1628 59.75 13.8344 59.75 14.6628V38.6628C59.75 39.4913 59.0784 40.1628 58.25 40.1628C57.4216 40.1628 56.75 39.4913 56.75 38.6628V14.6628C56.75 13.8344 57.4216 13.1628 58.25 13.1628Z" fill="url(#paint3_linear_354_4081)"/>
    <path fill-rule="evenodd" clip-rule="evenodd" d="M65.25 17.1628C66.0784 17.1628 66.75 17.8344 66.75 18.6628V34.6628C66.75 35.4913 66.0784 36.1628 65.25 36.1628C64.4216 36.1628 63.75 35.4913 63.75 34.6628V18.6628C63.75 17.8344 64.4216 17.1628 65.25 17.1628Z" fill="url(#paint4_linear_354_4081)"/>
    <path fill-rule="evenodd" clip-rule="evenodd" d="M72.25 20.1628C73.0784 20.1628 73.75 20.8344 73.75 21.6628V31.6628C73.75 32.4913 73.0784 33.1628 72.25 33.1628C71.4216 33.1628 70.75 32.4913 70.75 31.6628V21.6628C70.75 20.8344 71.4216 20.1628 72.25 20.1628Z" fill="url(#paint5_linear_354_4081)"/>
    <path fill-rule="evenodd" clip-rule="evenodd" d="M79.25 15.1628C80.0784 15.1628 80.75 15.8344 80.75 16.6628V36.6628C80.75 37.4913 80.0784 38.1628 79.25 38.1628C78.4216 38.1628 77.75 37.4913 77.75 36.6628V16.6628C77.75 15.8344 78.4216 15.1628 79.25 15.1628Z" fill="url(#paint6_linear_354_4081)"/>
    <path fill-rule="evenodd" clip-rule="evenodd" d="M88.75 19.1628C89.5784 19.1628 90.25 19.8344 90.25 20.6628V32.6628C90.25 33.4913 89.5784 34.1628 88.75 34.1628C87.9216 34.1628 87.25 33.4913 87.25 32.6628V20.6628C87.25 19.8344 87.9216 19.1628 88.75 19.1628Z" fill="url(#paint7_linear_354_4081)"/>
    <path fill-rule="evenodd" clip-rule="evenodd" d="M2.25 19.1628C1.42157 19.1628 0.75 19.8344 0.75 20.6628V32.6628C0.75 33.4913 1.42157 34.1628 2.25 34.1628C3.07843 34.1628 3.75 33.4913 3.75 32.6628V20.6628C3.75 19.8344 3.07843 19.1628 2.25 19.1628Z" fill="url(#paint8_linear_354_4081)"/>
    <path fill-rule="evenodd" clip-rule="evenodd" d="M9.25 15.1628C8.42157 15.1628 7.75 15.8344 7.75 16.6628V36.6628C7.75 37.4913 8.42157 38.1628 9.25 38.1628C10.0784 38.1628 10.75 37.4913 10.75 36.6628V16.6628C10.75 15.8344 10.0784 15.1628 9.25 15.1628Z" fill="url(#paint9_linear_354_4081)"/>
    <path fill-rule="evenodd" clip-rule="evenodd" d="M16.25 20.1628C15.4216 20.1628 14.75 20.8344 14.75 21.6628V31.6628C14.75 32.4913 15.4216 33.1628 16.25 33.1628C17.0784 33.1628 17.75 32.4913 17.75 31.6628V21.6628C17.75 20.8344 17.0784 20.1628 16.25 20.1628Z" fill="url(#paint10_linear_354_4081)"/>
    <path fill-rule="evenodd" clip-rule="evenodd" d="M23.25 17.1628C22.4216 17.1628 21.75 17.8344 21.75 18.6628V34.6628C21.75 35.4913 22.4216 36.1628 23.25 36.1628C24.0784 36.1628 24.75 35.4913 24.75 34.6628V18.6628C24.75 17.8344 24.0784 17.1628 23.25 17.1628Z" fill="url(#paint11_linear_354_4081)"/>
    <path fill-rule="evenodd" clip-rule="evenodd" d="M30.25 13.1628C29.4216 13.1628 28.75 13.8344 28.75 14.6628V38.6628C28.75 39.4913 29.4216 40.1628 30.25 40.1628C31.0784 40.1628 31.75 39.4913 31.75 38.6628V14.6628C31.75 13.8344 31.0784 13.1628 30.25 13.1628Z" fill="url(#paint12_linear_354_4081)"/>
    <defs>
        <linearGradient id="paint0_linear_354_4081" x1="90.25" y1="25.0679" x2="0.75" y2="25.0679" gradientUnits="userSpaceOnUse">
            <stop stop-color="#00ACDB"/>
            <stop offset="1" stop-color="#C830EB"/>
        </linearGradient>
        <linearGradient id="paint1_linear_354_4081" x1="90.25" y1="25.0679" x2="0.75" y2="25.0679" gradientUnits="userSpaceOnUse">
            <stop stop-color="#00ACDB"/>
            <stop offset="1" stop-color="#C830EB"/>
        </linearGradient>
        <linearGradient id="paint2_linear_354_4081" x1="90.25" y1="25.0679" x2="0.75" y2="25.0679" gradientUnits="userSpaceOnUse">
            <stop stop-color="#00ACDB"/>
            <stop offset="1" stop-color="#C830EB"/>
        </linearGradient>
        <linearGradient id="paint3_linear_354_4081" x1="90.25" y1="25.0679" x2="0.75" y2="25.0679" gradientUnits="userSpaceOnUse">
            <stop stop-color="#00ACDB"/>
            <stop offset="1" stop-color="#C830EB"/>
        </linearGradient>
        <linearGradient id="paint4_linear_354_4081" x1="90.25" y1="25.0679" x2="0.75" y2="25.0679" gradientUnits="userSpaceOnUse">
            <stop stop-color="#00ACDB"/>
            <stop offset="1" stop-color="#C830EB"/>
        </linearGradient>
        <linearGradient id="paint5_linear_354_4081" x1="90.25" y1="25.0679" x2="0.75" y2="25.0679" gradientUnits="userSpaceOnUse">
            <stop stop-color="#00ACDB"/>
            <stop offset="1" stop-color="#C830EB"/>
        </linearGradient>
        <linearGradient id="paint6_linear_354_4081" x1="90.25" y1="25.0679" x2="0.75" y2="25.0679" gradientUnits="userSpaceOnUse">
            <stop stop-color="#00ACDB"/>
            <stop offset="1" stop-color="#C830EB"/>
        </linearGradient>
        <linearGradient id="paint7_linear_354_4081" x1="90.25" y1="25.0679" x2="0.75" y2="25.0679" gradientUnits="userSpaceOnUse">
            <stop stop-color="#00ACDB"/>
            <stop offset="1" stop-color="#C830EB"/>
        </linearGradient>
        <linearGradient id="paint8_linear_354_4081" x1="90.25" y1="25.0679" x2="0.75" y2="25.0679" gradientUnits="userSpaceOnUse">
            <stop stop-color="#00ACDB"/>
            <stop offset="1" stop-color="#C830EB"/>
        </linearGradient>
        <linearGradient id="paint9_linear_354_4081" x1="90.25" y1="25.0679" x2="0.75" y2="25.0679" gradientUnits="userSpaceOnUse">
            <stop stop-color="#00ACDB"/>
            <stop offset="1" stop-color="#C830EB"/>
        </linearGradient>
        <linearGradient id="paint10_linear_354_4081" x1="90.25" y1="25.0679" x2="0.75" y2="25.0679" gradientUnits="userSpaceOnUse">
            <stop stop-color="#00ACDB"/>
            <stop offset="1" stop-color="#C830EB"/>
        </linearGradient>
        <linearGradient id="paint11_linear_354_4081" x1="90.25" y1="25.0679" x2="0.75" y2="25.0679" gradientUnits="userSpaceOnUse">
            <stop stop-color="#00ACDB"/>
            <stop offset="1" stop-color="#C830EB"/>
        </linearGradient>
        <linearGradient id="paint12_linear_354_4081" x1="90.25" y1="25.0679" x2="0.75" y2="25.0679" gradientUnits="userSpaceOnUse">
            <stop stop-color="#00ACDB"/>
            <stop offset="1" stop-color="#C830EB"/>
        </linearGradient>
    </defs>
</svg>
