<svg width="74" height="74" viewBox="0 0 74 74" fill="none" xmlns="http://www.w3.org/2000/svg">
<rect x="1" y="1" width="72" height="72" rx="36" fill="white"/>
<rect x="1" y="1" width="72" height="72" rx="36" stroke="#9AA1AB" stroke-width="0.5"/>
<path fill-rule="evenodd" clip-rule="evenodd" d="M40.1582 33.8993C40.7013 31.3766 44.2369 31.365 44.8029 33.8761L44.8314 34.0037C45.1371 35.5475 45.8958 36.9615 47.0077 38.0601C48.1197 39.1587 49.5331 39.8906 51.0625 40.1598C53.6463 40.615 53.6463 44.3846 51.0596 44.8399C49.5648 45.1037 48.1801 45.8098 47.0796 46.8694C45.9791 47.9291 45.2119 49.2951 44.8743 50.7958L44.8029 51.1235C44.2369 53.6375 40.7013 53.6201 40.1582 51.1032L40.0982 50.8219C39.7731 49.3162 39.0134 47.9428 37.9158 46.8769C36.8183 45.811 35.4327 45.1008 33.9358 44.837C31.3547 44.3817 31.3547 40.6208 33.9358 40.1656C35.4278 39.902 36.8091 39.195 37.9046 38.1341C39.0001 37.0733 39.7606 35.7064 40.0896 34.2067L40.1353 34.0008L40.1582 33.8993Z" fill="url(#paint0_linear_3_2230)"/>
<path fill-rule="evenodd" clip-rule="evenodd" d="M29.118 22.404C29.5253 20.5392 32.1767 20.5306 32.6011 22.3868L32.6226 22.4812C32.8518 23.6224 33.4207 24.6676 34.2546 25.4797C35.0885 26.2918 36.1485 26.8328 37.2953 27.0317C39.233 27.3683 39.233 30.1548 37.2932 30.4913C36.1722 30.6863 35.1338 31.2082 34.3085 31.9916C33.4832 32.7749 32.9079 33.7847 32.6547 34.894L32.6011 35.1362C32.1767 36.9946 29.5253 36.9817 29.118 35.1212L29.073 34.9133C28.8292 33.8002 28.2595 32.785 27.4364 31.9971C26.6134 31.2091 25.5743 30.6842 24.4517 30.4892C22.5161 30.1526 22.5161 27.3726 24.4517 27.036C25.5706 26.8412 26.6064 26.3186 27.428 25.5344C28.2496 24.7502 28.8198 23.7398 29.0666 22.6312L29.1008 22.479L29.118 22.404Z" fill="url(#paint1_linear_3_2230)"/>
<path fill-rule="evenodd" clip-rule="evenodd" d="M24.8849 43.9044C25.1435 42.7031 26.8271 42.6976 27.0966 43.8934L27.1102 43.9541C27.2558 44.6893 27.617 45.3626 28.1465 45.8858C28.6761 46.4089 29.3491 46.7574 30.0774 46.8856C31.3078 47.1024 31.3078 48.8974 30.076 49.1142C29.3642 49.2398 28.7048 49.5761 28.1808 50.0807C27.6567 50.5853 27.2914 51.2358 27.1306 51.9504L27.0966 52.1064C26.8271 53.3036 25.1435 53.2953 24.8849 52.0968L24.8563 51.9628C24.7015 51.2458 24.3397 50.5918 23.8171 50.0842C23.2944 49.5767 22.6346 49.2385 21.9218 49.1128C20.6927 48.8961 20.6927 47.1051 21.9218 46.8884C22.6323 46.7628 23.29 46.4262 23.8117 45.921C24.3334 45.4159 24.6955 44.765 24.8522 44.0508L24.874 43.9528L24.8849 43.9044Z" fill="url(#paint2_linear_3_2230)"/>
<defs>
<linearGradient id="paint0_linear_3_2230" x1="53" y1="36.037" x2="21" y2="36.037" gradientUnits="userSpaceOnUse">
<stop stop-color="#00ACDB"/>
<stop offset="1" stop-color="#C830EB"/>
</linearGradient>
<linearGradient id="paint1_linear_3_2230" x1="53" y1="36.037" x2="21" y2="36.037" gradientUnits="userSpaceOnUse">
<stop stop-color="#00ACDB"/>
<stop offset="1" stop-color="#C830EB"/>
</linearGradient>
<linearGradient id="paint2_linear_3_2230" x1="53" y1="36.037" x2="21" y2="36.037" gradientUnits="userSpaceOnUse">
<stop stop-color="#00ACDB"/>
<stop offset="1" stop-color="#C830EB"/>
</linearGradient>
</defs>
</svg>
