<svg width="14" height="14" viewBox="0 0 14 14" fill="none" xmlns="http://www.w3.org/2000/svg">
<g id="iconoir:bathroom-solid">
<g id="Group">
<path id="Vector" d="M10.6021 6.77881V8.21249C10.6021 8.71948 10.4007 9.20569 10.0422 9.56418C9.68373 9.92267 9.19751 10.1241 8.69053 10.1241H3.91158C3.4046 10.1241 2.91838 9.92267 2.55989 9.56418C2.2014 9.20569 2 8.71948 2 8.21249V7.06555C2 6.9895 2.03021 6.91657 2.08398 6.86279C2.13776 6.80902 2.21069 6.77881 2.28674 6.77881H10.6021Z" fill="#777681" stroke="#777681" stroke-linecap="round" stroke-linejoin="round"/>
<path id="Vector_2" d="M8.21263 10.1242L8.69052 11.08M4.38947 10.1242L3.91158 11.08M10.6021 6.77895V3.91158C10.6021 3.4046 10.4007 2.91838 10.0422 2.55989C9.68372 2.2014 9.19751 2 8.69052 2H6.30105" stroke="#777681" stroke-linecap="round" stroke-linejoin="round"/>
<path id="Vector_3" d="M7.9259 4.38947H4.67622C4.51803 4.38947 4.39139 4.2614 4.4086 4.10369C4.47837 3.46953 4.8019 2 6.30106 2C7.80022 2 8.12375 3.46953 8.19352 4.10369C8.21073 4.2614 8.08408 4.38947 7.9259 4.38947Z" fill="#777681" stroke="#777681" stroke-linecap="round" stroke-linejoin="round"/>
</g>
</g>
</svg>
