<svg width="14" height="14" viewBox="0 0 14 14" fill="none" xmlns="http://www.w3.org/2000/svg">
<g id="tabler:bed-filled">
<g id="Group">
<path id="Vector" d="M1.58334 3C1.72622 3.00002 1.86412 3.05247 1.97089 3.14742C2.07766 3.24236 2.14587 3.37319 2.16259 3.51508L2.16667 3.58333V7.08333H5.66667V4.16667C5.66669 4.02379 5.71915 3.88589 5.81409 3.77912C5.90903 3.67235 6.03986 3.60413 6.18176 3.58742L6.25001 3.58333H10.9167C11.363 3.58331 11.7926 3.75386 12.1173 4.06008C12.4421 4.36631 12.6376 4.78506 12.6638 5.23067L12.6667 5.33333V11C12.6665 11.1487 12.6096 11.2917 12.5075 11.3998C12.4054 11.5079 12.266 11.573 12.1175 11.5817C11.9691 11.5904 11.823 11.5421 11.7089 11.4467C11.5949 11.3513 11.5217 11.2159 11.5041 11.0683L11.5 11V8.25H2.16667V11C2.16651 11.1487 2.10958 11.2917 2.00751 11.3998C1.90545 11.5079 1.76595 11.573 1.61753 11.5817C1.4691 11.5904 1.32295 11.5421 1.20894 11.4467C1.09492 11.3513 1.02165 11.2159 1.00409 11.0683L1.00001 11V3.58333C1.00001 3.42862 1.06147 3.28025 1.17086 3.17085C1.28026 3.06146 1.42863 3 1.58334 3Z" fill="#777681"/>
<path id="Vector_2" d="M3.91667 4.16675C4.14368 4.16682 4.36573 4.23311 4.55561 4.3575C4.7455 4.4819 4.89497 4.65898 4.98571 4.86706C5.07645 5.07513 5.10452 5.30516 5.06647 5.52895C5.02842 5.75274 4.92592 5.96057 4.77151 6.12697C4.61711 6.29337 4.41752 6.41111 4.19719 6.46576C3.97687 6.52042 3.74539 6.50961 3.53112 6.43466C3.31684 6.35971 3.12909 6.22388 2.99087 6.04382C2.85264 5.86375 2.76995 5.64728 2.75292 5.42091L2.75001 5.33341L2.75292 5.24591C2.775 4.95241 2.9072 4.67809 3.12302 4.47795C3.33884 4.27782 3.62234 4.16665 3.91667 4.16675Z" fill="#777681"/>
</g>
</g>
</svg>
