<svg width="30" height="30" viewBox="0 0 30 30" fill="none" xmlns="http://www.w3.org/2000/svg">
    <rect x="0.25" y="0.25" width="29.5" height="29.5" rx="14.75" fill="white" stroke="#9AA1AB" stroke-width="0.5"/>
    <path d="M11.4767 7.03242L12.3742 6.74576C13.2142 6.47742 14.1125 6.91159 14.4725 7.75992L15.1892 9.44992C15.5017 10.1858 15.3284 11.0516 14.7609 11.5899L13.1834 13.0883C13.2809 13.9849 13.5817 14.8674 14.0867 15.7358C14.5666 16.5759 15.2101 17.3112 15.9792 17.8983L17.8759 17.2649C18.5942 17.0258 19.3767 17.3016 19.8175 17.9491L20.8442 19.4574C21.3575 20.2108 21.265 21.2491 20.6292 21.8874L19.9475 22.5716C19.2692 23.2524 18.3009 23.4999 17.4042 23.2199C15.2884 22.5599 13.3434 20.6008 11.5684 17.3424C9.79087 14.0791 9.1642 11.3091 9.6867 9.03576C9.9067 8.07909 10.5884 7.31659 11.4784 7.03242" fill="#00ACDB"/>
</svg>
