<svg width="19" height="17" viewBox="0 0 19 17" fill="none" xmlns="http://www.w3.org/2000/svg">
    <path d="M0.959297 5.08662L1.5593 5.08663V5.08662H0.959297ZM0.959229 15.0879L0.359228 15.0879V15.0879H0.959229ZM18.0406 15.0879L17.4406 15.0879V15.0879H18.0406ZM18.0407 5.08662L18.6407 5.08663V5.08662H18.0407ZM11.5159 10.6093C11.5159 11.7272 10.6395 12.6041 9.594 12.6041V13.8041C11.3342 13.8041 12.7159 12.3575 12.7159 10.6093H11.5159ZM9.594 12.6041C8.54851 12.6041 7.67205 11.7272 7.67205 10.6093H6.47205C6.47205 12.3575 7.85382 13.8041 9.594 13.8041V12.6041ZM7.67205 10.6093C7.67205 9.49147 8.54851 8.61461 9.594 8.61461V7.41461C7.85382 7.41461 6.47205 8.86114 6.47205 10.6093H7.67205ZM9.594 8.61461C10.6395 8.61461 11.5159 9.49147 11.5159 10.6093H12.7159C12.7159 8.86114 11.3342 7.41461 9.594 7.41461V8.61461ZM0.359297 5.08662L0.359228 15.0879L1.55923 15.0879L1.5593 5.08663L0.359297 5.08662ZM2.2202 16.9852H16.7796V15.7852H2.2202V16.9852ZM18.6406 15.0879L18.6407 5.08663L17.4407 5.08661L17.4406 15.0879L18.6406 15.0879ZM3.83623 3.18926H2.22027V4.38926H3.83623V3.18926ZM7.07219 1.21523H11.9492V0.0152344H7.07219V1.21523ZM16.7798 3.18926H15.352V4.38926H16.7798V3.18926ZM15.352 3.18926C15.375 3.18926 15.284 3.18602 15.0635 2.99414C14.8686 2.82448 14.6541 2.57927 14.4412 2.29994C14.0177 1.74457 13.6616 1.13638 13.5487 0.942852L12.5121 1.54737C12.6272 1.74461 13.0149 2.4085 13.4869 3.02751C13.7216 3.33537 13.9927 3.65292 14.2756 3.89924C14.533 4.12332 14.9121 4.38926 15.352 4.38926V3.18926ZM11.9492 1.21523C12.1731 1.21523 12.3889 1.33611 12.5121 1.54737L13.5487 0.942852C13.2162 0.372563 12.6111 0.0152344 11.9492 0.0152344V1.21523ZM6.50922 1.54737C6.63242 1.33611 6.84824 1.21523 7.07219 1.21523V0.0152344C6.41027 0.0152344 5.80518 0.372562 5.47261 0.942852L6.50922 1.54737ZM3.83623 4.38926C4.07161 4.38926 4.27556 4.30384 4.42889 4.21475C4.58614 4.12338 4.73134 4.00408 4.86049 3.88095C5.11851 3.63496 5.36923 3.31861 5.58793 3.01258C6.02744 2.39758 6.40074 1.73338 6.50922 1.54737L5.47261 0.942852C5.3532 1.14761 5.01137 1.75549 4.61161 2.31486C4.41068 2.59603 4.21074 2.84244 4.03245 3.01242C3.94344 3.09728 3.87407 3.14926 3.82602 3.17718C3.77404 3.20738 3.78195 3.18926 3.83623 3.18926V4.38926ZM18.6407 5.08662C18.6407 4.05494 17.8235 3.18926 16.7798 3.18926V4.38926C17.1288 4.38926 17.4407 4.68527 17.4407 5.08662H18.6407ZM16.7796 16.9852C17.8234 16.9852 18.6406 16.1195 18.6406 15.0879H17.4406C17.4406 15.4892 17.1287 15.7852 16.7796 15.7852V16.9852ZM0.359228 15.0879C0.359228 16.1196 1.17644 16.9852 2.2202 16.9852V15.7852C1.87113 15.7852 1.55923 15.4892 1.55923 15.0879H0.359228ZM1.5593 5.08662C1.5593 4.68527 1.8712 4.38926 2.22027 4.38926V3.18926C1.1765 3.18926 0.359297 4.05494 0.359297 5.08662H1.5593ZM9.59413 5.35704C10.2897 5.35704 10.8246 4.78178 10.8246 4.10835H9.62462C9.62462 4.12748 9.61764 4.14068 9.6097 4.14885C9.60571 4.15296 9.6022 4.15499 9.60013 4.15589C9.59852 4.15659 9.59695 4.15704 9.59413 4.15704V5.35704ZM8.36365 4.10835C8.36365 4.78178 8.89858 5.35704 9.59413 5.35704V4.15704C9.59131 4.15704 9.58974 4.15659 9.58813 4.15589C9.58607 4.155 9.58256 4.15296 9.57857 4.14885C9.57063 4.14069 9.56365 4.12748 9.56365 4.10835H8.36365ZM9.59413 2.85967C8.89858 2.85967 8.36365 3.43493 8.36365 4.10835H9.56365C9.56365 4.08922 9.57063 4.07602 9.57857 4.06785C9.58256 4.06375 9.58607 4.06171 9.58813 4.06081C9.58974 4.06011 9.59131 4.05967 9.59413 4.05967V2.85967ZM9.59413 4.05967C9.59695 4.05967 9.59852 4.06011 9.60013 4.06081C9.6022 4.06171 9.60571 4.06375 9.6097 4.06785C9.61764 4.07602 9.62462 4.08922 9.62462 4.10835H10.8246C10.8246 3.43493 10.2897 2.85967 9.59413 2.85967V4.05967Z" fill="#575665"/>
</svg>
