<svg width="30" height="30" viewBox="0 0 30 30" fill="none" xmlns="http://www.w3.org/2000/svg">
    <rect x="0.25" y="0.25" width="29.5" height="29.5" rx="14.75" fill="white" stroke="#9AA1AB" stroke-width="0.5"/>
    <path d="M15 7C16.2081 7.0007 17.4004 7.27501 18.4873 7.80234C19.5743 8.32967 20.5277 9.09633 21.276 10.0448C22.0243 10.9932 22.5481 12.0989 22.808 13.2787C23.0679 14.4585 23.0573 15.6819 22.7769 16.857C22.4964 18.0321 21.9535 19.1284 21.1888 20.0637C20.4241 20.999 19.4575 21.749 18.3616 22.2573C17.2656 22.7657 16.0688 23.0192 14.8608 22.9989C13.6529 22.9785 12.4652 22.6849 11.387 22.14L11.266 22.075L7.621 22.985C7.55085 23.0026 7.47771 23.0048 7.40662 22.9915C7.33554 22.9781 7.2682 22.9495 7.20926 22.9075C7.15032 22.8656 7.10117 22.8114 7.06522 22.7486C7.02926 22.6859 7.00735 22.6161 7.001 22.544V22.462L7.015 22.379L7.925 18.735L7.862 18.615C7.40438 17.7142 7.12269 16.7343 7.032 15.728L7.007 15.346L7 15C7 12.8783 7.84285 10.8434 9.34315 9.34315C10.8434 7.84285 12.8783 7 15 7ZM15.5 16H12.5L12.41 16.008C12.2947 16.0289 12.1904 16.0896 12.1153 16.1795C12.0402 16.2694 11.9991 16.3828 11.9991 16.5C11.9991 16.6172 12.0402 16.7306 12.1153 16.8205C12.1904 16.9104 12.2947 16.9711 12.41 16.992L12.5 17H15.5L15.59 16.992C15.7053 16.9711 15.8096 16.9104 15.8847 16.8205C15.9598 16.7306 16.0009 16.6172 16.0009 16.5C16.0009 16.3828 15.9598 16.2694 15.8847 16.1795C15.8096 16.0896 15.7053 16.0289 15.59 16.008L15.5 16ZM17.5 13H12.5L12.41 13.008C12.2947 13.0289 12.1904 13.0896 12.1153 13.1795C12.0402 13.2694 11.9991 13.3828 11.9991 13.5C11.9991 13.6172 12.0402 13.7306 12.1153 13.8205C12.1904 13.9104 12.2947 13.9711 12.41 13.992L12.5 14H17.5L17.59 13.992C17.7053 13.9711 17.8096 13.9104 17.8847 13.8205C17.9598 13.7306 18.0009 13.6172 18.0009 13.5C18.0009 13.3828 17.9598 13.2694 17.8847 13.1795C17.8096 13.0896 17.7053 13.0289 17.59 13.008L17.5 13Z" fill="#EF5B29"/>
</svg>
