<svg width="20" height="21" viewBox="0 0 20 21" fill="none" xmlns="http://www.w3.org/2000/svg">
    <path d="M10 2.67773C11.2081 2.67843 12.4004 2.95274 13.4873 3.48007C14.5743 4.0074 15.5277 4.77406 16.276 5.72252C17.0243 6.67098 17.5481 7.7766 17.808 8.95641C18.0679 10.1362 18.0573 11.3596 17.7769 12.5347C17.4964 13.7098 16.9535 14.8062 16.1888 15.7415C15.4241 16.6767 14.4575 17.4267 13.3616 17.9351C12.2656 18.4434 11.0688 18.6969 9.86083 18.6766C8.65289 18.6563 7.46524 18.3626 6.387 17.8177L6.266 17.7527L2.621 18.6627C2.55085 18.6804 2.47771 18.6826 2.40662 18.6692C2.33554 18.6558 2.2682 18.6272 2.20926 18.5853C2.15032 18.5433 2.10117 18.4891 2.06522 18.4264C2.02926 18.3636 2.00735 18.2938 2.001 18.2217V18.1397L2.015 18.0567L2.925 14.4127L2.862 14.2927C2.40438 13.3919 2.12269 12.4121 2.032 11.4057L2.007 11.0237L2 10.6777C2 8.556 2.84285 6.52117 4.34315 5.02088C5.84344 3.52059 7.87827 2.67773 10 2.67773ZM10.5 12.6777H7.5L7.41 12.6857C7.29472 12.7066 7.19043 12.7673 7.11532 12.8572C7.04022 12.9471 6.99908 13.0606 6.99908 13.1777C6.99908 13.2949 7.04022 13.4083 7.11532 13.4982C7.19043 13.5882 7.29472 13.6489 7.41 13.6697L7.5 13.6777H10.5L10.59 13.6697C10.7053 13.6489 10.8096 13.5882 10.8847 13.4982C10.9598 13.4083 11.0009 13.2949 11.0009 13.1777C11.0009 13.0606 10.9598 12.9471 10.8847 12.8572C10.8096 12.7673 10.7053 12.7066 10.59 12.6857L10.5 12.6777ZM12.5 8.67773H7.5L7.41 8.68573C7.29472 8.70661 7.19043 8.7673 7.11532 8.85722C7.04022 8.94714 6.99908 9.06058 6.99908 9.17773C6.99908 9.29489 7.04022 9.40833 7.11532 9.49825C7.19043 9.58817 7.29472 9.64886 7.41 9.66973L7.5 9.67773H12.5L12.59 9.66973C12.7053 9.64886 12.8096 9.58817 12.8847 9.49825C12.9598 9.40833 13.0009 9.29489 13.0009 9.17773C13.0009 9.06058 12.9598 8.94714 12.8847 8.85722C12.8096 8.7673 12.7053 8.70661 12.59 8.68573L12.5 8.67773Z" stroke="#575665" stroke-width="1.6"/>
</svg>
