<svg width="32" height="32" viewBox="0 0 32 32" fill="none" xmlns="http://www.w3.org/2000/svg">
<rect x="0.25" y="0.25" width="31.5" height="31.5" rx="15.75" stroke="#9AA1AB" stroke-width="0.5"/>
<path d="M8 7.72222C8 6.77106 8.77107 6 9.72222 6H21.7778C22.7289 6 23.5 6.77107 23.5 7.72222V24.9444C23.5 25.8956 22.7289 26.6667 21.7778 26.6667H9.72222C8.77107 26.6667 8 25.8956 8 24.9444V7.72222Z" fill="url(#paint0_linear_590_2083)"/>
<path d="M9.98056 9.44439C9.98056 8.63591 10.636 7.9805 11.4445 7.9805H20.0556C20.864 7.9805 21.5195 8.63591 21.5195 9.44439V12.8888C21.5195 13.6973 20.864 14.3527 20.0556 14.3527H11.4445C10.636 14.3527 9.98056 13.6973 9.98056 12.8888V9.44439Z" stroke="white" stroke-width="0.516667"/>
<path d="M9.98056 16.3333C9.98056 16.0004 10.2504 15.7305 10.5833 15.7305H12.3056C12.6385 15.7305 12.9083 16.0004 12.9083 16.3333V17.1944C12.9083 17.5273 12.6385 17.7972 12.3056 17.7972H10.5833C10.2504 17.7972 9.98056 17.5273 9.98056 17.1944V16.3333Z" stroke="white" stroke-width="0.516667"/>
<path d="M14.2861 16.3333C14.2861 16.0004 14.556 15.7305 14.8889 15.7305H16.6111C16.944 15.7305 17.2139 16.0004 17.2139 16.3333V17.1944C17.2139 17.5273 16.944 17.7972 16.6111 17.7972H14.8889C14.556 17.7972 14.2861 17.5273 14.2861 17.1944V16.3333Z" stroke="white" stroke-width="0.516667"/>
<path d="M18.5916 16.3333C18.5916 16.0004 18.8615 15.7305 19.1944 15.7305H20.9166C21.2496 15.7305 21.5194 16.0004 21.5194 16.3333V17.1944C21.5194 17.5273 21.2496 17.7972 20.9166 17.7972H19.1944C18.8615 17.7972 18.5916 17.5273 18.5916 17.1944V16.3333Z" stroke="white" stroke-width="0.516667"/>
<path d="M9.98056 19.7779C9.98056 19.445 10.2504 19.1751 10.5833 19.1751H12.3056C12.6385 19.1751 12.9083 19.445 12.9083 19.7779V20.639C12.9083 20.9719 12.6385 21.2417 12.3056 21.2417H10.5833C10.2504 21.2417 9.98056 20.9719 9.98056 20.639V19.7779Z" stroke="white" stroke-width="0.516667"/>
<path d="M14.2861 19.7779C14.2861 19.445 14.556 19.1751 14.8889 19.1751H16.6111C16.944 19.1751 17.2139 19.445 17.2139 19.7779V20.639C17.2139 20.9719 16.944 21.2417 16.6111 21.2417H14.8889C14.556 21.2417 14.2861 20.9719 14.2861 20.639V19.7779Z" stroke="white" stroke-width="0.516667"/>
<path d="M18.5916 19.7779C18.5916 19.445 18.8615 19.1751 19.1944 19.1751H20.9166C21.2496 19.1751 21.5194 19.445 21.5194 19.7779V20.639C21.5194 20.9719 21.2496 21.2417 20.9166 21.2417H19.1944C18.8615 21.2417 18.5916 20.9719 18.5916 20.639V19.7779Z" stroke="white" stroke-width="0.516667"/>
<path d="M9.98056 23.2222C9.98056 22.8893 10.2504 22.6194 10.5833 22.6194H12.3056C12.6385 22.6194 12.9083 22.8893 12.9083 23.2222V24.0833C12.9083 24.4162 12.6385 24.6861 12.3056 24.6861H10.5833C10.2504 24.6861 9.98056 24.4162 9.98056 24.0833V23.2222Z" stroke="white" stroke-width="0.516667"/>
<path d="M14.2861 23.2222C14.2861 22.8893 14.556 22.6194 14.8889 22.6194H16.6111C16.944 22.6194 17.2139 22.8893 17.2139 23.2222V24.0833C17.2139 24.4162 16.944 24.6861 16.6111 24.6861H14.8889C14.556 24.6861 14.2861 24.4162 14.2861 24.0833V23.2222Z" stroke="white" stroke-width="0.516667"/>
<path d="M18.5916 23.2222C18.5916 22.8893 18.8615 22.6194 19.1944 22.6194H20.9166C21.2496 22.6194 21.5194 22.8893 21.5194 23.2222V24.0833C21.5194 24.4162 21.2496 24.6861 20.9166 24.6861H19.1944C18.8615 24.6861 18.5916 24.4162 18.5916 24.0833V23.2222Z" stroke="white" stroke-width="0.516667"/>
<defs>
<linearGradient id="paint0_linear_590_2083" x1="15.75" y1="26.6667" x2="15.75" y2="6" gradientUnits="userSpaceOnUse">
<stop stop-color="#003F79"/>
<stop offset="0.9999" stop-color="#00ACDB"/>
</linearGradient>
</defs>
</svg>
