<svg width="21" height="29" viewBox="0 0 21 29" fill="none" xmlns="http://www.w3.org/2000/svg">
    <path d="M0 2.83333C0 1.54467 1.04467 0.5 2.33333 0.5H18.6667C19.9553 0.5 21 1.54467 21 2.83333V26.1667C21 27.4553 19.9553 28.5 18.6667 28.5H2.33333C1.04467 28.5 0 27.4553 0 26.1667V2.83333Z" fill="url(#paint0_linear_789_3186)"/>
    <path d="M2.68333 5.16829C2.68333 4.07293 3.5713 3.18496 4.66666 3.18496H16.3333C17.4287 3.18496 18.3167 4.07293 18.3167 5.16829V9.83496C18.3167 10.9303 17.4287 11.8183 16.3333 11.8183H4.66666C3.57129 11.8183 2.68333 10.9303 2.68333 9.83496V5.16829Z" stroke="white" stroke-width="0.7"/>
    <path d="M2.68333 14.5016C2.68333 14.0506 3.04896 13.685 3.49999 13.685H5.83333C6.28436 13.685 6.64999 14.0506 6.64999 14.5016V15.6683C6.64999 16.1193 6.28436 16.485 5.83333 16.485H3.49999C3.04896 16.485 2.68333 16.1193 2.68333 15.6683V14.5016Z" stroke="white" stroke-width="0.7"/>
    <path d="M8.51663 14.5016C8.51663 14.0506 8.88226 13.685 9.33329 13.685H11.6666C12.1177 13.685 12.4833 14.0506 12.4833 14.5016V15.6683C12.4833 16.1193 12.1177 16.485 11.6666 16.485H9.33329C8.88226 16.485 8.51663 16.1193 8.51663 15.6683V14.5016Z" stroke="white" stroke-width="0.7"/>
    <path d="M14.35 14.5016C14.35 14.0506 14.7156 13.685 15.1667 13.685H17.5C17.951 13.685 18.3167 14.0506 18.3167 14.5016V15.6683C18.3167 16.1193 17.951 16.485 17.5 16.485H15.1667C14.7156 16.485 14.35 16.1193 14.35 15.6683V14.5016Z" stroke="white" stroke-width="0.7"/>
    <path d="M2.68333 19.1637C2.68333 18.7127 3.04896 18.3471 3.49999 18.3471H5.83333C6.28436 18.3471 6.64999 18.7127 6.64999 19.1637V20.3304C6.64999 20.7814 6.28436 21.1471 5.83333 21.1471H3.49999C3.04896 21.1471 2.68333 20.7814 2.68333 20.3304V19.1637Z" stroke="white" stroke-width="0.7"/>
    <path d="M8.51664 19.1637C8.51664 18.7127 8.88227 18.3471 9.33331 18.3471H11.6666C12.1177 18.3471 12.4833 18.7127 12.4833 19.1637V20.3304C12.4833 20.7814 12.1177 21.1471 11.6666 21.1471H9.33331C8.88227 21.1471 8.51664 20.7814 8.51664 20.3304V19.1637Z" stroke="white" stroke-width="0.7"/>
    <path d="M14.35 19.1637C14.35 18.7127 14.7156 18.3471 15.1666 18.3471H17.5C17.951 18.3471 18.3166 18.7127 18.3166 19.1637V20.3304C18.3166 20.7814 17.951 21.1471 17.5 21.1471H15.1666C14.7156 21.1471 14.35 20.7814 14.35 20.3304V19.1637Z" stroke="white" stroke-width="0.7"/>
    <path d="M2.68333 23.8337C2.68333 23.3826 3.04896 23.017 3.49999 23.017H5.83333C6.28436 23.017 6.64999 23.3826 6.64999 23.8337V25.0003C6.64999 25.4514 6.28436 25.817 5.83333 25.817H3.49999C3.04896 25.817 2.68333 25.4514 2.68333 25.0003V23.8337Z" stroke="white" stroke-width="0.7"/>
    <path d="M8.51663 23.8337C8.51663 23.3826 8.88226 23.017 9.33329 23.017H11.6666C12.1177 23.017 12.4833 23.3826 12.4833 23.8337V25.0003C12.4833 25.4514 12.1177 25.817 11.6666 25.817H9.33329C8.88226 25.817 8.51663 25.4514 8.51663 25.0003V23.8337Z" stroke="white" stroke-width="0.7"/>
    <path d="M14.35 23.8337C14.35 23.3826 14.7156 23.017 15.1667 23.017H17.5C17.951 23.017 18.3167 23.3826 18.3167 23.8337V25.0003C18.3167 25.4514 17.951 25.817 17.5 25.817H15.1667C14.7156 25.817 14.35 25.4514 14.35 25.0003V23.8337Z" stroke="white" stroke-width="0.7"/>
    <defs>
        <linearGradient id="paint0_linear_789_3186" x1="10.5" y1="28.5" x2="10.5" y2="0.5" gradientUnits="userSpaceOnUse">
            <stop stop-color="#003F79"/>
            <stop offset="0.9999" stop-color="#00ACDB"/>
        </linearGradient>
    </defs>
</svg>
