<svg width="22" height="23" viewBox="0 0 22 23" fill="none" xmlns="http://www.w3.org/2000/svg">
    <path d="M9.16675 4.97526V5.20443H12.8334V4.97526C12.8334 4.48903 12.6403 4.02271 12.2964 3.6789C11.9526 3.33508 11.4863 3.14193 11.0001 3.14193C10.5139 3.14193 10.0475 3.33508 9.70372 3.6789C9.3599 4.02271 9.16675 4.48903 9.16675 4.97526ZM8.02091 5.20443V4.97526C8.02091 4.18514 8.33479 3.42737 8.89349 2.86867C9.45219 2.30997 10.21 1.99609 11.0001 1.99609C11.7902 1.99609 12.548 2.30997 13.1067 2.86867C13.6654 3.42737 13.9792 4.18514 13.9792 4.97526V5.20443H19.1355C19.2874 5.20443 19.4332 5.26479 19.5406 5.37223C19.6481 5.47967 19.7084 5.6254 19.7084 5.77734C19.7084 5.92929 19.6481 6.07501 19.5406 6.18246C19.4332 6.2899 19.2874 6.35026 19.1355 6.35026H17.7985L16.8819 17.2843C16.8122 18.1146 16.4332 18.8884 15.8198 19.4525C15.2065 20.0165 14.4037 20.3295 13.5704 20.3294H8.42975C7.59659 20.3294 6.79385 20.0163 6.18062 19.4523C5.56738 18.8883 5.18839 18.1145 5.11875 17.2843L4.20208 6.35026H2.86466C2.71272 6.35026 2.56699 6.2899 2.45955 6.18246C2.35211 6.07501 2.29175 5.92929 2.29175 5.77734C2.29175 5.6254 2.35211 5.47967 2.45955 5.37223C2.56699 5.26479 2.71272 5.20443 2.86466 5.20443H8.02091ZM6.26046 17.1885C6.30608 17.7324 6.55438 18.2394 6.95616 18.6089C7.35794 18.9784 7.88388 19.1835 8.42975 19.1836H13.5704C14.1164 19.1837 14.6424 18.9786 15.0443 18.6091C15.4462 18.2395 15.6945 17.7325 15.7402 17.1885L16.6486 6.35026H5.35158L6.26046 17.1885ZM9.85425 9.44401C9.85425 9.36877 9.83943 9.29427 9.81064 9.22477C9.78185 9.15526 9.73965 9.0921 9.68644 9.0389C9.63324 8.9857 9.57009 8.9435 9.50058 8.9147C9.43107 8.88591 9.35657 8.87109 9.28133 8.87109C9.20609 8.87109 9.1316 8.88591 9.06209 8.9147C8.99258 8.9435 8.92942 8.9857 8.87622 9.0389C8.82302 9.0921 8.78082 9.15526 8.75202 9.22477C8.72323 9.29427 8.70841 9.36877 8.70841 9.44401V16.0898C8.70841 16.1651 8.72323 16.2396 8.75202 16.3091C8.78082 16.3786 8.82302 16.4418 8.87622 16.495C8.92942 16.5482 8.99258 16.5904 9.06209 16.6192C9.1316 16.6479 9.20609 16.6628 9.28133 16.6628C9.35657 16.6628 9.43107 16.6479 9.50058 16.6192C9.57009 16.5904 9.63324 16.5482 9.68644 16.495C9.73965 16.4418 9.78185 16.3786 9.81064 16.3091C9.83943 16.2396 9.85425 16.1651 9.85425 16.0898V9.44401ZM12.7188 8.87109C13.0351 8.87109 13.2917 9.12776 13.2917 9.44401V16.0898C13.2917 16.2418 13.2314 16.3875 13.1239 16.495C13.0165 16.6024 12.8708 16.6628 12.7188 16.6628C12.5669 16.6628 12.4212 16.6024 12.3137 16.495C12.2063 16.3875 12.1459 16.2418 12.1459 16.0898V9.44401C12.1459 9.12776 12.4026 8.87109 12.7188 8.87109Z" fill="#575665" stroke="#575665" stroke-width="0.7"/>
</svg>
