<svg width="14" height="14" viewBox="0 0 14 14" fill="none" xmlns="http://www.w3.org/2000/svg">
<g id="raphael:dollar" clip-path="url(#clip0_497_1646)">
<path id="Vector" d="M7 0.641357C3.48819 0.641357 0.641373 3.48817 0.641373 6.99998C0.641373 10.5118 3.48819 13.3586 7 13.3586C10.5118 13.3586 13.3586 10.5118 13.3586 6.99998C13.3586 3.48817 10.5118 0.641357 7 0.641357ZM7.54906 10.4475V11.343H6.69244V10.4575C5.28675 10.265 4.67119 9.11005 4.67119 9.11005L5.54619 8.37811C5.54619 8.37811 6.10487 9.35067 7.1155 9.35067C7.67375 9.35067 8.09725 9.05186 8.09725 8.5413C8.09725 7.3478 4.88162 7.49261 4.88162 5.27842C4.88162 4.31592 5.64287 3.62248 6.692 3.45842V2.56373H7.54862V3.45842C8.28012 3.55467 9.14637 3.93967 9.14637 4.76786V5.40311H8.01062V5.09511C8.01062 4.77748 7.60594 4.56573 7.15312 4.56573C6.57562 4.56573 6.15256 4.85448 6.15256 5.25873C6.15256 6.48111 9.36819 6.18273 9.36819 8.5028C9.36819 9.45655 8.65594 10.2834 7.54906 10.4475Z" fill="url(#paint0_linear_497_1646)"/>
</g>
<defs>
<linearGradient id="paint0_linear_497_1646" x1="0.641373" y1="7.11996" x2="13.2289" y2="7.11996" gradientUnits="userSpaceOnUse">
<stop stop-color="#003F79"/>
<stop offset="0.9999" stop-color="#00ACDB"/>
</linearGradient>
<clipPath id="clip0_497_1646">
<rect width="14" height="14" fill="white"/>
</clipPath>
</defs>
</svg>
