<svg width="11" height="8" viewBox="0 0 11 8" fill="none" xmlns="http://www.w3.org/2000/svg">
    <path d="M5.46 0.857666C5.67545 0.857666 5.86011 0.937689 6.02016 1.11005L10.7107 5.89909C10.8461 6.03451 10.92 6.20687 10.92 6.41C10.92 6.81627 10.5999 7.14251 10.1875 7.14251C9.98435 7.14251 9.80584 7.05634 9.66426 6.92091L5.46 2.60585L1.25574 6.92091C1.11416 7.05634 0.929492 7.14251 0.732514 7.14251C0.32009 7.14251 -2.60459e-07 6.81627 -2.427e-07 6.41C-2.33821e-07 6.20686 0.0738667 6.03451 0.20929 5.89909L4.89369 1.11004C5.05989 0.937689 5.24455 0.857666 5.46 0.857666Z" fill="#575665"/>
</svg>
