<svg width="173" height="20" viewBox="0 0 173 20" fill="none" xmlns="http://www.w3.org/2000/svg">
    <path fill-rule="evenodd" clip-rule="evenodd" d="M13.8659 1.88679C14.1806 1.88679 14.4358 2.14022 14.4358 2.45283V17.5472C14.4358 17.8598 14.1806 18.1132 13.8659 18.1132C13.5512 18.1132 13.2961 17.8598 13.2961 17.5472V2.45283C13.2961 2.14022 13.5512 1.88679 13.8659 1.88679Z" fill="#9593A2"/>
    <path fill-rule="evenodd" clip-rule="evenodd" d="M16.5251 0C16.8398 0 17.095 0.253424 17.095 0.566038V19.434C17.095 19.7466 16.8398 20 16.5251 20C16.2104 20 15.9553 19.7466 15.9553 19.434V0.566038C15.9553 0.253424 16.2104 0 16.5251 0Z" fill="#9593A2"/>
    <path fill-rule="evenodd" clip-rule="evenodd" d="M19.1844 1.88679C19.4991 1.88679 19.7542 2.14022 19.7542 2.45283V17.5472C19.7542 17.8598 19.4991 18.1132 19.1844 18.1132C18.8696 18.1132 18.6145 17.8598 18.6145 17.5472V2.45283C18.6145 2.14022 18.8696 1.88679 19.1844 1.88679Z" fill="#9593A2"/>
    <path fill-rule="evenodd" clip-rule="evenodd" d="M21.8436 4.90566C22.1583 4.90566 22.4134 5.15908 22.4134 5.4717V14.5283C22.4134 14.8409 22.1583 15.0943 21.8436 15.0943C21.5289 15.0943 21.2737 14.8409 21.2737 14.5283V5.4717C21.2737 5.15908 21.5289 4.90566 21.8436 4.90566Z" fill="#9593A2"/>
    <path fill-rule="evenodd" clip-rule="evenodd" d="M24.5028 6.41509C24.8175 6.41509 25.0726 6.66852 25.0726 6.98113V13.0189C25.0726 13.3315 24.8175 13.5849 24.5028 13.5849C24.1881 13.5849 23.933 13.3315 23.933 13.0189V6.98113C23.933 6.66852 24.1881 6.41509 24.5028 6.41509Z" fill="#9593A2"/>
    <path fill-rule="evenodd" clip-rule="evenodd" d="M27.162 7.54717C27.4767 7.54717 27.7318 7.80059 27.7318 8.11321V11.8868C27.7318 12.1994 27.4767 12.4528 27.162 12.4528C26.8473 12.4528 26.5922 12.1994 26.5922 11.8868V8.11321C26.5922 7.80059 26.8473 7.54717 27.162 7.54717Z" fill="#9593A2"/>
    <path fill-rule="evenodd" clip-rule="evenodd" d="M29.8212 5.66038C30.1359 5.66038 30.3911 5.9138 30.3911 6.22642V13.7736C30.3911 14.0862 30.1359 14.3396 29.8212 14.3396C29.5065 14.3396 29.2514 14.0862 29.2514 13.7736V6.22642C29.2514 5.9138 29.5065 5.66038 29.8212 5.66038Z" fill="#9593A2"/>
    <path fill-rule="evenodd" clip-rule="evenodd" d="M32.4302 7.16981C32.7449 7.16981 33 7.42324 33 7.73585V12.2642C33 12.5768 32.7449 12.8302 32.4302 12.8302C32.1155 12.8302 31.8603 12.5768 31.8603 12.2642V7.73585C31.8603 7.42324 32.1155 7.16981 32.4302 7.16981Z" fill="#9593A2"/>
    <path fill-rule="evenodd" clip-rule="evenodd" d="M0.569832 7.16981C0.255123 7.16981 0 7.42324 0 7.73585V12.2642C0 12.5768 0.255123 12.8302 0.569832 12.8302C0.884542 12.8302 1.13966 12.5768 1.13966 12.2642V7.73585C1.13966 7.42324 0.884542 7.16981 0.569832 7.16981Z" fill="#9593A2"/>
    <path fill-rule="evenodd" clip-rule="evenodd" d="M3.22905 5.66038C2.91434 5.66038 2.65922 5.9138 2.65922 6.22642V13.7736C2.65922 14.0862 2.91434 14.3396 3.22905 14.3396C3.54376 14.3396 3.79888 14.0862 3.79888 13.7736V6.22642C3.79888 5.9138 3.54376 5.66038 3.22905 5.66038Z" fill="#9593A2"/>
    <path fill-rule="evenodd" clip-rule="evenodd" d="M5.88827 7.54717C5.57356 7.54717 5.31844 7.80059 5.31844 8.11321V11.8868C5.31844 12.1994 5.57356 12.4528 5.88827 12.4528C6.20298 12.4528 6.4581 12.1994 6.4581 11.8868V8.11321C6.4581 7.80059 6.20298 7.54717 5.88827 7.54717Z" fill="#9593A2"/>
    <path fill-rule="evenodd" clip-rule="evenodd" d="M8.54749 6.41509C8.23278 6.41509 7.97765 6.66852 7.97765 6.98113V13.0189C7.97765 13.3315 8.23278 13.5849 8.54749 13.5849C8.8622 13.5849 9.11732 13.3315 9.11732 13.0189V6.98113C9.11732 6.66852 8.8622 6.41509 8.54749 6.41509Z" fill="#9593A2"/>
    <path fill-rule="evenodd" clip-rule="evenodd" d="M11.2067 4.90566C10.892 4.90566 10.6369 5.15908 10.6369 5.4717V14.5283C10.6369 14.8409 10.892 15.0943 11.2067 15.0943C11.5214 15.0943 11.7765 14.8409 11.7765 14.5283V5.4717C11.7765 5.15908 11.5214 4.90566 11.2067 4.90566Z" fill="#9593A2"/>
    <path fill-rule="evenodd" clip-rule="evenodd" d="M48.8659 1.88679C49.1806 1.88679 49.4358 2.14022 49.4358 2.45283V17.5472C49.4358 17.8598 49.1806 18.1132 48.8659 18.1132C48.5512 18.1132 48.2961 17.8598 48.2961 17.5472V2.45283C48.2961 2.14022 48.5512 1.88679 48.8659 1.88679Z" fill="#9593A2"/>
    <path fill-rule="evenodd" clip-rule="evenodd" d="M51.5251 0C51.8398 0 52.095 0.253424 52.095 0.566038V19.434C52.095 19.7466 51.8398 20 51.5251 20C51.2104 20 50.9553 19.7466 50.9553 19.434V0.566038C50.9553 0.253424 51.2104 0 51.5251 0Z" fill="#9593A2"/>
    <path fill-rule="evenodd" clip-rule="evenodd" d="M54.1844 1.88679C54.4991 1.88679 54.7542 2.14022 54.7542 2.45283V17.5472C54.7542 17.8598 54.4991 18.1132 54.1844 18.1132C53.8696 18.1132 53.6145 17.8598 53.6145 17.5472V2.45283C53.6145 2.14022 53.8696 1.88679 54.1844 1.88679Z" fill="#9593A2"/>
    <path fill-rule="evenodd" clip-rule="evenodd" d="M56.8436 4.90566C57.1583 4.90566 57.4134 5.15908 57.4134 5.4717V14.5283C57.4134 14.8409 57.1583 15.0943 56.8436 15.0943C56.5289 15.0943 56.2737 14.8409 56.2737 14.5283V5.4717C56.2737 5.15908 56.5289 4.90566 56.8436 4.90566Z" fill="#9593A2"/>
    <path fill-rule="evenodd" clip-rule="evenodd" d="M59.5028 6.41509C59.8175 6.41509 60.0726 6.66852 60.0726 6.98113V13.0189C60.0726 13.3315 59.8175 13.5849 59.5028 13.5849C59.1881 13.5849 58.933 13.3315 58.933 13.0189V6.98113C58.933 6.66852 59.1881 6.41509 59.5028 6.41509Z" fill="#9593A2"/>
    <path fill-rule="evenodd" clip-rule="evenodd" d="M62.162 7.54717C62.4767 7.54717 62.7318 7.80059 62.7318 8.11321V11.8868C62.7318 12.1994 62.4767 12.4528 62.162 12.4528C61.8473 12.4528 61.5922 12.1994 61.5922 11.8868V8.11321C61.5922 7.80059 61.8473 7.54717 62.162 7.54717Z" fill="#9593A2"/>
    <path fill-rule="evenodd" clip-rule="evenodd" d="M64.8212 5.66038C65.1359 5.66038 65.3911 5.9138 65.3911 6.22642V13.7736C65.3911 14.0862 65.1359 14.3396 64.8212 14.3396C64.5065 14.3396 64.2514 14.0862 64.2514 13.7736V6.22642C64.2514 5.9138 64.5065 5.66038 64.8212 5.66038Z" fill="#9593A2"/>
    <path fill-rule="evenodd" clip-rule="evenodd" d="M67.4302 7.16981C67.7449 7.16981 68 7.42324 68 7.73585V12.2642C68 12.5768 67.7449 12.8302 67.4302 12.8302C67.1155 12.8302 66.8603 12.5768 66.8603 12.2642V7.73585C66.8603 7.42324 67.1155 7.16981 67.4302 7.16981Z" fill="#9593A2"/>
    <path fill-rule="evenodd" clip-rule="evenodd" d="M35.5698 7.16981C35.2551 7.16981 35 7.42324 35 7.73585V12.2642C35 12.5768 35.2551 12.8302 35.5698 12.8302C35.8845 12.8302 36.1397 12.5768 36.1397 12.2642V7.73585C36.1397 7.42324 35.8845 7.16981 35.5698 7.16981Z" fill="#9593A2"/>
    <path fill-rule="evenodd" clip-rule="evenodd" d="M38.229 5.66038C37.9143 5.66038 37.6592 5.9138 37.6592 6.22642V13.7736C37.6592 14.0862 37.9143 14.3396 38.229 14.3396C38.5438 14.3396 38.7989 14.0862 38.7989 13.7736V6.22642C38.7989 5.9138 38.5438 5.66038 38.229 5.66038Z" fill="#9593A2"/>
    <path fill-rule="evenodd" clip-rule="evenodd" d="M40.8883 7.54717C40.5736 7.54717 40.3184 7.80059 40.3184 8.11321V11.8868C40.3184 12.1994 40.5736 12.4528 40.8883 12.4528C41.203 12.4528 41.4581 12.1994 41.4581 11.8868V8.11321C41.4581 7.80059 41.203 7.54717 40.8883 7.54717Z" fill="#9593A2"/>
    <path fill-rule="evenodd" clip-rule="evenodd" d="M43.5475 6.41509C43.2328 6.41509 42.9777 6.66852 42.9777 6.98113V13.0189C42.9777 13.3315 43.2328 13.5849 43.5475 13.5849C43.8622 13.5849 44.1173 13.3315 44.1173 13.0189V6.98113C44.1173 6.66852 43.8622 6.41509 43.5475 6.41509Z" fill="#9593A2"/>
    <path fill-rule="evenodd" clip-rule="evenodd" d="M46.2067 4.90566C45.892 4.90566 45.6369 5.15908 45.6369 5.4717V14.5283C45.6369 14.8409 45.892 15.0943 46.2067 15.0943C46.5214 15.0943 46.7765 14.8409 46.7765 14.5283V5.4717C46.7765 5.15908 46.5214 4.90566 46.2067 4.90566Z" fill="#9593A2"/>
    <path fill-rule="evenodd" clip-rule="evenodd" d="M83.8659 1.88679C84.1806 1.88679 84.4358 2.14022 84.4358 2.45283V17.5472C84.4358 17.8598 84.1806 18.1132 83.8659 18.1132C83.5512 18.1132 83.2961 17.8598 83.2961 17.5472V2.45283C83.2961 2.14022 83.5512 1.88679 83.8659 1.88679Z" fill="#9593A2"/>
    <path fill-rule="evenodd" clip-rule="evenodd" d="M86.5251 0C86.8399 0 87.095 0.253424 87.095 0.566038V19.434C87.095 19.7466 86.8399 20 86.5251 20C86.2104 20 85.9553 19.7466 85.9553 19.434V0.566038C85.9553 0.253424 86.2104 0 86.5251 0Z" fill="#9593A2"/>
    <path fill-rule="evenodd" clip-rule="evenodd" d="M89.1844 1.88679C89.4991 1.88679 89.7542 2.14022 89.7542 2.45283V17.5472C89.7542 17.8598 89.4991 18.1132 89.1844 18.1132C88.8696 18.1132 88.6145 17.8598 88.6145 17.5472V2.45283C88.6145 2.14022 88.8696 1.88679 89.1844 1.88679Z" fill="#9593A2"/>
    <path fill-rule="evenodd" clip-rule="evenodd" d="M91.8436 4.90566C92.1583 4.90566 92.4134 5.15908 92.4134 5.4717V14.5283C92.4134 14.8409 92.1583 15.0943 91.8436 15.0943C91.5289 15.0943 91.2737 14.8409 91.2737 14.5283V5.4717C91.2737 5.15908 91.5289 4.90566 91.8436 4.90566Z" fill="#9593A2"/>
    <path fill-rule="evenodd" clip-rule="evenodd" d="M94.5028 6.41509C94.8175 6.41509 95.0726 6.66852 95.0726 6.98113V13.0189C95.0726 13.3315 94.8175 13.5849 94.5028 13.5849C94.1881 13.5849 93.933 13.3315 93.933 13.0189V6.98113C93.933 6.66852 94.1881 6.41509 94.5028 6.41509Z" fill="#9593A2"/>
    <path fill-rule="evenodd" clip-rule="evenodd" d="M97.162 7.54717C97.4767 7.54717 97.7318 7.80059 97.7318 8.11321V11.8868C97.7318 12.1994 97.4767 12.4528 97.162 12.4528C96.8473 12.4528 96.5922 12.1994 96.5922 11.8868V8.11321C96.5922 7.80059 96.8473 7.54717 97.162 7.54717Z" fill="#9593A2"/>
    <path fill-rule="evenodd" clip-rule="evenodd" d="M99.8212 5.66038C100.136 5.66038 100.391 5.9138 100.391 6.22642V13.7736C100.391 14.0862 100.136 14.3396 99.8212 14.3396C99.5065 14.3396 99.2514 14.0862 99.2514 13.7736V6.22642C99.2514 5.9138 99.5065 5.66038 99.8212 5.66038Z" fill="#9593A2"/>
    <path fill-rule="evenodd" clip-rule="evenodd" d="M102.43 7.16981C102.745 7.16981 103 7.42324 103 7.73585V12.2642C103 12.5768 102.745 12.8302 102.43 12.8302C102.115 12.8302 101.86 12.5768 101.86 12.2642V7.73585C101.86 7.42324 102.115 7.16981 102.43 7.16981Z" fill="#9593A2"/>
    <path fill-rule="evenodd" clip-rule="evenodd" d="M70.5698 7.16981C70.2551 7.16981 70 7.42324 70 7.73585V12.2642C70 12.5768 70.2551 12.8302 70.5698 12.8302C70.8845 12.8302 71.1397 12.5768 71.1397 12.2642V7.73585C71.1397 7.42324 70.8845 7.16981 70.5698 7.16981Z" fill="#9593A2"/>
    <path fill-rule="evenodd" clip-rule="evenodd" d="M73.229 5.66038C72.9143 5.66038 72.6592 5.9138 72.6592 6.22642V13.7736C72.6592 14.0862 72.9143 14.3396 73.229 14.3396C73.5438 14.3396 73.7989 14.0862 73.7989 13.7736V6.22642C73.7989 5.9138 73.5438 5.66038 73.229 5.66038Z" fill="#9593A2"/>
    <path fill-rule="evenodd" clip-rule="evenodd" d="M75.8883 7.54717C75.5736 7.54717 75.3184 7.80059 75.3184 8.11321V11.8868C75.3184 12.1994 75.5736 12.4528 75.8883 12.4528C76.203 12.4528 76.4581 12.1994 76.4581 11.8868V8.11321C76.4581 7.80059 76.203 7.54717 75.8883 7.54717Z" fill="#9593A2"/>
    <path fill-rule="evenodd" clip-rule="evenodd" d="M78.5475 6.41509C78.2328 6.41509 77.9777 6.66852 77.9777 6.98113V13.0189C77.9777 13.3315 78.2328 13.5849 78.5475 13.5849C78.8622 13.5849 79.1173 13.3315 79.1173 13.0189V6.98113C79.1173 6.66852 78.8622 6.41509 78.5475 6.41509Z" fill="#9593A2"/>
    <path fill-rule="evenodd" clip-rule="evenodd" d="M81.2067 4.90566C80.892 4.90566 80.6369 5.15908 80.6369 5.4717V14.5283C80.6369 14.8409 80.892 15.0943 81.2067 15.0943C81.5214 15.0943 81.7765 14.8409 81.7765 14.5283V5.4717C81.7765 5.15908 81.5214 4.90566 81.2067 4.90566Z" fill="#9593A2"/>
    <path fill-rule="evenodd" clip-rule="evenodd" d="M118.866 1.88679C119.181 1.88679 119.436 2.14022 119.436 2.45283V17.5472C119.436 17.8598 119.181 18.1132 118.866 18.1132C118.551 18.1132 118.296 17.8598 118.296 17.5472V2.45283C118.296 2.14022 118.551 1.88679 118.866 1.88679Z" fill="#9593A2"/>
    <path fill-rule="evenodd" clip-rule="evenodd" d="M121.525 0C121.84 0 122.095 0.253424 122.095 0.566038V19.434C122.095 19.7466 121.84 20 121.525 20C121.21 20 120.955 19.7466 120.955 19.434V0.566038C120.955 0.253424 121.21 0 121.525 0Z" fill="#9593A2"/>
    <path fill-rule="evenodd" clip-rule="evenodd" d="M124.184 1.88679C124.499 1.88679 124.754 2.14022 124.754 2.45283V17.5472C124.754 17.8598 124.499 18.1132 124.184 18.1132C123.87 18.1132 123.615 17.8598 123.615 17.5472V2.45283C123.615 2.14022 123.87 1.88679 124.184 1.88679Z" fill="#9593A2"/>
    <path fill-rule="evenodd" clip-rule="evenodd" d="M126.844 4.90566C127.158 4.90566 127.413 5.15908 127.413 5.4717V14.5283C127.413 14.8409 127.158 15.0943 126.844 15.0943C126.529 15.0943 126.274 14.8409 126.274 14.5283V5.4717C126.274 5.15908 126.529 4.90566 126.844 4.90566Z" fill="#9593A2"/>
    <path fill-rule="evenodd" clip-rule="evenodd" d="M129.503 6.41509C129.818 6.41509 130.073 6.66852 130.073 6.98113V13.0189C130.073 13.3315 129.818 13.5849 129.503 13.5849C129.188 13.5849 128.933 13.3315 128.933 13.0189V6.98113C128.933 6.66852 129.188 6.41509 129.503 6.41509Z" fill="#9593A2"/>
    <path fill-rule="evenodd" clip-rule="evenodd" d="M132.162 7.54717C132.477 7.54717 132.732 7.80059 132.732 8.11321V11.8868C132.732 12.1994 132.477 12.4528 132.162 12.4528C131.847 12.4528 131.592 12.1994 131.592 11.8868V8.11321C131.592 7.80059 131.847 7.54717 132.162 7.54717Z" fill="#9593A2"/>
    <path fill-rule="evenodd" clip-rule="evenodd" d="M134.821 5.66038C135.136 5.66038 135.391 5.9138 135.391 6.22642V13.7736C135.391 14.0862 135.136 14.3396 134.821 14.3396C134.507 14.3396 134.251 14.0862 134.251 13.7736V6.22642C134.251 5.9138 134.507 5.66038 134.821 5.66038Z" fill="#9593A2"/>
    <path fill-rule="evenodd" clip-rule="evenodd" d="M137.43 7.16981C137.745 7.16981 138 7.42324 138 7.73585V12.2642C138 12.5768 137.745 12.8302 137.43 12.8302C137.115 12.8302 136.86 12.5768 136.86 12.2642V7.73585C136.86 7.42324 137.115 7.16981 137.43 7.16981Z" fill="#9593A2"/>
    <path fill-rule="evenodd" clip-rule="evenodd" d="M105.57 7.16981C105.255 7.16981 105 7.42324 105 7.73585V12.2642C105 12.5768 105.255 12.8302 105.57 12.8302C105.885 12.8302 106.14 12.5768 106.14 12.2642V7.73585C106.14 7.42324 105.885 7.16981 105.57 7.16981Z" fill="#9593A2"/>
    <path fill-rule="evenodd" clip-rule="evenodd" d="M108.229 5.66038C107.914 5.66038 107.659 5.9138 107.659 6.22642V13.7736C107.659 14.0862 107.914 14.3396 108.229 14.3396C108.544 14.3396 108.799 14.0862 108.799 13.7736V6.22642C108.799 5.9138 108.544 5.66038 108.229 5.66038Z" fill="#9593A2"/>
    <path fill-rule="evenodd" clip-rule="evenodd" d="M110.888 7.54717C110.574 7.54717 110.318 7.80059 110.318 8.11321V11.8868C110.318 12.1994 110.574 12.4528 110.888 12.4528C111.203 12.4528 111.458 12.1994 111.458 11.8868V8.11321C111.458 7.80059 111.203 7.54717 110.888 7.54717Z" fill="#9593A2"/>
    <path fill-rule="evenodd" clip-rule="evenodd" d="M113.547 6.41509C113.233 6.41509 112.978 6.66852 112.978 6.98113V13.0189C112.978 13.3315 113.233 13.5849 113.547 13.5849C113.862 13.5849 114.117 13.3315 114.117 13.0189V6.98113C114.117 6.66852 113.862 6.41509 113.547 6.41509Z" fill="#9593A2"/>
    <path fill-rule="evenodd" clip-rule="evenodd" d="M116.207 4.90566C115.892 4.90566 115.637 5.15908 115.637 5.4717V14.5283C115.637 14.8409 115.892 15.0943 116.207 15.0943C116.521 15.0943 116.777 14.8409 116.777 14.5283V5.4717C116.777 5.15908 116.521 4.90566 116.207 4.90566Z" fill="#9593A2"/>
    <path fill-rule="evenodd" clip-rule="evenodd" d="M153.866 1.88679C154.181 1.88679 154.436 2.14022 154.436 2.45283V17.5472C154.436 17.8598 154.181 18.1132 153.866 18.1132C153.551 18.1132 153.296 17.8598 153.296 17.5472V2.45283C153.296 2.14022 153.551 1.88679 153.866 1.88679Z" fill="#9593A2"/>
    <path fill-rule="evenodd" clip-rule="evenodd" d="M156.525 0C156.84 0 157.095 0.253424 157.095 0.566038V19.434C157.095 19.7466 156.84 20 156.525 20C156.21 20 155.955 19.7466 155.955 19.434V0.566038C155.955 0.253424 156.21 0 156.525 0Z" fill="#9593A2"/>
    <path fill-rule="evenodd" clip-rule="evenodd" d="M159.184 1.88679C159.499 1.88679 159.754 2.14022 159.754 2.45283V17.5472C159.754 17.8598 159.499 18.1132 159.184 18.1132C158.87 18.1132 158.615 17.8598 158.615 17.5472V2.45283C158.615 2.14022 158.87 1.88679 159.184 1.88679Z" fill="#9593A2"/>
    <path fill-rule="evenodd" clip-rule="evenodd" d="M161.844 4.90566C162.158 4.90566 162.413 5.15908 162.413 5.4717V14.5283C162.413 14.8409 162.158 15.0943 161.844 15.0943C161.529 15.0943 161.274 14.8409 161.274 14.5283V5.4717C161.274 5.15908 161.529 4.90566 161.844 4.90566Z" fill="#9593A2"/>
    <path fill-rule="evenodd" clip-rule="evenodd" d="M164.503 6.41509C164.818 6.41509 165.073 6.66852 165.073 6.98113V13.0189C165.073 13.3315 164.818 13.5849 164.503 13.5849C164.188 13.5849 163.933 13.3315 163.933 13.0189V6.98113C163.933 6.66852 164.188 6.41509 164.503 6.41509Z" fill="#9593A2"/>
    <path fill-rule="evenodd" clip-rule="evenodd" d="M167.162 7.54717C167.477 7.54717 167.732 7.80059 167.732 8.11321V11.8868C167.732 12.1994 167.477 12.4528 167.162 12.4528C166.847 12.4528 166.592 12.1994 166.592 11.8868V8.11321C166.592 7.80059 166.847 7.54717 167.162 7.54717Z" fill="#9593A2"/>
    <path fill-rule="evenodd" clip-rule="evenodd" d="M169.821 5.66038C170.136 5.66038 170.391 5.9138 170.391 6.22642V13.7736C170.391 14.0862 170.136 14.3396 169.821 14.3396C169.507 14.3396 169.251 14.0862 169.251 13.7736V6.22642C169.251 5.9138 169.507 5.66038 169.821 5.66038Z" fill="#9593A2"/>
    <path fill-rule="evenodd" clip-rule="evenodd" d="M172.43 7.16981C172.745 7.16981 173 7.42324 173 7.73585V12.2642C173 12.5768 172.745 12.8302 172.43 12.8302C172.115 12.8302 171.86 12.5768 171.86 12.2642V7.73585C171.86 7.42324 172.115 7.16981 172.43 7.16981Z" fill="#9593A2"/>
    <path fill-rule="evenodd" clip-rule="evenodd" d="M140.57 7.16981C140.255 7.16981 140 7.42324 140 7.73585V12.2642C140 12.5768 140.255 12.8302 140.57 12.8302C140.885 12.8302 141.14 12.5768 141.14 12.2642V7.73585C141.14 7.42324 140.885 7.16981 140.57 7.16981Z" fill="#9593A2"/>
    <path fill-rule="evenodd" clip-rule="evenodd" d="M143.229 5.66038C142.914 5.66038 142.659 5.9138 142.659 6.22642V13.7736C142.659 14.0862 142.914 14.3396 143.229 14.3396C143.544 14.3396 143.799 14.0862 143.799 13.7736V6.22642C143.799 5.9138 143.544 5.66038 143.229 5.66038Z" fill="#9593A2"/>
    <path fill-rule="evenodd" clip-rule="evenodd" d="M145.888 7.54717C145.574 7.54717 145.318 7.80059 145.318 8.11321V11.8868C145.318 12.1994 145.574 12.4528 145.888 12.4528C146.203 12.4528 146.458 12.1994 146.458 11.8868V8.11321C146.458 7.80059 146.203 7.54717 145.888 7.54717Z" fill="#9593A2"/>
    <path fill-rule="evenodd" clip-rule="evenodd" d="M148.547 6.41509C148.233 6.41509 147.978 6.66852 147.978 6.98113V13.0189C147.978 13.3315 148.233 13.5849 148.547 13.5849C148.862 13.5849 149.117 13.3315 149.117 13.0189V6.98113C149.117 6.66852 148.862 6.41509 148.547 6.41509Z" fill="#9593A2"/>
    <path fill-rule="evenodd" clip-rule="evenodd" d="M151.207 4.90566C150.892 4.90566 150.637 5.15908 150.637 5.4717V14.5283C150.637 14.8409 150.892 15.0943 151.207 15.0943C151.521 15.0943 151.777 14.8409 151.777 14.5283V5.4717C151.777 5.15908 151.521 4.90566 151.207 4.90566Z" fill="#9593A2"/>
</svg>
