<svg width="20" height="20" viewBox="0 0 20 20" fill="none" xmlns="http://www.w3.org/2000/svg">
<g id="Camera">
<g id="Group">
<path id="Vector" d="M12.3999 9.20024C13.2836 9.20024 13.9999 8.4839 13.9999 7.60024C13.9999 6.71659 13.2836 6.00024 12.3999 6.00024C11.5163 6.00024 10.7999 6.71659 10.7999 7.60024C10.7999 8.4839 11.5163 9.20024 12.3999 9.20024Z" stroke="#9AA1AB"/>
<path id="Vector_2" d="M16.4 14.4802L14.6216 12.8802C14.2179 12.5166 13.7027 12.3009 13.1603 12.2682C12.618 12.2355 12.0806 12.3878 11.636 12.7002L11.3968 12.8682C11.0887 13.0847 10.7141 13.1856 10.3389 13.1531C9.96369 13.1206 9.61197 12.9568 9.34565 12.6906L5.91365 9.25855C5.58354 8.92874 5.14045 8.73667 4.67407 8.72122C4.20769 8.70578 3.75286 8.86811 3.40165 9.17535L2.22565 10.2042" stroke="#9AA1AB" stroke-linecap="round"/>
<path id="Vector_3" d="M10 18C14.4183 18 18 14.4183 18 10C18 5.58172 14.4183 2 10 2C5.58172 2 2 5.58172 2 10C2 14.4183 5.58172 18 10 18Z" stroke="#9AA1AB"/>
</g>
</g>
</svg>
