<svg width="17" height="16" viewBox="0 0 17 16" fill="none" xmlns="http://www.w3.org/2000/svg">
    <path d="M5.83329 10.9998V11.3332C6.96063 9.6145 8.23329 8.69784 9.83329 8.6665V10.6665C9.83329 11.0338 10.174 11.3332 10.5953 11.3332C10.838 11.3332 11.0453 11.2278 11.184 11.0725C12.4726 9.71984 15.1666 6.99984 15.1666 6.99984C15.1666 6.99984 12.4726 4.2785 11.1833 2.9085C11.0265 2.75403 10.8154 2.66715 10.5953 2.6665C10.174 2.6665 9.83329 2.9645 9.83329 3.33317V5.33317C6.72663 5.33317 5.83329 8.5805 5.83329 10.9998ZM3.83329 13.9998H13.1666C13.3434 13.9998 13.513 13.9296 13.638 13.8046C13.7631 13.6796 13.8333 13.51 13.8333 13.3332V10.3025C13.3906 10.7532 12.924 11.2312 12.5 11.6672V12.6665H4.49996V4.6665H8.16663V3.33317H3.83329C3.65648 3.33317 3.48691 3.40341 3.36189 3.52843C3.23686 3.65346 3.16663 3.82303 3.16663 3.99984V13.3332C3.16663 13.51 3.23686 13.6796 3.36189 13.8046C3.48691 13.9296 3.65648 13.9998 3.83329 13.9998Z" fill="white"/>
</svg>
