<svg width="10" height="8" viewBox="0 0 10 8" fill="none" xmlns="http://www.w3.org/2000/svg">
    <path fill-rule="evenodd" clip-rule="evenodd" d="M0 4C0.4725 1.718 2.5315 0 5 0C7.4685 0 9.5275 1.718 10 4C9.5275 6.282 7.4685 8 5 8C2.5315 8 0.4725 6.282 0 4ZM5 6.5C5.66304 6.5 6.29893 6.23661 6.76777 5.76777C7.23661 5.29892 7.5 4.66304 7.5 4C7.5 3.33696 7.23661 2.70107 6.76777 2.23223C6.29893 1.76339 5.66304 1.5 5 1.5C4.33696 1.5 3.70107 1.76339 3.23223 2.23223C2.76339 2.70107 2.5 3.33696 2.5 4C2.5 4.66304 2.76339 5.29892 3.23223 5.76777C3.70107 6.23661 4.33696 6.5 5 6.5ZM5 5.5C5.39782 5.5 5.77936 5.34196 6.06066 5.06066C6.34196 4.77935 6.5 4.39782 6.5 4C6.5 3.60217 6.34196 3.22064 6.06066 2.93934C5.77936 2.65803 5.39782 2.5 5 2.5C4.60218 2.5 4.22064 2.65803 3.93934 2.93934C3.65804 3.22064 3.5 3.60217 3.5 4C3.5 4.39782 3.65804 4.77935 3.93934 5.06066C4.22064 5.34196 4.60218 5.5 5 5.5Z" fill="#575665"/>
</svg>
