<svg width="40" height="40" viewBox="0 0 40 40" fill="none" xmlns="http://www.w3.org/2000/svg">
<path d="M0 20C0 8.95431 8.95431 0 20 0V0C31.0457 0 40 8.95431 40 20V20C40 31.0457 31.0457 40 20 40V40C8.95431 40 0 31.0457 0 20V20Z" fill="white"/>
<path d="M23 16.0016C22.7348 16.0016 22.4804 16.1069 22.2929 16.2944C22.1054 16.4819 22 16.7361 22 17.0012C22 17.2663 22.1054 17.5206 22.2929 17.708C22.4804 17.8955 22.7348 18.0008 23 18.0008C23.2652 18.0008 23.5196 17.8955 23.7071 17.708C23.8946 17.5206 24 17.2663 24 17.0012C24 16.7361 23.8946 16.4819 23.7071 16.2944C23.5196 16.1069 23.2652 16.0016 23 16.0016ZM20.17 16.0016C20.3766 15.4163 20.7597 14.9095 21.2666 14.551C21.7735 14.1925 22.3791 14 23 14C23.6209 14 24.2265 14.1925 24.7334 14.551C25.2403 14.9095 25.6234 15.4163 25.83 16.0016H27C27.2652 16.0016 27.5196 16.1069 27.7071 16.2944C27.8946 16.4819 28 16.7361 28 17.0012C28 17.2663 27.8946 17.5206 27.7071 17.708C27.5196 17.8955 27.2652 18.0008 27 18.0008H25.83C25.6234 18.5861 25.2403 19.0929 24.7334 19.4514C24.2265 19.8099 23.6209 20.0025 23 20.0025C22.3791 20.0025 21.7735 19.8099 21.2666 19.4514C20.7597 19.0929 20.3766 18.5861 20.17 18.0008H13C12.7348 18.0008 12.4804 17.8955 12.2929 17.708C12.1054 17.5206 12 17.2663 12 17.0012C12 16.7361 12.1054 16.4819 12.2929 16.2944C12.4804 16.1069 12.7348 16.0016 13 16.0016H20.17ZM17 22.9992C16.7348 22.9992 16.4804 23.1045 16.2929 23.292C16.1054 23.4794 16 23.7337 16 23.9988C16 24.2639 16.1054 24.5181 16.2929 24.7056C16.4804 24.8931 16.7348 24.9984 17 24.9984C17.2652 24.9984 17.5196 24.8931 17.7071 24.7056C17.8946 24.5181 18 24.2639 18 23.9988C18 23.7337 17.8946 23.4794 17.7071 23.292C17.5196 23.1045 17.2652 22.9992 17 22.9992ZM14.17 22.9992C14.3766 22.4139 14.7597 21.9071 15.2666 21.5486C15.7735 21.1901 16.3791 20.9976 17 20.9976C17.6209 20.9976 18.2265 21.1901 18.7334 21.5486C19.2403 21.9071 19.6234 22.4139 19.83 22.9992H27C27.2652 22.9992 27.5196 23.1045 27.7071 23.292C27.8946 23.4794 28 23.7337 28 23.9988C28 24.2639 27.8946 24.5181 27.7071 24.7056C27.5196 24.8931 27.2652 24.9984 27 24.9984H19.83C19.6234 25.5837 19.2403 26.0905 18.7334 26.449C18.2265 26.8075 17.6209 27 17 27C16.3791 27 15.7735 26.8075 15.2666 26.449C14.7597 26.0905 14.3766 25.5837 14.17 24.9984H13C12.7348 24.9984 12.4804 24.8931 12.2929 24.7056C12.1054 24.5181 12 24.2639 12 23.9988C12 23.7337 12.1054 23.4794 12.2929 23.292C12.4804 23.1045 12.7348 22.9992 13 22.9992H14.17Z" fill="#575665"/>
</svg>
