<svg width="234" height="166" viewBox="0 0 234 166" fill="none" xmlns="http://www.w3.org/2000/svg">
    <g filter="url(#filter0_i_3_4)">
        <rect y="30" width="234" height="136" rx="10" fill="#E3E3E3"/>
    </g>
    <rect opacity="0.5" x="17" y="82" width="200" height="32" rx="6" fill="#BDBDBD"/>
    <rect opacity="0.5" x="17" y="122" width="200" height="32" rx="6" fill="#BDBDBD"/>
    <rect x="27" y="134" width="8" height="8" rx="4" fill="white"/>
    <rect x="39" y="134" width="8" height="8" rx="4" fill="white"/>
    <rect x="51" y="134" width="8" height="8" rx="4" fill="white"/>
    <rect x="63" y="134" width="8" height="8" rx="4" fill="white"/>
    <rect x="75" y="134" width="8" height="8" rx="4" fill="white"/>
    <rect x="87" y="134" width="8" height="8" rx="4" fill="white"/>
    <path d="M117.121 135.879L112.879 140.121" stroke="#FF0000" stroke-width="2" stroke-linecap="round"/>
    <path d="M112.879 135.879L117.121 140.121" stroke="#FF0000" stroke-width="2" stroke-linecap="round"/>
    <path d="M105.121 135.879L100.879 140.121" stroke="#FF0000" stroke-width="2" stroke-linecap="round"/>
    <path d="M100.879 135.879L105.121 140.121" stroke="#FF0000" stroke-width="2" stroke-linecap="round"/>
    <rect x="27" y="95" width="114" height="6" rx="3" fill="white"/>
    <circle cx="116.5" cy="35.5" r="35" fill="white" stroke="#9AA1AB"/>
    <path d="M124 25.75V23.875C124 21.8859 123.21 19.9782 121.803 18.5717C120.397 17.1652 118.489 16.375 116.5 16.375C114.511 16.375 112.603 17.1652 111.197 18.5717C109.79 19.9782 109 21.8859 109 23.875V25.75" stroke="#575665" stroke-width="2" stroke-linecap="round"/>
    <path d="M121.125 40.375V40.3753C121.125 41.3321 120.829 42.2655 120.277 43.0469C119.724 43.8284 118.943 44.4193 118.041 44.7385C117.834 44.812 117.257 44.891 116.538 44.8962C115.822 44.9014 115.22 44.8309 114.958 44.7383C114.158 44.4559 113.451 43.959 112.914 43.3019C112.378 42.6448 112.032 41.8529 111.915 41.0126C111.798 40.1724 111.915 39.3162 112.252 38.5376C112.589 37.7591 113.133 37.0881 113.826 36.5982C114.518 36.1082 115.332 35.8181 116.179 35.7595C117.025 35.7009 117.871 35.8761 118.624 36.2659C119.378 36.6558 120.01 37.2453 120.451 37.97C120.892 38.6947 121.125 39.5267 121.125 40.375ZM121.91 44.2012C122.701 43.0821 123.125 41.7453 123.125 40.3749V40.3747C123.125 39.1597 122.791 37.9682 122.159 36.9303C121.528 35.8924 120.623 35.048 119.544 34.4897C118.464 33.9313 117.253 33.6803 116.04 33.7642C114.828 33.8482 113.663 34.2637 112.671 34.9655C111.679 35.6672 110.899 36.6282 110.416 37.7433C109.934 38.8584 109.767 40.0847 109.934 41.2881C110.102 42.4916 110.597 43.6259 111.365 44.567C112.134 45.508 113.146 46.2197 114.292 46.6242C114.902 46.8394 115.8 46.9016 116.553 46.8961C117.304 46.8907 118.166 46.8158 118.709 46.624C120.001 46.1668 121.119 45.3204 121.91 44.2012ZM101.98 28.4806L101.981 28.4798C102.587 27.8729 103.415 27.5132 104.836 27.3221C106.286 27.1271 108.195 27.125 110.875 27.125H122.125C124.805 27.125 126.714 27.1271 128.164 27.3221C129.585 27.5132 130.413 27.8729 131.019 28.4798L131.02 28.4806C131.627 29.0869 131.987 29.9152 132.178 31.3362C132.373 32.786 132.375 34.6955 132.375 37.375V39.25C132.375 42.8136 132.373 45.3859 132.109 47.3461C131.849 49.2775 131.352 50.4641 130.471 51.3451L130.47 51.3457C129.589 52.2274 128.403 52.7245 126.471 52.9842C124.511 53.2479 121.939 53.25 118.375 53.25H114.625C111.061 53.25 108.489 53.2479 106.529 52.9842C104.597 52.7245 103.411 52.2274 102.53 51.3457L102.529 51.3451C101.648 50.4641 101.151 49.2775 100.891 47.3461C100.627 45.3859 100.625 42.8136 100.625 39.25V37.375C100.625 34.6955 100.627 32.786 100.822 31.3362C101.013 29.9152 101.373 29.0869 101.98 28.4806Z" stroke="#575665" stroke-width="2"/>
    <defs>
        <filter id="filter0_i_3_4" x="0" y="30" width="234" height="136" filterUnits="userSpaceOnUse" color-interpolation-filters="sRGB">
            <feFlood flood-opacity="0" result="BackgroundImageFix"/>
            <feBlend mode="normal" in="SourceGraphic" in2="BackgroundImageFix" result="shape"/>
            <feColorMatrix in="SourceAlpha" type="matrix" values="0 0 0 0 0 0 0 0 0 0 0 0 0 0 0 0 0 0 127 0" result="hardAlpha"/>
            <feOffset/>
            <feGaussianBlur stdDeviation="7"/>
            <feComposite in2="hardAlpha" operator="arithmetic" k2="-1" k3="1"/>
            <feColorMatrix type="matrix" values="0 0 0 0 0.874495 0 0 0 0 0.874495 0 0 0 0 0.874495 0 0 0 1 0"/>
            <feBlend mode="normal" in2="shape" result="effect1_innerShadow_3_4"/>
        </filter>
    </defs>
</svg>
