<svg width="34" height="33" viewBox="0 0 34 33" fill="none" xmlns="http://www.w3.org/2000/svg">
    <circle cx="17" cy="16.3252" r="16" fill="white" stroke="#9AA1AB" stroke-width="0.5"/>
    <path d="M11 13.9449L11.6 13.9449V13.9449H11ZM11 20.5318L10.4 20.5318V20.5318H11ZM22.2499 20.5318L21.6499 20.5318V20.5318H22.2499ZM22.25 13.9449L22.85 13.9449V13.9449H22.25ZM17.7479 17.5822C17.7479 18.2108 17.2569 18.6911 16.6869 18.6911V19.8911C17.9516 19.8911 18.9479 18.8412 18.9479 17.5822H17.7479ZM16.6869 18.6911C16.1169 18.6911 15.6259 18.2108 15.6259 17.5822H14.4259C14.4259 18.8412 15.4222 19.8911 16.6869 19.8911V18.6911ZM15.6259 17.5822C15.6259 16.9535 16.1169 16.4733 16.6869 16.4733V15.2733C15.4222 15.2733 14.4259 16.3232 14.4259 17.5822H15.6259ZM16.6869 16.4733C17.2569 16.4733 17.7479 16.9535 17.7479 17.5822H18.9479C18.9479 16.3232 17.9516 15.2733 16.6869 15.2733V16.4733ZM10.4 13.9449L10.4 20.5318L11.6 20.5318L11.6 13.9449L10.4 13.9449ZM11.8305 21.9862H21.4194V20.7862H11.8305V21.9862ZM22.8499 20.5318L22.85 13.9449L21.65 13.9449L21.6499 20.5318L22.8499 20.5318ZM12.8948 12.4904H11.8305V13.6904H12.8948V12.4904ZM15.026 11.6H18.238V10.4H15.026V11.6ZM21.4195 12.4904H20.4792V13.6904H21.4195V12.4904ZM20.4792 12.4904C20.5734 12.4904 20.5625 12.5331 20.4237 12.4123C20.3104 12.3136 20.1787 12.1645 20.0422 11.9854C19.7716 11.6305 19.5424 11.2394 19.4685 11.1126L18.4319 11.7171C18.508 11.8476 18.7688 12.2944 19.0879 12.7129C19.2462 12.9206 19.4344 13.1421 19.6358 13.3174C19.8116 13.4704 20.1104 13.6904 20.4792 13.6904V12.4904ZM18.238 11.6C18.3108 11.6 18.3865 11.6392 18.4319 11.7171L19.4685 11.1126C19.2137 10.6757 18.7487 10.4 18.238 10.4V11.6ZM14.8322 11.7171C14.8776 11.6393 14.9533 11.6 15.026 11.6V10.4C14.5153 10.4 14.0504 10.6757 13.7956 11.1126L14.8322 11.7171ZM12.8948 13.6904C13.0993 13.6904 13.2698 13.6165 13.388 13.5478C13.5103 13.4768 13.6188 13.3867 13.7107 13.2991C13.8943 13.1241 14.0681 12.9038 14.2151 12.698C14.5114 12.2835 14.7626 11.8364 14.8322 11.7171L13.7956 11.1126C13.7151 11.2506 13.4953 11.6414 13.2388 12.0003C13.1095 12.1812 12.9865 12.3316 12.8827 12.4305C12.8309 12.4799 12.7982 12.5026 12.7852 12.5102C12.7682 12.52 12.8096 12.4904 12.8948 12.4904V13.6904ZM22.85 13.9449C22.85 13.1578 22.2255 12.4904 21.4195 12.4904V13.6904C21.5308 13.6904 21.65 13.7881 21.65 13.9449H22.85ZM21.4194 21.9862C22.2254 21.9862 22.8499 21.3188 22.8499 20.5318H21.6499C21.6499 20.6885 21.5307 20.7862 21.4194 20.7862V21.9862ZM10.4 20.5318C10.4 21.3188 11.0245 21.9862 11.8305 21.9862V20.7862C11.7192 20.7862 11.6 20.6885 11.6 20.5318H10.4ZM11.6 13.9449C11.6 13.7881 11.7192 13.6904 11.8305 13.6904V12.4904C11.0245 12.4904 10.4 13.1578 10.4 13.9449H11.6ZM16.687 14.3278C17.2637 14.3278 17.7023 13.8517 17.7023 13.3006H16.5023C16.5023 13.2214 16.569 13.1278 16.687 13.1278V14.3278ZM15.6718 13.3006C15.6718 13.8517 16.1103 14.3278 16.687 14.3278V13.1278C16.805 13.1278 16.8718 13.2214 16.8718 13.3006H15.6718ZM16.687 12.2734C16.1103 12.2734 15.6718 12.7495 15.6718 13.3006H16.8718C16.8718 13.3798 16.805 13.4734 16.687 13.4734V12.2734ZM16.687 13.4734C16.569 13.4734 16.5023 13.3798 16.5023 13.3006H17.7023C17.7023 12.7495 17.2637 12.2734 16.687 12.2734V13.4734Z" fill="url(#paint0_linear_411_1836)"/>
    <defs>
        <linearGradient id="paint0_linear_411_1836" x1="11" y1="16.2911" x2="22.1352" y2="16.2911" gradientUnits="userSpaceOnUse">
            <stop stop-color="#003F79"/>
            <stop offset="0.9999" stop-color="#00ACDB"/>
        </linearGradient>
    </defs>
</svg>
