<svg width="375" height="812" viewBox="0 0 375 812" fill="none" xmlns="http://www.w3.org/2000/svg">
<g clip-path="url(#clip0_9_339)">
<rect width="375" height="812" fill="white"/>
<mask id="mask0_9_339" style="mask-type:alpha" maskUnits="userSpaceOnUse" x="0" y="170" width="375" height="678">
<rect y="170" width="375" height="678" fill="#D9D9D9"/>
</mask>
<g mask="url(#mask0_9_339)">
<path d="M180.976 584L139 609.06L182.855 625.976L229.217 599.036L180.976 584Z" fill="#E7FCFF"/>
<path d="M182.855 763.181V625.349" stroke="url(#paint0_linear_9_339)"/>
<path d="M139.627 629.108L182.855 647.277L229.217 619.711" stroke="url(#paint1_linear_9_339)" stroke-width="0.2"/>
<path d="M139.627 649.783L182.855 667.952L229.217 640.386" stroke="url(#paint2_linear_9_339)" stroke-width="0.2"/>
<path d="M139.627 670.458L182.855 688.627L229.217 661.06" stroke="url(#paint3_linear_9_339)" stroke-width="0.2"/>
<path d="M139.627 691.133L182.855 709.301L229.217 681.735" stroke="url(#paint4_linear_9_339)" stroke-width="0.2"/>
<path d="M139.627 711.807L182.855 729.976L229.217 702.41" stroke="url(#paint5_linear_9_339)" stroke-width="0.2"/>
<path d="M139.627 732.482L182.855 750.651L229.217 723.084" stroke="url(#paint6_linear_9_339)" stroke-width="0.2"/>
<path d="M139.627 753.157L182.855 771.325L229.217 743.759" stroke="url(#paint7_linear_9_339)" stroke-width="0.2"/>
<path d="M139.627 773.831L182.855 792L229.217 764.434" stroke="url(#paint8_linear_9_339)" stroke-width="0.2"/>
<g opacity="0.7" filter="url(#filter0_f_9_339)">
<path d="M86.056 231L73 234.786L87.076 235.327L98.5 234.786L86.056 231Z" fill="#E1FBFF"/>
<path d="M73 557.059L73 234.786L87.076 235.327L87.076 553.273L73 557.059Z" fill="#CCF1F7"/>
<path d="M98.5 234.786L87.076 235.327L87.28 543.283L98.5 566V234.786Z" fill="#DAFAFF"/>
</g>
<g opacity="0.7" filter="url(#filter1_f_9_339)">
<path d="M128.128 276.588L112 281.265L129.388 281.934L143.5 281.265L128.128 276.588Z" fill="#E1FBFF"/>
<path d="M112 679.367L112 281.265L129.388 281.933L129.388 674.69L112 679.367Z" fill="#CCF1F7"/>
<path d="M143.5 281.265L129.388 281.933L129.64 662.349L143.5 690.411V281.265Z" fill="#DAFAFF"/>
</g>
<g opacity="0.7" filter="url(#filter2_f_9_339)">
<path d="M186.128 344L170 348.677L187.388 349.345L201.5 348.677L186.128 344Z" fill="#E1FBFF"/>
<path d="M170 746.779L170 348.677L187.388 349.345L187.388 742.102L170 746.779Z" fill="#CCF1F7"/>
<path d="M201.5 348.677L187.388 349.345L187.64 729.761L201.5 757.823V348.677Z" fill="#DAFAFF"/>
</g>
<g opacity="0.7" filter="url(#filter3_f_9_339)">
<path d="M240.128 307L224 311.677L241.388 312.345L255.5 311.677L240.128 307Z" fill="#E1FBFF"/>
<path d="M224 709.779L224 311.677L241.388 312.345L241.388 705.102L224 709.779Z" fill="#CCF1F7"/>
<path d="M255.5 311.677L241.388 312.345L241.64 692.761L255.5 720.823V311.677Z" fill="#DAFAFF"/>
</g>
<g opacity="0.7" filter="url(#filter4_f_9_339)">
<path d="M309.128 342L293 346.677L310.388 347.345L324.5 346.677L309.128 342Z" fill="#E1FBFF"/>
<path d="M293 744.779L293 346.677L310.388 347.345L310.388 740.102L293 744.779Z" fill="#CCF1F7"/>
<path d="M324.5 346.677L310.388 347.345L310.64 727.761L324.5 755.823V346.677Z" fill="#DAFAFF"/>
</g>
<g opacity="0.7" filter="url(#filter5_f_9_339)">
<path d="M38.76 271.92L17 274.3L40.46 274.64L59.5 274.3L38.76 271.92Z" fill="#E1FBFF"/>
<path d="M17 476.88L17 274.3L40.46 274.64L40.46 474.5L17 476.88Z" fill="#CCF1F7"/>
<path d="M59.5 274.3L40.46 274.64L40.8 468.22L59.5 482.5V274.3Z" fill="#DAFAFF"/>
</g>
<path d="M46 323L14 326.5L48.5 327L76.5 326.5L46 323Z" fill="#E1FBFF" stroke="#9AA1AB" stroke-width="0.4" stroke-dasharray="2 2"/>
<path d="M14 425V326.5L48.5 327V421.5L14 425Z" fill="#CCF1F7" stroke="#9AA1AB" stroke-width="0.4" stroke-dasharray="2 2"/>
<path d="M76.5 326.5L48.5 327L49 551.5L76.5 572.5V326.5Z" fill="#DAFAFF" stroke="#9AA1AB" stroke-width="0.4" stroke-dasharray="2 2"/>
<path d="M275 321L260 324L273.5 325L291 324.5L275 321Z" fill="#E1FBFF" stroke="#9AA1AB" stroke-width="0.4" stroke-dasharray="2 2"/>
<path d="M272 439.5H258.5L260 324L273 325L272 439.5Z" fill="#CCF1F7" stroke="#9AA1AB" stroke-width="0.4" stroke-dasharray="2 2"/>
<path d="M291 324.5L273 325L272 435.5H291V324.5Z" fill="#DAFAFF" stroke="#9AA1AB" stroke-width="0.4" stroke-dasharray="2 2"/>
<path d="M215.5 349L199 351.5L217 352.5L231 351.5L215.5 349Z" fill="#E1FBFF" stroke="#9AA1AB" stroke-width="0.4" stroke-dasharray="2 2"/>
<path d="M199 491.5V351.5L217 352.5L218 487L199 491.5Z" fill="#CCF1F7" stroke="#9AA1AB" stroke-width="0.4" stroke-dasharray="2 2"/>
<path d="M231 351.5L217 352.5V462H231V351.5Z" fill="#DAFAFF" stroke="#9AA1AB" stroke-width="0.4" stroke-dasharray="2 2"/>
<path d="M352.5 344L339 346.5L352 349L367 346.5L352.5 344Z" fill="#E1FBFF" stroke="#9AA1AB" stroke-width="0.4" stroke-dasharray="2 2"/>
<path d="M338 437L339 346.5L352 349L351.5 422.5L338 437Z" fill="#CCF1F7" stroke="#9AA1AB" stroke-width="0.4" stroke-dasharray="2 2"/>
<path d="M367 346.5L352 349L351.5 422.5L367 428V346.5Z" fill="#DAFAFF" stroke="#9AA1AB" stroke-width="0.4" stroke-dasharray="2 2"/>
<path d="M310.5 377.5L279.5 382.5H318.5L345.5 379L310.5 377.5Z" fill="#E1FBFF" stroke="#9AA1AB" stroke-width="0.4" stroke-dasharray="2 2"/>
<path d="M279.5 509V382.5H318.5V509H279.5Z" fill="#CCF1F7" stroke="#9AA1AB" stroke-width="0.4" stroke-dasharray="2 2"/>
<path d="M345.5 379L318.5 382.5V509.5L345.5 512V379Z" fill="#DAFAFF" stroke="#9AA1AB" stroke-width="0.4" stroke-dasharray="2 2"/>
<path d="M155 382.5L120 386L156 387.5L184 386L155 382.5Z" fill="#E1FBFF" stroke="#9AA1AB" stroke-width="0.4" stroke-dasharray="2 2"/>
<path d="M120 483.5L120.5 386L156 387.5V479L120 483.5Z" fill="#CCF1F7" stroke="#9AA1AB" stroke-width="0.4" stroke-dasharray="2 2"/>
<path d="M184 386L156 387.5V479.5L184 485.5V386Z" fill="#DAFAFF" stroke="#9AA1AB" stroke-width="0.4" stroke-dasharray="2 2"/>
<path d="M190 413.5L173.5 415L190 416.5L206 415L190 413.5Z" fill="#E1FBFF" stroke="#9AA1AB" stroke-width="0.4" stroke-dasharray="2 2"/>
<path d="M173.5 479.5V415L190 416.5L190.5 481.5L173.5 479.5Z" fill="#CCF1F7" stroke="#9AA1AB" stroke-width="0.4" stroke-dasharray="2 2"/>
<path d="M206 415L190 416.5L190.5 482L206 485.5V415Z" fill="#DAFAFF" stroke="#9AA1AB" stroke-width="0.4" stroke-dasharray="2 2"/>
<path d="M364.5 421L338 423.5L371.5 426L382.5 422L364.5 421Z" fill="#E1FBFF" stroke="#9AA1AB" stroke-width="0.4" stroke-dasharray="2 2"/>
<path d="M338 506V423.5L371.5 426L372 508L338 506Z" fill="#CCF1F7" stroke="#9AA1AB" stroke-width="0.4" stroke-dasharray="2 2"/>
<path d="M377.5 423.5L371.5 426V510.5L377.5 509.5V423.5Z" fill="#DAFAFF" stroke="#9AA1AB" stroke-width="0.4" stroke-dasharray="2 2"/>
<path d="M61 422L0 416V422L24 425L61 422Z" fill="#E1FBFF" stroke="#9AA1AB" stroke-width="0.4" stroke-dasharray="2 2"/>
<path d="M0 590.5V422L24 425L24.5 600.5L0 590.5Z" fill="#CCF1F7" stroke="#9AA1AB" stroke-width="0.4" stroke-dasharray="2 2"/>
<path d="M61 422L24 425L24.5 600.5L61 617V422Z" fill="#DAFAFF" stroke="#9AA1AB" stroke-width="0.4" stroke-dasharray="2 2"/>
<path d="M9.5 595V459H0V590L9.5 595Z" fill="#BDF6FF"/>
<path d="M9.5 459L0 457V459.5L9.5 459Z" fill="#DBFAFF"/>
<path d="M242.5 428L203 431L250 434.5L288.5 431L242.5 428Z" fill="#E1FBFF" stroke="#9AA1AB" stroke-width="0.4" stroke-dasharray="2 2"/>
<path d="M203 494V431L250.5 434.5V566.5L203 578V494Z" fill="#CCF1F7" stroke="#9AA1AB" stroke-width="0.4" stroke-dasharray="2 2"/>
<path d="M288.5 431L250.5 434.5V567L288.5 561V431Z" fill="#DAFAFF" stroke="#9AA1AB" stroke-width="0.4" stroke-dasharray="2 2"/>
<path d="M108.5 438.5L85 442L105.5 444.5L134 442L108.5 438.5Z" fill="#E1FBFF" stroke="#9AA1AB" stroke-width="0.4" stroke-dasharray="2 2"/>
<path d="M85 548V442L106 444.5V549.5L85 548Z" fill="#CCF1F7" stroke="#9AA1AB" stroke-width="0.4" stroke-dasharray="2 2"/>
<path d="M134 442L106 444.5V485H134V442Z" fill="#DAFAFF" stroke="#9AA1AB" stroke-width="0.4" stroke-dasharray="2 2"/>
<path d="M313 495L270.5 503.5L359.5 518.5L393 507.5L313 495Z" fill="#E1FBFF" stroke="#9AA1AB" stroke-width="0.4" stroke-dasharray="2 2"/>
<path d="M270.5 559.5V503.5L359.5 518.5L360 571.5L270.5 559.5Z" fill="#CCF1F7" stroke="#9AA1AB" stroke-width="0.4" stroke-dasharray="2 2"/>
<path d="M387 509.5L359.5 518.5L360 572L387 576V509.5Z" fill="#DAFAFF" stroke="#9AA1AB" stroke-width="0.4" stroke-dasharray="2 2"/>
<path d="M153 475L97.5 482L188.5 498L243 489L153 475Z" fill="#E1FBFF" stroke="#9AA1AB" stroke-width="0.4" stroke-dasharray="2 2"/>
<path d="M188.5 498L97.5 482V850L189 900L188.5 498Z" fill="#CCF1F7" stroke="#9AA1AB" stroke-width="0.4" stroke-dasharray="2 2"/>
<path d="M243 489L188.5 498V788.5L243 781.5V489Z" fill="#DAFAFF" stroke="#9AA1AB" stroke-width="0.4" stroke-dasharray="2 2"/>
<path d="M287.5 547.5L199.5 570.5L306 598.5L389 570.5L287.5 547.5Z" fill="#E1FBFF" stroke="#9AA1AB" stroke-width="0.4" stroke-dasharray="2 2"/>
<path d="M199.5 857.5V570.5L306 598.5L306.5 882.5L199.5 857.5Z" fill="#CCF1F7" stroke="#9AA1AB" stroke-width="0.4" stroke-dasharray="2 2"/>
<path d="M387 571.163L306 598.5L306.5 886L387 859.5V571.163Z" fill="#DAFAFF" stroke="#9AA1AB" stroke-width="0.4" stroke-dasharray="2 2"/>
<path d="M41.5 858.5V554L105 573.5V858.5H41.5Z" fill="#CCF1F7" stroke="#9AA1AB" stroke-width="0.4" stroke-dasharray="2 2"/>
<path d="M91.5 543L41.5 554L105 573.5L155.5 562L91.5 543Z" fill="#E1FBFF" stroke="#9AA1AB" stroke-width="0.4" stroke-dasharray="2 2"/>
<path d="M155.5 562L105 573.5V864.5L156 864L155.5 562Z" fill="#DAFAFF" stroke="#9AA1AB" stroke-width="0.4" stroke-dasharray="2 2"/>
<path d="M170 913V662L233.5 681.5V913H170Z" fill="#CCF1F7" stroke="#9AA1AB" stroke-width="0.4" stroke-dasharray="2 2"/>
<path d="M220 651L170 662L233.5 681.5L284 670L220 651Z" fill="#E1FBFF" stroke="#9AA1AB" stroke-width="0.4" stroke-dasharray="2 2"/>
<path d="M284 670L233.5 681.5V923L284.5 922.5L284 670Z" fill="#DAFAFF" stroke="#9AA1AB" stroke-width="0.4" stroke-dasharray="2 2"/>
<path d="M24.5 644C11.6667 638.333 -14.4 626.1 -16 626.5L-14.5 583.5L87 625V748H26L24.5 644Z" fill="#E1FBFF" stroke="#9AA1AB" stroke-width="0.4" stroke-dasharray="2 2"/>
<path d="M87 625L24 644L26.5 860.5H86.5L87 625Z" fill="#DAFAFF" stroke="#9AA1AB" stroke-width="0.4" stroke-dasharray="2 2"/>
<path d="M24.5 643.5L-14 627.5V857.5H26.5L24.5 643.5Z" fill="#CCF1F7" stroke="#9AA1AB" stroke-width="0.4" stroke-dasharray="2 2"/>
</g>
<circle cx="174" cy="454" r="20.5" fill="white" stroke="#00ACDB" stroke-width="3"/>
<path d="M181.333 452.167C181.333 451.924 181.237 451.69 181.065 451.518C180.893 451.347 180.66 451.25 180.417 451.25C180.174 451.25 179.94 451.347 179.768 451.518C179.597 451.69 179.5 451.924 179.5 452.167H181.333ZM168.5 452.167C168.5 451.924 168.403 451.69 168.232 451.518C168.06 451.347 167.826 451.25 167.583 451.25C167.34 451.25 167.107 451.347 166.935 451.518C166.763 451.69 166.667 451.924 166.667 452.167H168.5ZM181.602 454.648C181.775 454.815 182.006 454.907 182.247 454.905C182.487 454.903 182.717 454.807 182.887 454.637C183.057 454.467 183.153 454.237 183.155 453.997C183.157 453.756 183.065 453.525 182.898 453.352L181.602 454.648ZM174 445.75L174.648 445.102C174.476 444.93 174.243 444.834 174 444.834C173.757 444.834 173.524 444.93 173.352 445.102L174 445.75ZM165.102 453.352C165.014 453.436 164.945 453.538 164.896 453.649C164.848 453.761 164.823 453.882 164.822 454.003C164.821 454.125 164.844 454.246 164.89 454.358C164.936 454.471 165.004 454.573 165.091 454.659C165.177 454.746 165.279 454.814 165.392 454.86C165.504 454.906 165.625 454.929 165.747 454.928C165.868 454.927 165.989 454.902 166.101 454.854C166.212 454.805 166.314 454.736 166.398 454.648L165.102 453.352ZM169.417 463.167H178.583V461.333H169.417V463.167ZM181.333 460.417V452.167H179.5V452.546V460.417H181.333ZM168.5 460.417V452.546V452.167H166.667V460.417H168.5ZM182.898 453.352L174.648 445.102L173.352 446.398L174 447.046L179.5 452.546L181.602 454.648L182.898 453.352ZM173.352 445.102L165.102 453.352L166.398 454.648L168.5 452.546L174 447.046L174.648 446.398L173.352 445.102ZM178.583 463.167C179.313 463.167 180.012 462.877 180.528 462.361C181.044 461.845 181.333 461.146 181.333 460.417H179.5C179.5 460.66 179.403 460.893 179.232 461.065C179.06 461.237 178.826 461.333 178.583 461.333V463.167ZM169.417 461.333C169.174 461.333 168.94 461.237 168.768 461.065C168.597 460.893 168.5 460.66 168.5 460.417H166.667C166.667 461.146 166.956 461.845 167.472 462.361C167.988 462.877 168.687 463.167 169.417 463.167V461.333Z" fill="#00ACDB"/>
<path d="M169.417 461.333H178.583C178.826 461.333 179.06 461.237 179.232 461.065C179.403 460.893 179.5 460.66 179.5 460.417V452.546L174 447.046L168.5 452.546V460.417C168.5 460.66 168.597 460.893 168.768 461.065C168.94 461.237 169.174 461.333 169.417 461.333Z" fill="#00ACDB"/>
<path d="M173.143 485.571C173.531 486.218 174.469 486.218 174.857 485.571L179.091 478.514C179.491 477.848 179.011 477 178.234 477H169.766C168.989 477 168.509 477.848 168.909 478.514L173.143 485.571Z" fill="#00ACDB"/>
<circle cx="328" cy="475" r="22" fill="url(#paint9_linear_9_339)"/>
<path fill-rule="evenodd" clip-rule="evenodd" d="M328.292 466C327.242 466 326.235 466.417 325.493 467.159C324.75 467.902 324.333 468.909 324.333 469.958C324.333 471.008 324.75 472.015 325.493 472.757C326.235 473.5 327.242 473.917 328.292 473.917C329.342 473.917 330.348 473.5 331.091 472.757C331.833 472.015 332.25 471.008 332.25 469.958C332.25 468.909 331.833 467.902 331.091 467.159C330.348 466.417 329.342 466 328.292 466ZM325.583 469.958C325.583 469.24 325.869 468.551 326.377 468.043C326.885 467.535 327.573 467.25 328.292 467.25C329.01 467.25 329.699 467.535 330.207 468.043C330.715 468.551 331 469.24 331 469.958C331 470.677 330.715 471.366 330.207 471.873C329.699 472.381 329.01 472.667 328.292 472.667C327.573 472.667 326.885 472.381 326.377 471.873C325.869 471.366 325.583 470.677 325.583 469.958ZM328.292 475.167C326.364 475.167 324.588 475.605 323.272 476.345C321.975 477.075 321 478.18 321 479.542V479.627C320.999 480.595 320.998 481.81 322.064 482.678C322.588 483.105 323.323 483.409 324.314 483.609C325.308 483.811 326.603 483.917 328.292 483.917C329.98 483.917 331.275 483.811 332.27 483.609C333.262 483.409 333.995 483.105 334.52 482.678C335.586 481.81 335.584 480.595 335.583 479.627V479.542C335.583 478.18 334.608 477.075 333.313 476.345C331.996 475.605 330.22 475.167 328.292 475.167ZM322.25 479.542C322.25 478.832 322.768 478.062 323.884 477.435C324.981 476.818 326.538 476.417 328.293 476.417C330.046 476.417 331.603 476.818 332.699 477.435C333.816 478.062 334.333 478.832 334.333 479.542C334.333 480.632 334.3 481.245 333.73 481.708C333.422 481.96 332.905 482.206 332.022 482.384C331.141 482.562 329.937 482.667 328.292 482.667C326.647 482.667 325.442 482.562 324.562 482.384C323.678 482.206 323.162 481.96 322.853 481.709C322.283 481.245 322.25 480.632 322.25 479.542Z" fill="white"/>
<path d="M325.583 469.958C325.583 469.24 325.869 468.551 326.377 468.043C326.885 467.535 327.573 467.25 328.292 467.25C329.01 467.25 329.699 467.535 330.207 468.043C330.715 468.551 331 469.24 331 469.958C331 470.677 330.715 471.366 330.207 471.873C329.699 472.381 329.01 472.667 328.292 472.667C327.573 472.667 326.885 472.381 326.377 471.873C325.869 471.366 325.583 470.677 325.583 469.958Z" fill="white"/>
<path d="M322.25 479.542C322.25 478.832 322.768 478.062 323.884 477.435C324.981 476.818 326.538 476.417 328.293 476.417C330.046 476.417 331.603 476.818 332.699 477.435C333.816 478.062 334.333 478.832 334.333 479.542C334.333 480.632 334.3 481.245 333.73 481.708C333.422 481.96 332.905 482.206 332.022 482.384C331.141 482.562 329.937 482.667 328.292 482.667C326.647 482.667 325.442 482.562 324.562 482.384C323.678 482.206 323.162 481.96 322.853 481.709C322.283 481.245 322.25 480.632 322.25 479.542Z" fill="white"/>
<path fill-rule="evenodd" clip-rule="evenodd" d="M328.292 466C327.242 466 326.235 466.417 325.493 467.159C324.75 467.902 324.333 468.909 324.333 469.958C324.333 471.008 324.75 472.015 325.493 472.757C326.235 473.5 327.242 473.917 328.292 473.917C329.342 473.917 330.348 473.5 331.091 472.757C331.833 472.015 332.25 471.008 332.25 469.958C332.25 468.909 331.833 467.902 331.091 467.159C330.348 466.417 329.342 466 328.292 466ZM325.583 469.958C325.583 469.24 325.869 468.551 326.377 468.043C326.885 467.535 327.573 467.25 328.292 467.25C329.01 467.25 329.699 467.535 330.207 468.043C330.715 468.551 331 469.24 331 469.958C331 470.677 330.715 471.366 330.207 471.873C329.699 472.381 329.01 472.667 328.292 472.667C327.573 472.667 326.885 472.381 326.377 471.873C325.869 471.366 325.583 470.677 325.583 469.958ZM328.292 475.167C326.364 475.167 324.588 475.605 323.272 476.345C321.975 477.075 321 478.18 321 479.542V479.627C320.999 480.595 320.998 481.81 322.064 482.678C322.588 483.105 323.323 483.409 324.314 483.609C325.308 483.811 326.603 483.917 328.292 483.917C329.98 483.917 331.275 483.811 332.27 483.609C333.262 483.409 333.995 483.105 334.52 482.678C335.586 481.81 335.584 480.595 335.583 479.627V479.542C335.583 478.18 334.608 477.075 333.313 476.345C331.996 475.605 330.22 475.167 328.292 475.167ZM322.25 479.542C322.25 478.832 322.768 478.062 323.884 477.435C324.981 476.818 326.538 476.417 328.293 476.417C330.046 476.417 331.603 476.818 332.699 477.435C333.816 478.062 334.333 478.832 334.333 479.542C334.333 480.632 334.3 481.245 333.73 481.708C333.422 481.96 332.905 482.206 332.022 482.384C331.141 482.562 329.937 482.667 328.292 482.667C326.647 482.667 325.442 482.562 324.562 482.384C323.678 482.206 323.162 481.96 322.853 481.709C322.283 481.245 322.25 480.632 322.25 479.542Z" stroke="white" stroke-width="0.3"/>
<path d="M325.583 469.958C325.583 469.24 325.869 468.551 326.377 468.043C326.885 467.535 327.573 467.25 328.292 467.25C329.01 467.25 329.699 467.535 330.207 468.043C330.715 468.551 331 469.24 331 469.958C331 470.677 330.715 471.366 330.207 471.873C329.699 472.381 329.01 472.667 328.292 472.667C327.573 472.667 326.885 472.381 326.377 471.873C325.869 471.366 325.583 470.677 325.583 469.958Z" stroke="white" stroke-width="0.3"/>
<path d="M322.25 479.542C322.25 478.832 322.768 478.062 323.884 477.435C324.981 476.818 326.538 476.417 328.293 476.417C330.046 476.417 331.603 476.818 332.699 477.435C333.816 478.062 334.333 478.832 334.333 479.542C334.333 480.632 334.3 481.245 333.73 481.708C333.422 481.96 332.905 482.206 332.022 482.384C331.141 482.562 329.937 482.667 328.292 482.667C326.647 482.667 325.442 482.562 324.562 482.384C323.678 482.206 323.162 481.96 322.853 481.709C322.283 481.245 322.25 480.632 322.25 479.542Z" stroke="white" stroke-width="0.3"/>
<path d="M327.143 506.571C327.531 507.218 328.469 507.218 328.857 506.571L333.091 499.514C333.491 498.848 333.011 498 332.234 498H323.766C322.989 498 322.509 498.848 322.909 499.514L327.143 506.571Z" fill="url(#paint10_linear_9_339)"/>
<circle cx="224" cy="636" r="22" fill="url(#paint11_linear_9_339)"/>
<path fill-rule="evenodd" clip-rule="evenodd" d="M224.292 627C223.242 627 222.235 627.417 221.493 628.159C220.75 628.902 220.333 629.909 220.333 630.958C220.333 632.008 220.75 633.015 221.493 633.757C222.235 634.5 223.242 634.917 224.292 634.917C225.342 634.917 226.348 634.5 227.091 633.757C227.833 633.015 228.25 632.008 228.25 630.958C228.25 629.909 227.833 628.902 227.091 628.159C226.348 627.417 225.342 627 224.292 627ZM221.583 630.958C221.583 630.24 221.869 629.551 222.377 629.043C222.885 628.535 223.573 628.25 224.292 628.25C225.01 628.25 225.699 628.535 226.207 629.043C226.715 629.551 227 630.24 227 630.958C227 631.677 226.715 632.366 226.207 632.873C225.699 633.381 225.01 633.667 224.292 633.667C223.573 633.667 222.885 633.381 222.377 632.873C221.869 632.366 221.583 631.677 221.583 630.958ZM224.292 636.167C222.364 636.167 220.588 636.605 219.272 637.345C217.975 638.075 217 639.18 217 640.542V640.627C216.999 641.595 216.998 642.81 218.064 643.678C218.588 644.105 219.323 644.409 220.314 644.609C221.308 644.811 222.603 644.917 224.292 644.917C225.98 644.917 227.275 644.811 228.27 644.609C229.262 644.409 229.995 644.105 230.52 643.678C231.586 642.81 231.584 641.595 231.583 640.627V640.542C231.583 639.18 230.608 638.075 229.313 637.345C227.996 636.605 226.22 636.167 224.292 636.167ZM218.25 640.542C218.25 639.832 218.768 639.062 219.884 638.435C220.981 637.818 222.538 637.417 224.293 637.417C226.046 637.417 227.603 637.818 228.699 638.435C229.816 639.062 230.333 639.832 230.333 640.542C230.333 641.632 230.3 642.245 229.73 642.708C229.422 642.96 228.905 643.206 228.022 643.384C227.141 643.562 225.937 643.667 224.292 643.667C222.647 643.667 221.442 643.562 220.562 643.384C219.678 643.206 219.162 642.96 218.853 642.709C218.283 642.245 218.25 641.632 218.25 640.542Z" fill="white"/>
<path d="M221.583 630.958C221.583 630.24 221.869 629.551 222.377 629.043C222.885 628.535 223.573 628.25 224.292 628.25C225.01 628.25 225.699 628.535 226.207 629.043C226.715 629.551 227 630.24 227 630.958C227 631.677 226.715 632.366 226.207 632.873C225.699 633.381 225.01 633.667 224.292 633.667C223.573 633.667 222.885 633.381 222.377 632.873C221.869 632.366 221.583 631.677 221.583 630.958Z" fill="white"/>
<path d="M218.25 640.542C218.25 639.832 218.768 639.062 219.884 638.435C220.981 637.818 222.538 637.417 224.293 637.417C226.046 637.417 227.603 637.818 228.699 638.435C229.816 639.062 230.333 639.832 230.333 640.542C230.333 641.632 230.3 642.245 229.73 642.708C229.422 642.96 228.905 643.206 228.022 643.384C227.141 643.562 225.937 643.667 224.292 643.667C222.647 643.667 221.442 643.562 220.562 643.384C219.678 643.206 219.162 642.96 218.853 642.709C218.283 642.245 218.25 641.632 218.25 640.542Z" fill="white"/>
<path fill-rule="evenodd" clip-rule="evenodd" d="M224.292 627C223.242 627 222.235 627.417 221.493 628.159C220.75 628.902 220.333 629.909 220.333 630.958C220.333 632.008 220.75 633.015 221.493 633.757C222.235 634.5 223.242 634.917 224.292 634.917C225.342 634.917 226.348 634.5 227.091 633.757C227.833 633.015 228.25 632.008 228.25 630.958C228.25 629.909 227.833 628.902 227.091 628.159C226.348 627.417 225.342 627 224.292 627ZM221.583 630.958C221.583 630.24 221.869 629.551 222.377 629.043C222.885 628.535 223.573 628.25 224.292 628.25C225.01 628.25 225.699 628.535 226.207 629.043C226.715 629.551 227 630.24 227 630.958C227 631.677 226.715 632.366 226.207 632.873C225.699 633.381 225.01 633.667 224.292 633.667C223.573 633.667 222.885 633.381 222.377 632.873C221.869 632.366 221.583 631.677 221.583 630.958ZM224.292 636.167C222.364 636.167 220.588 636.605 219.272 637.345C217.975 638.075 217 639.18 217 640.542V640.627C216.999 641.595 216.998 642.81 218.064 643.678C218.588 644.105 219.323 644.409 220.314 644.609C221.308 644.811 222.603 644.917 224.292 644.917C225.98 644.917 227.275 644.811 228.27 644.609C229.262 644.409 229.995 644.105 230.52 643.678C231.586 642.81 231.584 641.595 231.583 640.627V640.542C231.583 639.18 230.608 638.075 229.313 637.345C227.996 636.605 226.22 636.167 224.292 636.167ZM218.25 640.542C218.25 639.832 218.768 639.062 219.884 638.435C220.981 637.818 222.538 637.417 224.293 637.417C226.046 637.417 227.603 637.818 228.699 638.435C229.816 639.062 230.333 639.832 230.333 640.542C230.333 641.632 230.3 642.245 229.73 642.708C229.422 642.96 228.905 643.206 228.022 643.384C227.141 643.562 225.937 643.667 224.292 643.667C222.647 643.667 221.442 643.562 220.562 643.384C219.678 643.206 219.162 642.96 218.853 642.709C218.283 642.245 218.25 641.632 218.25 640.542Z" stroke="white" stroke-width="0.3"/>
<path d="M221.583 630.958C221.583 630.24 221.869 629.551 222.377 629.043C222.885 628.535 223.573 628.25 224.292 628.25C225.01 628.25 225.699 628.535 226.207 629.043C226.715 629.551 227 630.24 227 630.958C227 631.677 226.715 632.366 226.207 632.873C225.699 633.381 225.01 633.667 224.292 633.667C223.573 633.667 222.885 633.381 222.377 632.873C221.869 632.366 221.583 631.677 221.583 630.958Z" stroke="white" stroke-width="0.3"/>
<path d="M218.25 640.542C218.25 639.832 218.768 639.062 219.884 638.435C220.981 637.818 222.538 637.417 224.293 637.417C226.046 637.417 227.603 637.818 228.699 638.435C229.816 639.062 230.333 639.832 230.333 640.542C230.333 641.632 230.3 642.245 229.73 642.708C229.422 642.96 228.905 643.206 228.022 643.384C227.141 643.562 225.937 643.667 224.292 643.667C222.647 643.667 221.442 643.562 220.562 643.384C219.678 643.206 219.162 642.96 218.853 642.709C218.283 642.245 218.25 641.632 218.25 640.542Z" stroke="white" stroke-width="0.3"/>
<path d="M223.143 667.571C223.531 668.218 224.469 668.218 224.857 667.571L229.091 660.514C229.491 659.848 229.011 659 228.234 659H219.766C218.989 659 218.509 659.848 218.909 660.514L223.143 667.571Z" fill="url(#paint12_linear_9_339)"/>
<circle cx="21" cy="406" r="11" fill="url(#paint13_linear_9_339)"/>
<path fill-rule="evenodd" clip-rule="evenodd" d="M21.1459 401.5C20.6209 401.5 20.1175 401.709 19.7464 402.08C19.3752 402.451 19.1667 402.954 19.1667 403.479C19.1667 404.004 19.3752 404.507 19.7464 404.879C20.1175 405.25 20.6209 405.458 21.1459 405.458C21.6708 405.458 22.1742 405.25 22.5453 404.879C22.9165 404.507 23.125 404.004 23.125 403.479C23.125 402.954 22.9165 402.451 22.5453 402.08C22.1742 401.709 21.6708 401.5 21.1459 401.5ZM19.7917 403.479C19.7917 403.12 19.9344 402.776 20.1883 402.522C20.4423 402.268 20.7867 402.125 21.1459 402.125C21.505 402.125 21.8494 402.268 22.1034 402.522C22.3574 402.776 22.5 403.12 22.5 403.479C22.5 403.838 22.3574 404.183 22.1034 404.437C21.8494 404.691 21.505 404.833 21.1459 404.833C20.7867 404.833 20.4423 404.691 20.1883 404.437C19.9344 404.183 19.7917 403.838 19.7917 403.479ZM21.1459 406.083C20.1821 406.083 19.2938 406.302 18.6359 406.672C17.9875 407.037 17.5 407.59 17.5 408.271V408.313C17.4996 408.797 17.4992 409.405 18.0321 409.839C18.2942 410.052 18.6613 410.205 19.1571 410.305C19.6538 410.405 20.3017 410.458 21.1459 410.458C21.99 410.458 22.6375 410.405 23.135 410.305C23.6309 410.205 23.9975 410.052 24.26 409.839C24.7929 409.405 24.7921 408.797 24.7917 408.313V408.271C24.7917 407.59 24.3042 407.037 23.6563 406.672C22.9979 406.302 22.11 406.083 21.1459 406.083ZM18.125 408.271C18.125 407.916 18.3842 407.531 18.9421 407.217C19.4904 406.909 20.2688 406.708 21.1463 406.708C22.0229 406.708 22.8013 406.909 23.3496 407.217C23.9079 407.531 24.1667 407.916 24.1667 408.271C24.1667 408.816 24.15 409.122 23.865 409.354C23.7109 409.48 23.4525 409.603 23.0109 409.692C22.5704 409.781 21.9684 409.833 21.1459 409.833C20.3234 409.833 19.7209 409.781 19.2809 409.692C18.8392 409.603 18.5809 409.48 18.4267 409.355C18.1417 409.122 18.125 408.816 18.125 408.271Z" fill="white"/>
<path d="M19.7917 403.479C19.7917 403.12 19.9344 402.776 20.1883 402.522C20.4423 402.268 20.7867 402.125 21.1459 402.125C21.505 402.125 21.8494 402.268 22.1034 402.522C22.3574 402.776 22.5 403.12 22.5 403.479C22.5 403.838 22.3574 404.183 22.1034 404.437C21.8494 404.691 21.505 404.833 21.1459 404.833C20.7867 404.833 20.4423 404.691 20.1883 404.437C19.9344 404.183 19.7917 403.838 19.7917 403.479Z" fill="white"/>
<path d="M18.125 408.271C18.125 407.916 18.3842 407.531 18.9421 407.217C19.4904 406.909 20.2688 406.708 21.1463 406.708C22.0229 406.708 22.8013 406.909 23.3496 407.217C23.9079 407.531 24.1667 407.916 24.1667 408.271C24.1667 408.816 24.15 409.122 23.865 409.354C23.7109 409.48 23.4525 409.603 23.0109 409.692C22.5704 409.781 21.9684 409.833 21.1459 409.833C20.3234 409.833 19.7209 409.781 19.2809 409.692C18.8392 409.603 18.5809 409.48 18.4267 409.355C18.1417 409.122 18.125 408.816 18.125 408.271Z" fill="white"/>
<path fill-rule="evenodd" clip-rule="evenodd" d="M21.1459 401.5C20.6209 401.5 20.1175 401.709 19.7464 402.08C19.3752 402.451 19.1667 402.954 19.1667 403.479C19.1667 404.004 19.3752 404.507 19.7464 404.879C20.1175 405.25 20.6209 405.458 21.1459 405.458C21.6708 405.458 22.1742 405.25 22.5453 404.879C22.9165 404.507 23.125 404.004 23.125 403.479C23.125 402.954 22.9165 402.451 22.5453 402.08C22.1742 401.709 21.6708 401.5 21.1459 401.5ZM19.7917 403.479C19.7917 403.12 19.9344 402.776 20.1883 402.522C20.4423 402.268 20.7867 402.125 21.1459 402.125C21.505 402.125 21.8494 402.268 22.1034 402.522C22.3574 402.776 22.5 403.12 22.5 403.479C22.5 403.838 22.3574 404.183 22.1034 404.437C21.8494 404.691 21.505 404.833 21.1459 404.833C20.7867 404.833 20.4423 404.691 20.1883 404.437C19.9344 404.183 19.7917 403.838 19.7917 403.479ZM21.1459 406.083C20.1821 406.083 19.2938 406.302 18.6359 406.672C17.9875 407.037 17.5 407.59 17.5 408.271V408.313C17.4996 408.797 17.4992 409.405 18.0321 409.839C18.2942 410.052 18.6613 410.205 19.1571 410.305C19.6538 410.405 20.3017 410.458 21.1459 410.458C21.99 410.458 22.6375 410.405 23.135 410.305C23.6309 410.205 23.9975 410.052 24.26 409.839C24.7929 409.405 24.7921 408.797 24.7917 408.313V408.271C24.7917 407.59 24.3042 407.037 23.6563 406.672C22.9979 406.302 22.11 406.083 21.1459 406.083ZM18.125 408.271C18.125 407.916 18.3842 407.531 18.9421 407.217C19.4904 406.909 20.2688 406.708 21.1463 406.708C22.0229 406.708 22.8013 406.909 23.3496 407.217C23.9079 407.531 24.1667 407.916 24.1667 408.271C24.1667 408.816 24.15 409.122 23.865 409.354C23.7109 409.48 23.4525 409.603 23.0109 409.692C22.5704 409.781 21.9684 409.833 21.1459 409.833C20.3234 409.833 19.7209 409.781 19.2809 409.692C18.8392 409.603 18.5809 409.48 18.4267 409.355C18.1417 409.122 18.125 408.816 18.125 408.271Z" stroke="white" stroke-width="0.15"/>
<path d="M19.7917 403.479C19.7917 403.12 19.9344 402.776 20.1883 402.522C20.4423 402.268 20.7867 402.125 21.1459 402.125C21.505 402.125 21.8494 402.268 22.1034 402.522C22.3574 402.776 22.5 403.12 22.5 403.479C22.5 403.838 22.3574 404.183 22.1034 404.437C21.8494 404.691 21.505 404.833 21.1459 404.833C20.7867 404.833 20.4423 404.691 20.1883 404.437C19.9344 404.183 19.7917 403.838 19.7917 403.479Z" stroke="white" stroke-width="0.15"/>
<path d="M18.125 408.271C18.125 407.916 18.3842 407.531 18.9421 407.217C19.4904 406.909 20.2688 406.708 21.1463 406.708C22.0229 406.708 22.8013 406.909 23.3496 407.217C23.9079 407.531 24.1667 407.916 24.1667 408.271C24.1667 408.816 24.15 409.122 23.865 409.354C23.7109 409.48 23.4525 409.603 23.0109 409.692C22.5704 409.781 21.9684 409.833 21.1459 409.833C20.3234 409.833 19.7209 409.781 19.2809 409.692C18.8392 409.603 18.5809 409.48 18.4267 409.355C18.1417 409.122 18.125 408.816 18.125 408.271Z" stroke="white" stroke-width="0.15"/>
<path d="M20.5713 421.785C20.7655 422.109 21.2345 422.109 21.4287 421.785L23.5457 418.257C23.7456 417.924 23.5056 417.5 23.1169 417.5H18.8831C18.4944 417.5 18.2544 417.924 18.4543 418.257L20.5713 421.785Z" fill="url(#paint14_linear_9_339)"/>
<circle cx="155" cy="370" r="10.25" fill="white" stroke="#00ACDB" stroke-width="1.5"/>
<path d="M158.667 369.083C158.667 368.962 158.618 368.845 158.532 368.759C158.446 368.673 158.33 368.625 158.208 368.625C158.087 368.625 157.97 368.673 157.884 368.759C157.798 368.845 157.75 368.962 157.75 369.083H158.667ZM152.25 369.083C152.25 368.962 152.202 368.845 152.116 368.759C152.03 368.673 151.913 368.625 151.792 368.625C151.67 368.625 151.554 368.673 151.468 368.759C151.382 368.845 151.333 368.962 151.333 369.083H152.25ZM158.801 370.324C158.887 370.408 159.003 370.454 159.123 370.453C159.244 370.452 159.358 370.403 159.443 370.318C159.528 370.233 159.577 370.119 159.578 369.998C159.579 369.878 159.533 369.762 159.449 369.676L158.801 370.324ZM155 365.875L155.324 365.551C155.238 365.465 155.122 365.417 155 365.417C154.878 365.417 154.762 365.465 154.676 365.551L155 365.875ZM150.551 369.676C150.507 369.718 150.472 369.769 150.448 369.825C150.424 369.881 150.412 369.941 150.411 370.002C150.411 370.063 150.422 370.123 150.445 370.179C150.468 370.236 150.502 370.287 150.545 370.33C150.588 370.373 150.639 370.407 150.696 370.43C150.752 370.453 150.812 370.464 150.873 370.464C150.934 370.463 150.994 370.451 151.05 370.427C151.106 370.403 151.157 370.368 151.199 370.324L150.551 369.676ZM152.708 374.583H157.292V373.667H152.708V374.583ZM158.667 373.208V369.083H157.75V369.273V373.208H158.667ZM152.25 373.208V369.273V369.083H151.333V373.208H152.25ZM159.449 369.676L155.324 365.551L154.676 366.199L155 366.523L157.75 369.273L158.801 370.324L159.449 369.676ZM154.676 365.551L150.551 369.676L151.199 370.324L152.25 369.273L155 366.523L155.324 366.199L154.676 365.551ZM157.292 374.583C157.656 374.583 158.006 374.438 158.264 374.181C158.522 373.923 158.667 373.573 158.667 373.208H157.75C157.75 373.33 157.702 373.446 157.616 373.532C157.53 373.618 157.413 373.667 157.292 373.667V374.583ZM152.708 373.667C152.587 373.667 152.47 373.618 152.384 373.532C152.298 373.446 152.25 373.33 152.25 373.208H151.333C151.333 373.573 151.478 373.923 151.736 374.181C151.994 374.438 152.344 374.583 152.708 374.583V373.667Z" fill="#00ACDB"/>
<path d="M152.708 373.667H157.292C157.413 373.667 157.53 373.618 157.616 373.532C157.702 373.446 157.75 373.33 157.75 373.208V369.273L155 366.523L152.25 369.273V373.208C152.25 373.33 152.298 373.446 152.384 373.532C152.47 373.618 152.587 373.667 152.708 373.667Z" fill="#00ACDB"/>
<path d="M154.571 385.785C154.765 386.109 155.235 386.109 155.429 385.785L157.546 382.257C157.746 381.924 157.506 381.5 157.117 381.5H152.883C152.494 381.5 152.254 381.924 152.454 382.257L154.571 385.785Z" fill="#00ACDB"/>
<circle cx="274.5" cy="316.5" r="5" fill="white" stroke="#00ACDB"/>
<path d="M276.333 316.042C276.333 315.981 276.309 315.923 276.266 315.88C276.223 315.837 276.165 315.812 276.104 315.812C276.043 315.812 275.985 315.837 275.942 315.88C275.899 315.923 275.875 315.981 275.875 316.042H276.333ZM273.125 316.042C273.125 315.981 273.101 315.923 273.058 315.88C273.015 315.837 272.957 315.812 272.896 315.812C272.835 315.812 272.777 315.837 272.734 315.88C272.691 315.923 272.667 315.981 272.667 316.042H273.125ZM276.4 316.662C276.444 316.704 276.502 316.727 276.562 316.726C276.622 316.726 276.679 316.702 276.722 316.659C276.764 316.617 276.788 316.559 276.789 316.499C276.789 316.439 276.766 316.381 276.725 316.338L276.4 316.662ZM274.5 314.437L274.662 314.275C274.619 314.233 274.561 314.208 274.5 314.208C274.439 314.208 274.381 314.233 274.338 314.275L274.5 314.437ZM272.275 316.338C272.254 316.359 272.236 316.384 272.224 316.412C272.212 316.44 272.206 316.47 272.206 316.501C272.205 316.531 272.211 316.561 272.223 316.59C272.234 316.618 272.251 316.643 272.273 316.665C272.294 316.686 272.32 316.703 272.348 316.715C272.376 316.726 272.406 316.732 272.437 316.732C272.467 316.732 272.497 316.725 272.525 316.713C272.553 316.701 272.578 316.684 272.6 316.662L272.275 316.338ZM273.354 318.792H275.646V318.333H273.354V318.792ZM276.333 318.104V316.042H275.875V316.137V318.104H276.333ZM273.125 318.104V316.137V316.042H272.667V318.104H273.125ZM276.725 316.338L274.662 314.275L274.338 314.6L274.5 314.762L275.875 316.137L276.4 316.662L276.725 316.338ZM274.338 314.275L272.275 316.338L272.6 316.662L273.125 316.137L274.5 314.762L274.662 314.6L274.338 314.275ZM275.646 318.792C275.828 318.792 276.003 318.719 276.132 318.59C276.261 318.461 276.333 318.287 276.333 318.104H275.875C275.875 318.165 275.851 318.223 275.808 318.266C275.765 318.309 275.707 318.333 275.646 318.333V318.792ZM273.354 318.333C273.293 318.333 273.235 318.309 273.192 318.266C273.149 318.223 273.125 318.165 273.125 318.104H272.667C272.667 318.287 272.739 318.461 272.868 318.59C272.997 318.719 273.172 318.792 273.354 318.792V318.333Z" fill="#00ACDB"/>
<path d="M273.354 318.333H275.646C275.707 318.333 275.765 318.309 275.808 318.266C275.851 318.223 275.875 318.165 275.875 318.104V316.137L274.5 314.762L273.125 316.137V318.104C273.125 318.165 273.149 318.223 273.192 318.266C273.235 318.309 273.293 318.333 273.354 318.333Z" fill="#00ACDB"/>
<path d="M274.286 324.393C274.383 324.555 274.617 324.555 274.714 324.393L275.773 322.629C275.873 322.462 275.753 322.25 275.558 322.25H273.442C273.247 322.25 273.127 322.462 273.227 322.629L274.286 324.393Z" fill="#00ACDB"/>
<circle cx="100" cy="524" r="20.5" fill="white" stroke="#00ACDB" stroke-width="3"/>
<path d="M107.333 522.167C107.333 521.924 107.237 521.69 107.065 521.518C106.893 521.347 106.66 521.25 106.417 521.25C106.174 521.25 105.94 521.347 105.768 521.518C105.597 521.69 105.5 521.924 105.5 522.167H107.333ZM94.5 522.167C94.5 521.924 94.4034 521.69 94.2315 521.518C94.0596 521.347 93.8264 521.25 93.5833 521.25C93.3402 521.25 93.1071 521.347 92.9352 521.518C92.7632 521.69 92.6667 521.924 92.6667 522.167H94.5ZM107.602 524.648C107.775 524.815 108.006 524.907 108.247 524.905C108.487 524.903 108.717 524.807 108.887 524.637C109.057 524.467 109.153 524.237 109.155 523.997C109.157 523.756 109.065 523.525 108.898 523.352L107.602 524.648ZM100 515.75L100.648 515.102C100.476 514.93 100.243 514.834 100 514.834C99.7569 514.834 99.5238 514.93 99.3519 515.102L100 515.75ZM91.1019 523.352C91.0144 523.436 90.9445 523.538 90.8965 523.649C90.8484 523.761 90.8232 523.882 90.8221 524.003C90.821 524.125 90.8442 524.246 90.8903 524.358C90.9364 524.471 91.0045 524.573 91.0906 524.659C91.1766 524.746 91.279 524.814 91.3916 524.86C91.5043 524.906 91.625 524.929 91.7467 524.928C91.8684 524.927 91.9887 524.902 92.1005 524.854C92.2124 524.805 92.3135 524.736 92.3981 524.648L91.1019 523.352ZM95.4167 533.167H104.583V531.333H95.4167V533.167ZM107.333 530.417V522.167H105.5V522.546V530.417H107.333ZM94.5 530.417V522.546V522.167H92.6667V530.417H94.5ZM108.898 523.352L100.648 515.102L99.3519 516.398L100 517.046L105.5 522.546L107.602 524.648L108.898 523.352ZM99.3519 515.102L91.1019 523.352L92.3981 524.648L94.5 522.546L100 517.046L100.648 516.398L99.3519 515.102ZM104.583 533.167C105.313 533.167 106.012 532.877 106.528 532.361C107.044 531.845 107.333 531.146 107.333 530.417H105.5C105.5 530.66 105.403 530.893 105.232 531.065C105.06 531.237 104.826 531.333 104.583 531.333V533.167ZM95.4167 531.333C95.1735 531.333 94.9404 531.237 94.7685 531.065C94.5966 530.893 94.5 530.66 94.5 530.417H92.6667C92.6667 531.146 92.9564 531.845 93.4721 532.361C93.9878 532.877 94.6873 533.167 95.4167 533.167V531.333Z" fill="#00ACDB"/>
<path d="M95.4167 531.333H104.583C104.826 531.333 105.06 531.237 105.232 531.065C105.403 530.893 105.5 530.66 105.5 530.417V522.546L100 517.046L94.5 522.546V530.417C94.5 530.66 94.5966 530.893 94.7685 531.065C94.9404 531.237 95.1735 531.333 95.4167 531.333Z" fill="#00ACDB"/>
<path d="M99.1425 555.571C99.5309 556.218 100.469 556.218 100.857 555.571L105.091 548.514C105.491 547.848 105.011 547 104.234 547H95.7662C94.9889 547 94.5088 547.848 94.9087 548.514L99.1425 555.571Z" fill="#00ACDB"/>
</g>
<defs>
<filter id="filter0_f_9_339" x="63" y="221" width="45.5" height="355" filterUnits="userSpaceOnUse" color-interpolation-filters="sRGB">
<feFlood flood-opacity="0" result="BackgroundImageFix"/>
<feBlend mode="normal" in="SourceGraphic" in2="BackgroundImageFix" result="shape"/>
<feGaussianBlur stdDeviation="5" result="effect1_foregroundBlur_9_339"/>
</filter>
<filter id="filter1_f_9_339" x="102" y="266.588" width="51.5" height="433.823" filterUnits="userSpaceOnUse" color-interpolation-filters="sRGB">
<feFlood flood-opacity="0" result="BackgroundImageFix"/>
<feBlend mode="normal" in="SourceGraphic" in2="BackgroundImageFix" result="shape"/>
<feGaussianBlur stdDeviation="5" result="effect1_foregroundBlur_9_339"/>
</filter>
<filter id="filter2_f_9_339" x="160" y="334" width="51.5" height="433.823" filterUnits="userSpaceOnUse" color-interpolation-filters="sRGB">
<feFlood flood-opacity="0" result="BackgroundImageFix"/>
<feBlend mode="normal" in="SourceGraphic" in2="BackgroundImageFix" result="shape"/>
<feGaussianBlur stdDeviation="5" result="effect1_foregroundBlur_9_339"/>
</filter>
<filter id="filter3_f_9_339" x="214" y="297" width="51.5" height="433.823" filterUnits="userSpaceOnUse" color-interpolation-filters="sRGB">
<feFlood flood-opacity="0" result="BackgroundImageFix"/>
<feBlend mode="normal" in="SourceGraphic" in2="BackgroundImageFix" result="shape"/>
<feGaussianBlur stdDeviation="5" result="effect1_foregroundBlur_9_339"/>
</filter>
<filter id="filter4_f_9_339" x="283" y="332" width="51.5" height="433.823" filterUnits="userSpaceOnUse" color-interpolation-filters="sRGB">
<feFlood flood-opacity="0" result="BackgroundImageFix"/>
<feBlend mode="normal" in="SourceGraphic" in2="BackgroundImageFix" result="shape"/>
<feGaussianBlur stdDeviation="5" result="effect1_foregroundBlur_9_339"/>
</filter>
<filter id="filter5_f_9_339" x="7" y="261.92" width="62.5" height="230.58" filterUnits="userSpaceOnUse" color-interpolation-filters="sRGB">
<feFlood flood-opacity="0" result="BackgroundImageFix"/>
<feBlend mode="normal" in="SourceGraphic" in2="BackgroundImageFix" result="shape"/>
<feGaussianBlur stdDeviation="5" result="effect1_foregroundBlur_9_339"/>
</filter>
<linearGradient id="paint0_linear_9_339" x1="182.855" y1="700.172" x2="181.57" y2="700.175" gradientUnits="userSpaceOnUse">
<stop stop-color="#E7FCFF"/>
<stop offset="1" stop-color="#BDF6FF"/>
</linearGradient>
<linearGradient id="paint1_linear_9_339" x1="139.627" y1="634.675" x2="203.553" y2="691.892" gradientUnits="userSpaceOnUse">
<stop stop-color="#E7FCFF"/>
<stop offset="1" stop-color="#BDF6FF"/>
</linearGradient>
<linearGradient id="paint2_linear_9_339" x1="139.627" y1="655.35" x2="203.553" y2="712.567" gradientUnits="userSpaceOnUse">
<stop stop-color="#E7FCFF"/>
<stop offset="1" stop-color="#BDF6FF"/>
</linearGradient>
<linearGradient id="paint3_linear_9_339" x1="139.627" y1="676.025" x2="203.553" y2="733.241" gradientUnits="userSpaceOnUse">
<stop stop-color="#E7FCFF"/>
<stop offset="1" stop-color="#BDF6FF"/>
</linearGradient>
<linearGradient id="paint4_linear_9_339" x1="139.627" y1="696.699" x2="203.553" y2="753.916" gradientUnits="userSpaceOnUse">
<stop stop-color="#E7FCFF"/>
<stop offset="1" stop-color="#BDF6FF"/>
</linearGradient>
<linearGradient id="paint5_linear_9_339" x1="139.627" y1="717.374" x2="203.553" y2="774.591" gradientUnits="userSpaceOnUse">
<stop stop-color="#E7FCFF"/>
<stop offset="1" stop-color="#BDF6FF"/>
</linearGradient>
<linearGradient id="paint6_linear_9_339" x1="139.627" y1="738.049" x2="203.553" y2="795.265" gradientUnits="userSpaceOnUse">
<stop stop-color="#E7FCFF"/>
<stop offset="1" stop-color="#BDF6FF"/>
</linearGradient>
<linearGradient id="paint7_linear_9_339" x1="139.627" y1="758.724" x2="203.553" y2="815.94" gradientUnits="userSpaceOnUse">
<stop stop-color="#E7FCFF"/>
<stop offset="1" stop-color="#BDF6FF"/>
</linearGradient>
<linearGradient id="paint8_linear_9_339" x1="139.627" y1="767.466" x2="189.421" y2="821.772" gradientUnits="userSpaceOnUse">
<stop stop-color="#1B3F71"/>
<stop offset="1" stop-color="#00C4E2"/>
</linearGradient>
<linearGradient id="paint9_linear_9_339" x1="350" y1="473.676" x2="306" y2="473.676" gradientUnits="userSpaceOnUse">
<stop stop-color="#00ACDB"/>
<stop offset="1" stop-color="#C830EB"/>
</linearGradient>
<linearGradient id="paint10_linear_9_339" x1="334" y1="503.301" x2="322" y2="503.301" gradientUnits="userSpaceOnUse">
<stop stop-color="#00ACDB"/>
<stop offset="1" stop-color="#C830EB"/>
</linearGradient>
<linearGradient id="paint11_linear_9_339" x1="246" y1="634.676" x2="202" y2="634.676" gradientUnits="userSpaceOnUse">
<stop stop-color="#00ACDB"/>
<stop offset="1" stop-color="#C830EB"/>
</linearGradient>
<linearGradient id="paint12_linear_9_339" x1="230" y1="664.301" x2="218" y2="664.301" gradientUnits="userSpaceOnUse">
<stop stop-color="#00ACDB"/>
<stop offset="1" stop-color="#C830EB"/>
</linearGradient>
<linearGradient id="paint13_linear_9_339" x1="32" y1="405.338" x2="10" y2="405.338" gradientUnits="userSpaceOnUse">
<stop stop-color="#00ACDB"/>
<stop offset="1" stop-color="#C830EB"/>
</linearGradient>
<linearGradient id="paint14_linear_9_339" x1="24" y1="420.15" x2="18" y2="420.15" gradientUnits="userSpaceOnUse">
<stop stop-color="#00ACDB"/>
<stop offset="1" stop-color="#C830EB"/>
</linearGradient>
<clipPath id="clip0_9_339">
<rect width="375" height="812" fill="white"/>
</clipPath>
</defs>
</svg>
