<svg width="20" height="21" viewBox="0 0 20 21" fill="none" xmlns="http://www.w3.org/2000/svg">
    <path d="M4.34749 7.72608C4.51628 7.89486 4.6111 8.12379 4.6111 8.36248V8.73509L10.0112 3.33503L9.37485 2.69872L10.0112 2.06242L9.37485 1.42611L3.08585 7.71511C3.25349 7.55319 3.47761 7.46247 3.71109 7.46247C3.94978 7.46247 4.17871 7.5573 4.34749 7.72608Z" fill="#575665"/>
    <path d="M16.3112 7.46247C16.5447 7.46247 16.7688 7.5532 16.9365 7.71513L10.6475 1.42611L10.0112 2.06242L10.6475 2.69872L10.0112 3.33503L15.4112 8.73509V8.36248C15.4112 8.12379 15.506 7.89486 15.6748 7.72608C15.8436 7.5573 16.0725 7.46247 16.3112 7.46247Z" fill="#575665"/>
    <path d="M17.2112 16.4626V10.5351L15.4112 8.73509V16.4626H17.2112Z" fill="#575665"/>
    <path d="M17.2112 8.36248H15.4112V8.73509L17.2112 10.5351V8.36248Z" fill="#575665"/>
    <path d="M17.2112 8.36248C17.2112 8.12898 17.1205 7.90484 16.9585 7.73719L16.9365 7.71513C16.7688 7.5532 16.5447 7.46247 16.3112 7.46247C16.0725 7.46247 15.8436 7.5573 15.6748 7.72608C15.506 7.89486 15.4112 8.12379 15.4112 8.36248H17.2112Z" fill="#575665"/>
    <path d="M17.4749 10.7988L18.7475 9.5262L16.9585 7.73719C17.1205 7.90484 17.2112 8.12898 17.2112 8.36248V10.5351L17.4749 10.7988Z" fill="#575665"/>
    <path d="M17.4749 10.7988C17.6447 10.9628 17.872 11.0535 18.108 11.0514C18.344 11.0494 18.5697 10.9547 18.7366 10.7878C18.9035 10.621 18.9981 10.3952 19.0002 10.1593C19.0022 9.92328 18.9115 9.69594 18.7475 9.5262L17.4749 10.7988Z" fill="#575665"/>
    <path d="M10.0112 2.06242L9.37485 2.69872L10.0112 3.33503L10.6475 2.69872L10.0112 2.06242Z" fill="#575665"/>
    <path d="M10.0112 2.06242L10.6475 1.42611C10.4787 1.25738 10.2498 1.1626 10.0112 1.1626C9.7725 1.1626 9.54362 1.25738 9.37485 1.42611L10.0112 2.06242Z" fill="#575665"/>
    <path d="M4.6111 8.36248C4.6111 8.12379 4.51628 7.89486 4.34749 7.72608C4.17871 7.5573 3.94978 7.46247 3.71109 7.46247C3.47761 7.46247 3.25349 7.55319 3.08585 7.71511L3.06372 7.73724C2.9018 7.90488 2.81108 8.12901 2.81108 8.36248H4.6111Z" fill="#575665"/>
    <path d="M4.6111 8.36248H2.81108V10.5351L4.6111 8.73509V8.36248Z" fill="#575665"/>
    <path d="M1.27476 9.5262L2.54738 10.7988L2.81108 10.5351V8.36248C2.81108 8.12901 2.9018 7.90488 3.06372 7.73724L1.27476 9.5262Z" fill="#575665"/>
    <path d="M1.27476 9.5262C1.1888 9.60922 1.12024 9.70853 1.07307 9.81833C1.0259 9.92814 1.00107 10.0462 1.00003 10.1657C0.998996 10.2852 1.02177 10.4038 1.06702 10.5144C1.11227 10.625 1.1791 10.7255 1.26361 10.81C1.34811 10.8945 1.4486 10.9613 1.55921 11.0065C1.66981 11.0518 1.78833 11.0746 1.90783 11.0735C2.02733 11.0725 2.14543 11.0477 2.25524 11.0005C2.36504 10.9533 2.46435 10.8848 2.54738 10.7988L1.27476 9.5262Z" fill="#575665"/>
    <path d="M2.81108 16.4626H4.6111V8.73509L2.81108 10.5351V16.4626Z" fill="#575665"/>
    <path d="M5.51111 19.1626V17.3626C5.27241 17.3626 5.04349 17.2678 4.8747 17.099C4.70592 16.9302 4.6111 16.7013 4.6111 16.4626H2.81108C2.81108 17.1787 3.09554 17.8654 3.6019 18.3718C4.10825 18.8781 4.79501 19.1626 5.51111 19.1626Z" fill="#575665"/>
    <path d="M5.51111 19.1626H14.5112V17.3626H5.51111V19.1626Z" fill="#575665"/>
    <path d="M14.5112 17.3626V19.1626C15.2273 19.1626 15.9141 18.8781 16.4204 18.3718C16.9268 17.8654 17.2112 17.1787 17.2112 16.4626H15.4112C15.4112 16.7013 15.3164 16.9302 15.1476 17.099C14.9788 17.2678 14.7499 17.3626 14.5112 17.3626Z" fill="#575665"/>
</svg>
