<svg width="20" height="20" viewBox="0 0 20 20" fill="none" xmlns="http://www.w3.org/2000/svg">
    <path d="M2.5 10.8887C4.81667 10.5679 6.89583 11.6871 8.02 13.4721" stroke="url(#paint0_linear_628_2439)" stroke-width="1.5" stroke-linecap="round" stroke-linejoin="round"/>
    <path d="M17.4392 8.325C11.9308 7.56833 7.18082 11.6583 7.49999 17.0833M5.41666 6.66667C5.41666 7.10869 5.59225 7.53262 5.90481 7.84518C6.21737 8.15774 6.6413 8.33333 7.08332 8.33333C7.52535 8.33333 7.94927 8.15774 8.26183 7.84518C8.57439 7.53262 8.74999 7.10869 8.74999 6.66667C8.74999 6.22464 8.57439 5.80072 8.26183 5.48816C7.94927 5.17559 7.52535 5 7.08332 5C6.6413 5 6.21737 5.17559 5.90481 5.48816C5.59225 5.80072 5.41666 6.22464 5.41666 6.66667Z" stroke="url(#paint1_linear_628_2439)" stroke-width="1.5" stroke-linecap="round" stroke-linejoin="round"/>
    <path d="M2.5 10C2.5 6.46417 2.5 4.69667 3.59833 3.59833C4.69667 2.5 6.465 2.5 10 2.5C13.5358 2.5 15.3033 2.5 16.4017 3.59833C17.5 4.69667 17.5 6.465 17.5 10C17.5 13.5358 17.5 15.3033 16.4017 16.4017C15.3033 17.5 13.535 17.5 10 17.5C6.46417 17.5 4.69667 17.5 3.59833 16.4017C2.5 15.3033 2.5 13.535 2.5 10Z" stroke="url(#paint2_linear_628_2439)" stroke-width="1.5" stroke-linecap="round" stroke-linejoin="round"/>
    <defs>
        <linearGradient id="paint0_linear_628_2439" x1="2.5" y1="12.1779" x2="7.96367" y2="12.1779" gradientUnits="userSpaceOnUse">
            <stop stop-color="#003F79"/>
            <stop offset="0.9999" stop-color="#00ACDB"/>
        </linearGradient>
        <linearGradient id="paint1_linear_628_2439" x1="5.41666" y1="11.1557" x2="17.3165" y2="11.1557" gradientUnits="userSpaceOnUse">
            <stop stop-color="#003F79"/>
            <stop offset="0.9999" stop-color="#00ACDB"/>
        </linearGradient>
        <linearGradient id="paint2_linear_628_2439" x1="2.5" y1="10.1415" x2="17.3469" y2="10.1415" gradientUnits="userSpaceOnUse">
            <stop stop-color="#003F79"/>
            <stop offset="0.9999" stop-color="#00ACDB"/>
        </linearGradient>
    </defs>
</svg>
