<svg width="20" height="20" viewBox="0 0 20 20" fill="none" xmlns="http://www.w3.org/2000/svg">
    <circle cx="10" cy="10" r="10" transform="matrix(-1 0 0 1 20 0)" fill="#9593A2"/>
    <path d="M9.82912 6.08754C9.93848 6.19693 9.99991 6.34528 9.99991 6.49996C9.99991 6.65464 9.93848 6.80298 9.82912 6.91237L7.32487 9.41662H14.0834C14.2381 9.41662 14.3865 9.47808 14.4959 9.58748C14.6052 9.69687 14.6667 9.84525 14.6667 9.99996C14.6667 10.1547 14.6052 10.303 14.4959 10.4124C14.3865 10.5218 14.2381 10.5833 14.0834 10.5833H7.32487L9.82912 13.0875C9.93538 13.1976 9.99418 13.3449 9.99285 13.4979C9.99152 13.6508 9.93017 13.7971 9.82202 13.9053C9.71386 14.0134 9.56755 14.0748 9.41461 14.0761C9.26166 14.0774 9.11431 14.0186 9.00429 13.9124L5.50429 10.4124C5.39493 10.303 5.3335 10.1546 5.3335 9.99996C5.3335 9.84528 5.39493 9.69693 5.50429 9.58754L9.00429 6.08754C9.11368 5.97818 9.26203 5.91675 9.41671 5.91675C9.57138 5.91675 9.71973 5.97818 9.82912 6.08754Z" fill="white"/>
</svg>
