<svg width="12" height="20" viewBox="0 0 12 20" fill="none" xmlns="http://www.w3.org/2000/svg">
<path d="M0 9.96143C0 10.3545 0.145996 10.6914 0.460449 10.9834L9.19775 19.541C9.44482 19.7881 9.75928 19.9229 10.1299 19.9229C10.8711 19.9229 11.4663 19.3389 11.4663 18.5864C11.4663 18.2158 11.3091 17.8901 11.062 17.6318L3.18945 9.96143L11.062 2.29102C11.3091 2.03271 11.4663 1.6958 11.4663 1.33643C11.4663 0.583984 10.8711 0 10.1299 0C9.75928 0 9.44482 0.134766 9.19775 0.381836L0.460449 8.92822C0.145996 9.23145 0 9.56836 0 9.96143Z" fill="#575665"/>
</svg>
