<svg width="14" height="15" viewBox="0 0 14 15" fill="none" xmlns="http://www.w3.org/2000/svg">
<path d="M10.5916 10.3481L9.89915 11.033C9.38873 11.5335 8.72665 12.1775 7.91232 12.965C7.66757 13.2016 7.34044 13.3339 6.99998 13.3339C6.65953 13.3339 6.3324 13.2016 6.08765 12.965L4.05123 10.984C3.79457 10.7326 3.58107 10.5208 3.4084 10.3481C2.69811 9.63781 2.21442 8.7328 2.01847 7.74756C1.82252 6.76233 1.92312 5.74111 2.30756 4.81305C2.69199 3.88499 3.34299 3.09177 4.17823 2.53369C5.01348 1.97561 5.99545 1.67773 6.99998 1.67773C8.00452 1.67773 8.98649 1.97561 9.82173 2.53369C10.657 3.09177 11.308 3.88499 11.6924 4.81305C12.0768 5.74111 12.1775 6.76233 11.9815 7.74756C11.7856 8.7328 11.3019 9.63781 10.5916 10.3481ZM8.45832 6.91698C8.45832 6.5302 8.30467 6.15927 8.03118 5.88578C7.75769 5.61229 7.38676 5.45864 6.99998 5.45864C6.61321 5.45864 6.24228 5.61229 5.96879 5.88578C5.6953 6.15927 5.54165 6.5302 5.54165 6.91698C5.54165 7.30375 5.6953 7.67468 5.96879 7.94817C6.24228 8.22166 6.61321 8.37531 6.99998 8.37531C7.38676 8.37531 7.75769 8.22166 8.03118 7.94817C8.30467 7.67468 8.45832 7.30375 8.45832 6.91698Z" fill="url(#paint0_linear_788_2533)"/>
<defs>
<linearGradient id="paint0_linear_788_2533" x1="1.9209" y1="7.61579" x2="11.9754" y2="7.61579" gradientUnits="userSpaceOnUse">
<stop stop-color="#003F79"/>
<stop offset="0.9999" stop-color="#00ACDB"/>
</linearGradient>
</defs>
</svg>
