<?xml version="1.0" encoding="UTF-8"?>
<svg version="1.1" xmlns="http://www.w3.org/2000/svg" width="80" height="80">
<path d="M0 0 C4.94586526 2.29629459 7.30760518 5.31323865 10 10 C11.1577506 13.47325181 11.06866652 16.36067448 11 20 C12.299375 19.87625 12.299375 19.87625 13.625 19.75 C17.79694919 20.05903327 19.7543096 21.43364015 23 24 C24.53157668 27.06315336 24.1837217 30.27833601 24.203125 33.640625 C24.20882507 34.40042664 24.21452515 35.16022827 24.22039795 35.9430542 C24.22985192 37.55365607 24.23638351 39.16427733 24.24023438 40.77490234 C24.24990762 43.22658632 24.2809125 45.67742027 24.3125 48.12890625 C24.31903352 49.69530753 24.32428262 51.2617148 24.328125 52.828125 C24.3404718 53.55646545 24.3528186 54.28480591 24.36553955 55.03521729 C24.34506174 59.76944051 23.50629156 62.98360373 21 67 C14.06211788 72.4377995 4.6790364 71.18624231 -3.68505859 71.18530273 C-5.86185334 71.18748681 -8.03813855 71.20567081 -10.21484375 71.22460938 C-27.23301091 71.29601222 -27.23301091 71.29601222 -32.9375 66.5625 C-36.3444922 62.32957029 -36.18595518 58.42885101 -36.23828125 53.2265625 C-36.246353 52.46580414 -36.25442474 51.70504578 -36.26274109 50.92123413 C-36.27656024 49.31242132 -36.28729209 47.70357946 -36.29516602 46.09472656 C-36.31238974 43.64070919 -36.35629371 41.18803596 -36.40039062 38.734375 C-36.41051741 37.16928071 -36.41903356 35.604175 -36.42578125 34.0390625 C-36.44328934 33.30869781 -36.46079742 32.57833313 -36.47883606 31.82583618 C-36.46336584 28.17363901 -36.09738326 26.15330557 -34.12084961 23.04174805 C-31.68631507 20.69801461 -30.57504856 20.33419332 -27.25 20.1875 C-26.45078125 20.13980469 -25.6515625 20.09210937 -24.828125 20.04296875 C-24.22484375 20.02878906 -23.6215625 20.01460937 -23 20 C-23.0825 19.01 -23.165 18.02 -23.25 17 C-23.2405944 12.36304083 -21.57063031 8.80221846 -19 5 C-13.01724367 -0.55541659 -7.96766332 -0.74045039 0 0 Z M-13 9 C-16.28323075 13.04931793 -16 14.39675951 -16 20 C-9.4 20 -2.8 20 4 20 C3.94771787 11.56466337 3.94771787 11.56466337 0.75 8.5 C-4.77116086 5.48845771 -7.61791832 5.48994673 -13 9 Z M-28 27 C-29.76351317 32.74086231 -29.76351317 32.74086231 -30.265625 38.26953125 C-30.26989502 39.00880859 -30.27416504 39.74808594 -30.27856445 40.50976562 C-30.26913818 41.26966797 -30.25971191 42.02957031 -30.25 42.8125 C-30.24250732 43.60205078 -30.23501465 44.39160156 -30.22729492 45.20507812 C-30.35194492 53.87262753 -30.35194492 53.87262753 -28 62 C-23.83202231 64.19661699 -19.85685998 64.29218474 -15.25 64.265625 C-14.51426758 64.26753845 -13.77853516 64.2694519 -13.02050781 64.27142334 C-11.47069963 64.2727795 -9.92087987 64.26912289 -8.37109375 64.26074219 C-6.00755135 64.25003421 -3.64476894 64.26065641 -1.28125 64.2734375 C0.22916833 64.2721158 1.7395862 64.2695532 3.25 64.265625 C3.9522168 64.26967346 4.65443359 64.27372192 5.37792969 64.27789307 C9.34053468 64.240281 12.47243021 63.85910778 16 62 C18.89531176 56.52700562 18.19236988 48.88535091 18.25 42.8125 C18.25942627 42.05259766 18.26885254 41.29269531 18.27856445 40.50976562 C18.27429443 39.77048828 18.27002441 39.03121094 18.265625 38.26953125 C18.26336914 37.61573486 18.26111328 36.96193848 18.25878906 36.28833008 C17.90072513 33.12216669 16.87535655 30.06374792 16 27 C1.48 27 -13.04 27 -28 27 Z " fill="#575665" transform="translate(46,3)"/>
<path d="M0 0 C3.58598061 2.21262634 5.39653485 4.15446021 7 8 C7.74722522 12.28936017 7.9617225 16.31319334 5.76171875 20.171875 C3.28964702 23.14081474 1.71810774 24.76063075 -2 26 C-8.12093081 26.50171564 -11.1167095 26.08833623 -16 22 C-19.39479158 18.20106656 -19.51528894 15.42146492 -19.34765625 10.47265625 C-18.82668967 6.76735464 -17.52514963 4.72450355 -15 2 C-10.08715913 -1.54181551 -5.672626 -1.54898275 0 0 Z M-10.3125 7.1875 C-12.23923099 9.25695181 -12.91675997 10.16983903 -13 13 C-11.85213059 15.24356294 -10.7904233 17.2095767 -9 19 C-4.85267198 19.41521605 -4.85267198 19.41521605 -1.1875 17.75 C0.21205 15.68750526 0.85264484 14.50503771 1 12 C0.06196218 9.2140989 0.06196218 9.2140989 -2 7 C-5.40774751 5.83991574 -7.07835196 5.52672128 -10.3125 7.1875 Z " fill="#565665" transform="translate(46,36)"/>
</svg>
