<svg width="18" height="18" viewBox="0 0 18 18" fill="none" xmlns="http://www.w3.org/2000/svg">
<path d="M11.625 3.75C11.625 2.30025 10.4497 1.125 9 1.125C7.55025 1.125 6.375 2.30025 6.375 3.75V8.625C6.375 10.0747 7.55025 11.25 9 11.25C10.4497 11.25 11.625 10.0747 11.625 8.625V3.75Z" fill="url(#paint0_linear_2391_2764)" stroke="url(#paint1_linear_2391_2764)" stroke-width="2" stroke-linejoin="round"/>
<path d="M3.375 9C3.375 12.1065 5.8935 14.625 9 14.625M9 14.625C12.1065 14.625 14.625 12.1065 14.625 9M9 14.625V16.875" stroke="url(#paint2_linear_2391_2764)" stroke-width="2" stroke-linecap="round" stroke-linejoin="round"/>
<defs>
    <linearGradient id="paint0_linear_2391_2764" x1="6.375" y1="6.28302" x2="11.5714" y2="6.28302" gradientUnits="userSpaceOnUse">
        <stop stop-color="#003F79"/>
        <stop offset="0.9999" stop-color="#00ACDB"/>
    </linearGradient>
    <linearGradient id="paint1_linear_2391_2764" x1="6.375" y1="6.28302" x2="11.5714" y2="6.28302" gradientUnits="userSpaceOnUse">
        <stop stop-color="#003F79"/>
        <stop offset="0.9999" stop-color="#00ACDB"/>
    </linearGradient>
    <linearGradient id="paint2_linear_2391_2764" x1="3.375" y1="13.0118" x2="14.5102" y2="13.0118" gradientUnits="userSpaceOnUse">
        <stop stop-color="#003F79"/>
        <stop offset="0.9999" stop-color="#00ACDB"/>
    </linearGradient>
</defs>
</svg>
