<svg width="26" height="26" viewBox="0 0 26 26" fill="none" xmlns="http://www.w3.org/2000/svg">
<rect x="0.25" y="0.25" width="25.5" height="25.5" rx="3.75" fill="white" fill-opacity="0.24" stroke="white" stroke-width="0.5"/>
<path d="M13 17C13.5304 17 14.0391 17.2107 14.4142 17.5858C14.7893 17.9609 15 18.4696 15 19C15 19.5304 14.7893 20.0391 14.4142 20.4142C14.0391 20.7893 13.5304 21 13 21C12.4696 21 11.9609 20.7893 11.5858 20.4142C11.2107 20.0391 11 19.5304 11 19C11 18.4696 11.2107 17.9609 11.5858 17.5858C11.9609 17.2107 12.4696 17 13 17ZM13 11C13.5304 11 14.0391 11.2107 14.4142 11.5858C14.7893 11.9609 15 12.4696 15 13C15 13.5304 14.7893 14.0391 14.4142 14.4142C14.0391 14.7893 13.5304 15 13 15C12.4696 15 11.9609 14.7893 11.5858 14.4142C11.2107 14.0391 11 13.5304 11 13C11 12.4696 11.2107 11.9609 11.5858 11.5858C11.9609 11.2107 12.4696 11 13 11ZM13 5C13.5304 5 14.0391 5.21071 14.4142 5.58579C14.7893 5.96086 15 6.46957 15 7C15 7.53043 14.7893 8.03914 14.4142 8.41421C14.0391 8.78929 13.5304 9 13 9C12.4696 9 11.9609 8.78929 11.5858 8.41421C11.2107 8.03914 11 7.53043 11 7C11 6.46957 11.2107 5.96086 11.5858 5.58579C11.9609 5.21071 12.4696 5 13 5Z" fill="#575665"/>
</svg>
