<svg width="50" height="50" viewBox="0 0 50 50" fill="none" xmlns="http://www.w3.org/2000/svg">
<rect x="0.5" y="0.5" width="49" height="49" rx="24.5" stroke="#9AA1AB"/>
<path d="M28.9 23.7C30.3359 23.7 31.5 22.5359 31.5 21.1C31.5 19.6641 30.3359 18.5 28.9 18.5C27.4641 18.5 26.3 19.6641 26.3 21.1C26.3 22.5359 27.4641 23.7 28.9 23.7Z" stroke="#9AA1AB" stroke-width="1.2"/>
<path d="M35.4 32.2803L32.5101 29.6803C31.8539 29.0896 31.0167 28.739 30.1354 28.6859C29.2541 28.6327 28.3809 28.8802 27.6585 29.3878L27.2698 29.6608C26.7691 30.0127 26.1603 30.1766 25.5506 30.1239C24.9409 30.0711 24.3694 29.8049 23.9366 29.3722L18.3596 23.7952C17.8232 23.2593 17.1031 22.9472 16.3453 22.9221C15.5874 22.8969 14.8483 23.1607 14.2776 23.66L12.3666 25.3318" stroke="#9AA1AB" stroke-width="1.2" stroke-linecap="round"/>
<path d="M25 38C32.1797 38 38 32.1797 38 25C38 17.8203 32.1797 12 25 12C17.8203 12 12 17.8203 12 25C12 32.1797 17.8203 38 25 38Z" stroke="#9AA1AB" stroke-width="1.2"/>
</svg>
