<svg width="22" height="22" viewBox="0 0 22 22" fill="none" xmlns="http://www.w3.org/2000/svg">
    <path fill-rule="evenodd" clip-rule="evenodd" d="M6 4.6875C6 4.50516 6.07243 4.3303 6.20136 4.20136C6.3303 4.07243 6.50516 4 6.6875 4H9.0625C9.24484 4 9.4197 4.07243 9.54864 4.20136C9.67757 4.3303 9.75 4.50516 9.75 4.6875V17.0625C9.75 17.2448 9.67757 17.4197 9.54864 17.5486C9.4197 17.6776 9.24484 17.75 9.0625 17.75H6.6875C6.50516 17.75 6.3303 17.6776 6.20136 17.5486C6.07243 17.4197 6 17.2448 6 17.0625V4.6875ZM12.875 4.6875C12.875 4.50516 12.9474 4.3303 13.0764 4.20136C13.2053 4.07243 13.3802 4 13.5625 4H15.9375C16.1198 4 16.2947 4.07243 16.4236 4.20136C16.5526 4.3303 16.625 4.50516 16.625 4.6875V17.0625C16.625 17.2448 16.5526 17.4197 16.4236 17.5486C16.2947 17.6776 16.1198 17.75 15.9375 17.75H13.5625C13.3802 17.75 13.2053 17.6776 13.0764 17.5486C12.9474 17.4197 12.875 17.2448 12.875 17.0625V4.6875Z" fill="#575665"/>
</svg>
