<svg width="20" height="20" viewBox="0 0 20 20" fill="none" xmlns="http://www.w3.org/2000/svg">
<path fill-rule="evenodd" clip-rule="evenodd" d="M11.0106 14.768C11.1115 14.8522 11.228 14.9156 11.3535 14.9547C11.4789 14.9939 11.6108 15.0079 11.7417 14.996C11.8725 14.9841 11.9997 14.9465 12.1161 14.8855C12.2324 14.8244 12.3356 14.741 12.4196 14.64L15.7526 10.64C15.8404 10.5396 15.9073 10.4227 15.9492 10.2962C15.9912 10.1696 16.0074 10.0359 15.9969 9.90299C15.9864 9.77006 15.9495 9.64057 15.8882 9.52213C15.8269 9.4037 15.7426 9.29871 15.6402 9.21335C15.5377 9.12798 15.4193 9.06397 15.2917 9.02507C15.1642 8.98617 15.0302 8.97317 14.8975 8.98683C14.7649 9.0005 14.6363 9.04055 14.5194 9.10464C14.4024 9.16872 14.2995 9.25555 14.2166 9.36L10.8826 13.36C10.713 13.5637 10.6311 13.8265 10.6551 14.0905C10.6792 14.3545 10.807 14.5982 11.0106 14.768Z" fill="white"/>
<path fill-rule="evenodd" clip-rule="evenodd" d="M11.0106 5.23199C10.807 5.40178 10.6792 5.64547 10.6551 5.9095C10.6311 6.17352 10.713 6.43628 10.8826 6.63999L14.2166 10.64C14.2995 10.7445 14.4024 10.8313 14.5194 10.8954C14.6363 10.9594 14.7649 10.9995 14.8975 11.0132C15.0302 11.0268 15.1642 11.0138 15.2917 10.9749C15.4193 10.936 15.5377 10.872 15.6402 10.7867C15.7426 10.7013 15.8269 10.5963 15.8882 10.4779C15.9495 10.3594 15.9864 10.2299 15.9969 10.097C16.0074 9.96408 15.9912 9.8304 15.9492 9.70383C15.9073 9.57726 15.8404 9.46035 15.7526 9.35999L12.4196 5.35999C12.3356 5.25903 12.2324 5.17562 12.1161 5.11454C11.9997 5.05345 11.8725 5.0159 11.7417 5.00401C11.6108 4.99212 11.4789 5.00614 11.3535 5.04526C11.228 5.08438 11.1115 5.14783 11.0106 5.23199Z" fill="white"/>
<path fill-rule="evenodd" clip-rule="evenodd" d="M13.9846 10C13.9846 9.73478 13.8793 9.48043 13.6918 9.29289C13.5042 9.10536 13.2499 9 12.9846 9H4.98465C4.71943 9 4.46508 9.10536 4.27754 9.29289C4.09001 9.48043 3.98465 9.73478 3.98465 10C3.98465 10.2652 4.09001 10.5196 4.27754 10.7071C4.46508 10.8946 4.71943 11 4.98465 11H12.9846C13.2499 11 13.5042 10.8946 13.6918 10.7071C13.8793 10.5196 13.9846 10.2652 13.9846 10Z" fill="white"/>
</svg>
