<svg width="20" height="20" viewBox="0 0 20 20" fill="none" xmlns="http://www.w3.org/2000/svg">
    <circle cx="10" cy="10" r="10" fill="#9593A2"/>
    <path d="M10.1709 6.08754C10.0615 6.19693 10.0001 6.34528 10.0001 6.49996C10.0001 6.65464 10.0615 6.80298 10.1709 6.91237L12.6751 9.41662H5.91663C5.76192 9.41662 5.61354 9.47808 5.50415 9.58748C5.39475 9.69687 5.33329 9.84525 5.33329 9.99996C5.33329 10.1547 5.39475 10.303 5.50415 10.4124C5.61354 10.5218 5.76192 10.5833 5.91663 10.5833H12.6751L10.1709 13.0875C10.0646 13.1976 10.0058 13.3449 10.0072 13.4979C10.0085 13.6508 10.0698 13.7971 10.178 13.9053C10.2861 14.0134 10.4324 14.0748 10.5854 14.0761C10.7383 14.0774 10.8857 14.0186 10.9957 13.9124L14.4957 10.4124C14.6051 10.303 14.6665 10.1546 14.6665 9.99996C14.6665 9.84528 14.6051 9.69693 14.4957 9.58754L10.9957 6.08754C10.8863 5.97818 10.738 5.91675 10.5833 5.91675C10.4286 5.91675 10.2803 5.97818 10.1709 6.08754Z" fill="white"/>
</svg>
