<svg width="20" height="20" viewBox="0 0 20 20" fill="none" xmlns="http://www.w3.org/2000/svg">
<g id="teenyicons:search-property-outline" clip-path="url(#clip0_215_776)">
<path id="Vector" d="M19.3333 19.3333C19.594 19.0727 19.594 18.65 19.3333 18.3893L14.944 14C14.6833 13.7393 14.2607 13.7393 14 14C13.7393 14.2607 13.7393 14.6833 14 14.944L18.3893 19.3333C18.65 19.594 19.0727 19.594 19.3333 19.3333ZM8.66667 16C6.72175 16 4.85648 15.2274 3.48122 13.8521C2.10595 12.4769 1.33333 10.6116 1.33333 8.66667H0C0 10.9652 0.913093 13.1696 2.53841 14.7949C4.16372 16.4202 6.36812 17.3333 8.66667 17.3333V16ZM16 8.66667C16 10.6116 15.2274 12.4769 13.8521 13.8521C12.4769 15.2274 10.6116 16 8.66667 16V17.3333C10.9652 17.3333 13.1696 16.4202 14.7949 14.7949C16.4202 13.1696 17.3333 10.9652 17.3333 8.66667H16ZM8.66667 1.33333C10.6116 1.33333 12.4769 2.10595 13.8521 3.48122C15.2274 4.85648 16 6.72175 16 8.66667H17.3333C17.3333 6.36812 16.4202 4.16372 14.7949 2.53841C13.1696 0.913093 10.9652 0 8.66667 0V1.33333ZM8.66667 0C6.36812 0 4.16372 0.913093 2.53841 2.53841C0.913093 4.16372 0 6.36812 0 8.66667H1.33333C1.33333 6.72175 2.10595 4.85648 3.48122 3.48122C4.85648 2.10595 6.72175 1.33333 8.66667 1.33333V0Z" fill="#00ACDB"/>
</g>
<defs>
<clipPath id="clip0_215_776">
<rect width="20" height="20" fill="white"/>
</clipPath>
</defs>
</svg>
