<svg width="20" height="21" viewBox="0 0 20 21" fill="none" xmlns="http://www.w3.org/2000/svg">
    <g clip-path="url(#clip0_499_3221)">
        <g clip-path="url(#clip1_499_3221)">
            <path d="M10 6.85645C8.32857 6.85645 7 8.18502 7 9.85645C7 11.5279 8.32857 12.8564 10 12.8564C11.6714 12.8564 13 11.5279 13 9.85645C13 8.18502 11.6714 6.85645 10 6.85645ZM10 11.9993C8.8 11.9993 7.85714 11.0564 7.85714 9.85645C7.85714 8.65645 8.8 7.71359 10 7.71359C11.2 7.71359 12.1429 8.65645 12.1429 9.85645C12.1429 11.0564 11.2 11.9993 10 11.9993Z" fill="#575665" stroke="#575665" stroke-width="0.8"/>
            <path d="M18.2222 8.02333L16.6667 7.52333L16.3333 6.69L17.1111 5.24555C17.2778 4.91222 17.2222 4.46777 16.9444 4.19L15.6111 2.85666C15.3333 2.57888 14.8889 2.52333 14.5556 2.69L13.1111 3.46777L12.2778 3.13444L11.7778 1.57888C11.6667 1.24555 11.3333 0.967773 10.9444 0.967773H9.05556C8.66667 0.967773 8.33334 1.24555 8.27778 1.63444L7.77778 3.19C7.44445 3.24555 7.16667 3.35666 6.88889 3.52333L5.44445 2.74555C5.11111 2.57888 4.66667 2.63444 4.38889 2.91222L3.05556 4.24555C2.77778 4.52333 2.72223 4.96777 2.88889 5.30111L3.61111 6.69C3.5 6.96777 3.38889 7.30111 3.27778 7.57888L1.72223 8.07889C1.38889 8.19 1.11111 8.52333 1.11111 8.91222V10.8011C1.11111 11.19 1.38889 11.5233 1.77778 11.6344L3.33334 12.1344L3.66667 12.9678L2.88889 14.4122C2.72223 14.7456 2.77778 15.19 3.05556 15.4678L4.38889 16.8011C4.66667 17.0789 5.11111 17.1344 5.44445 16.9678L6.88889 16.19L7.72223 16.5233L8.22223 18.1344C8.33334 18.4678 8.66667 18.7456 9.05556 18.7456H10.9444C11.3333 18.7456 11.6667 18.4678 11.7778 18.1344L12.2778 16.5233L13.1111 16.19L14.5556 16.9678C14.8889 17.1344 15.3333 17.0789 15.6111 16.8011L16.9444 15.4678C17.2222 15.19 17.2778 14.7456 17.1111 14.4122L16.3333 12.9678L16.6667 12.1344L18.2778 11.6344C18.6111 11.5233 18.8889 11.19 18.8889 10.8011V8.91222C18.8889 8.52333 18.6111 8.13444 18.2222 8.02333ZM17.7778 10.6344L15.7778 11.2456L15.7222 11.5233L15.2222 12.69L15.0556 12.9678L16.0556 14.8011L14.9444 15.9122L13.1111 14.9122L12.8333 15.0789C12.4444 15.3011 12.0556 15.4678 11.6667 15.5789L11.3889 15.6344L10.7778 17.6344H9.22223L8.61111 15.6344L8.33334 15.5789L7.16667 15.0789L6.88889 14.9122L5.05556 15.9122L3.94445 14.8011L4.94445 12.9678L4.77778 12.69C4.55556 12.3011 4.38889 11.9122 4.27778 11.5233L4.22223 11.2456L2.22223 10.6344V9.07889L4.11111 8.52333L4.22223 8.24555C4.33334 7.80111 4.5 7.41222 4.72223 7.02333L4.88889 6.74555L3.94445 4.91222L5.05556 3.80111L6.83334 4.80111L7.11111 4.63444C7.5 4.41222 7.88889 4.24555 8.33334 4.13444L8.61111 4.02333L9.22223 2.07888H10.7778L11.3889 4.02333L11.6667 4.13444C12.0556 4.24555 12.4444 4.41222 12.8333 4.63444L13.1111 4.80111L14.9444 3.80111L16.0556 4.91222L15.0556 6.74555L15.2222 7.02333C15.4444 7.41222 15.6111 7.80111 15.7222 8.19L15.7778 8.46777L17.7778 9.07889V10.6344Z" fill="#575665" stroke="#575665" stroke-width="0.4"/>
        </g>
    </g>
    <defs>
        <clipPath id="clip0_499_3221">
            <rect width="20" height="20" fill="white" transform="translate(0 0.344238)"/>
        </clipPath>
        <clipPath id="clip1_499_3221">
            <rect width="20" height="20" fill="white" transform="translate(0 -0.143555)"/>
        </clipPath>
    </defs>
</svg>
