<svg width="25" height="25" viewBox="0 0 25 25" fill="none" xmlns="http://www.w3.org/2000/svg">
    <path d="M22.207 11.4559L14.207 3.45587C14.0671 3.31606 13.889 3.22086 13.695 3.18229C13.5011 3.14372 13.3 3.16352 13.1173 3.23919C12.9346 3.31486 12.7785 3.443 12.6686 3.60741C12.5587 3.77182 12.5 3.96512 12.5 4.16287V7.70787C9.76829 7.96067 7.22923 9.22373 5.37969 11.2499C3.53015 13.2761 2.50327 15.9195 2.5 18.6629V20.1629C2.50016 20.3705 2.56491 20.5728 2.68527 20.742C2.80564 20.9111 2.97565 21.0386 3.17173 21.1067C3.3678 21.1748 3.58022 21.1803 3.77953 21.1222C3.97883 21.0642 4.15514 20.9456 4.284 20.7829C5.2637 19.6178 6.46576 18.6597 7.81994 17.9645C9.17413 17.2693 10.6533 16.8509 12.171 16.7339C12.221 16.7279 12.346 16.7179 12.5 16.7079V20.1629C12.5 20.3606 12.5587 20.5539 12.6686 20.7183C12.7785 20.8827 12.9346 21.0109 13.1173 21.0865C13.3 21.1622 13.5011 21.182 13.695 21.1435C13.889 21.1049 14.0671 21.0097 14.207 20.8699L22.207 12.8699C22.3945 12.6823 22.4998 12.428 22.4998 12.1629C22.4998 11.8977 22.3945 11.6434 22.207 11.4559ZM14.5 17.7489V15.6629C14.5 15.3977 14.3946 15.1433 14.2071 14.9558C14.0196 14.7682 13.7652 14.6629 13.5 14.6629C13.245 14.6629 12.204 14.7129 11.938 14.7479C9.24286 14.9962 6.67742 16.0202 4.552 17.6959C4.79324 15.4903 5.83954 13.4512 7.49055 11.969C9.14157 10.4868 11.2813 9.66572 13.5 9.66287C13.7652 9.66287 14.0196 9.55752 14.2071 9.36998C14.3946 9.18244 14.5 8.92809 14.5 8.66287V6.57687L20.086 12.1629L14.5 17.7489Z" fill="#575665"/>
</svg>
