<svg width="14" height="14" viewBox="0 0 14 14" fill="none" xmlns="http://www.w3.org/2000/svg">
<g id="iconoir:bathroom-solid">
<g id="Vector">
<path d="M10.9283 9.19341V4.80659C11.172 4.74415 11.3948 4.61832 11.5741 4.4419C11.7535 4.26548 11.8829 4.04475 11.9494 3.80211C12.0158 3.55947 12.0169 3.30358 11.9524 3.0604C11.888 2.81723 11.7603 2.59544 11.5824 2.41755C11.4046 2.23966 11.1828 2.11202 10.9396 2.04757C10.6964 1.98313 10.4405 1.98418 10.1979 2.05062C9.95525 2.11706 9.73452 2.24652 9.5581 2.42586C9.38168 2.6052 9.25585 2.82803 9.19341 3.07172H4.80659C4.74415 2.82803 4.61832 2.6052 4.4419 2.42586C4.26548 2.24652 4.04475 2.11706 3.80211 2.05062C3.55947 1.98418 3.30358 1.98313 3.0604 2.04757C2.81723 2.11202 2.59544 2.23966 2.41755 2.41755C2.23966 2.59544 2.11202 2.81723 2.04757 3.0604C1.98313 3.30358 1.98418 3.55947 2.05062 3.80211C2.11706 4.04475 2.24652 4.26548 2.42586 4.4419C2.6052 4.61832 2.82803 4.74415 3.07172 4.80659V9.19341C2.82803 9.25585 2.6052 9.38168 2.42586 9.5581C2.24652 9.73452 2.11706 9.95525 2.05062 10.1979C1.98418 10.4405 1.98313 10.6964 2.04757 10.9396C2.11202 11.1828 2.23966 11.4046 2.41755 11.5824C2.59544 11.7603 2.81723 11.888 3.0604 11.9524C3.30358 12.0169 3.55947 12.0158 3.80211 11.9494C4.04475 11.8829 4.26548 11.7535 4.4419 11.5741C4.61832 11.3948 4.74415 11.172 4.80659 10.9283H9.19341C9.25585 11.172 9.38168 11.3948 9.5581 11.5741C9.73452 11.7535 9.95525 11.8829 10.1979 11.9494C10.4405 12.0158 10.6964 12.0169 10.9396 11.9524C11.1828 11.888 11.4046 11.7603 11.5824 11.5824C11.7603 11.4046 11.888 11.1828 11.9524 10.9396C12.0169 10.6964 12.0158 10.4405 11.9494 10.1979C11.8829 9.95525 11.7535 9.73452 11.5741 9.5581C11.3948 9.38168 11.172 9.25585 10.9283 9.19341ZM10.5712 2.71461C10.7124 2.71461 10.8505 2.7565 10.968 2.83498C11.0854 2.91346 11.177 3.02501 11.231 3.15551C11.2851 3.28602 11.2992 3.42963 11.2717 3.56818C11.2441 3.70673 11.1761 3.83399 11.0762 3.93388C10.9763 4.03377 10.849 4.10179 10.7105 4.12935C10.572 4.15691 10.4283 4.14276 10.2978 4.0887C10.1673 4.03465 10.0558 3.9431 9.9773 3.82565C9.89882 3.70819 9.85693 3.5701 9.85693 3.42884C9.85712 3.23947 9.93243 3.05791 10.0663 2.92401C10.2002 2.79011 10.3818 2.7148 10.5712 2.71461ZM2.71461 3.42884C2.71461 3.28758 2.7565 3.14949 2.83498 3.03203C2.91346 2.91458 3.02501 2.82303 3.15551 2.76898C3.28602 2.71492 3.42963 2.70077 3.56818 2.72833C3.70673 2.75589 3.83399 2.82391 3.93388 2.9238C4.03377 3.02369 4.10179 3.15095 4.12935 3.2895C4.15691 3.42805 4.14276 3.57166 4.0887 3.70216C4.03465 3.83267 3.9431 3.94422 3.82565 4.0227C3.70819 4.10118 3.5701 4.14307 3.42884 4.14307C3.23947 4.14288 3.05791 4.06757 2.92401 3.93367C2.79011 3.79977 2.7148 3.61821 2.71461 3.42884ZM3.42884 11.2854C3.28758 11.2854 3.14949 11.2435 3.03203 11.165C2.91458 11.0865 2.82303 10.975 2.76898 10.8445C2.71492 10.714 2.70077 10.5704 2.72833 10.4318C2.75589 10.2933 2.82391 10.166 2.9238 10.0661C3.02369 9.96624 3.15095 9.89821 3.2895 9.87065C3.42805 9.84309 3.57166 9.85724 3.70216 9.9113C3.83267 9.96535 3.94422 10.0569 4.0227 10.1744C4.10118 10.2918 4.14307 10.4299 4.14307 10.5712C4.14288 10.7605 4.06757 10.9421 3.93367 11.076C3.79977 11.2099 3.61821 11.2852 3.42884 11.2854ZM9.19341 10.214H4.80659C4.74262 9.96852 4.61432 9.7445 4.43491 9.56509C4.2555 9.38568 4.03148 9.25738 3.78596 9.19341V4.80659C4.03147 4.74259 4.25547 4.61427 4.43487 4.43487C4.61427 4.25547 4.74259 4.03147 4.80659 3.78596H9.19341C9.25738 4.03148 9.38568 4.2555 9.56509 4.43491C9.7445 4.61432 9.96852 4.74262 10.214 4.80659V9.19341C9.9685 9.25734 9.74446 9.38563 9.56505 9.56505C9.38563 9.74446 9.25734 9.9685 9.19341 10.214ZM10.5712 11.2854C10.4299 11.2854 10.2918 11.2435 10.1744 11.165C10.0569 11.0865 9.96535 10.975 9.9113 10.8445C9.85724 10.714 9.84309 10.5704 9.87065 10.4318C9.89821 10.2933 9.96624 10.166 10.0661 10.0661C10.166 9.96624 10.2933 9.89821 10.4318 9.87065C10.5704 9.84309 10.714 9.85724 10.8445 9.9113C10.975 9.96535 11.0865 10.0569 11.165 10.1744C11.2435 10.2918 11.2854 10.4299 11.2854 10.5712C11.2851 10.7605 11.2098 10.942 11.0759 11.0759C10.942 11.2098 10.7605 11.2851 10.5712 11.2854Z" fill="#777681"/>
<path d="M9.19341 10.214H4.80659C4.74262 9.96852 4.61432 9.7445 4.43491 9.56509C4.2555 9.38568 4.03148 9.25738 3.78596 9.19341V4.80659C4.03147 4.74259 4.25547 4.61427 4.43487 4.43487C4.61427 4.25547 4.74259 4.03147 4.80659 3.78596H9.19341C9.25738 4.03148 9.38568 4.2555 9.56509 4.43491C9.7445 4.61432 9.96852 4.74262 10.214 4.80659V9.19341C9.9685 9.25734 9.74446 9.38563 9.56505 9.56505C9.38563 9.74446 9.25734 9.9685 9.19341 10.214Z" fill="#777681"/>
</g>
</g>
</svg>
