<svg width="20" height="21" viewBox="0 0 20 21" fill="none" xmlns="http://www.w3.org/2000/svg">
    <g clip-path="url(#clip0_499_3204)">
        <path d="M9.55855 13.849C9.26263 13.8491 8.97317 13.7624 8.72608 13.5995C8.47899 13.4367 8.28513 13.2049 8.16854 12.9329C7.92462 12.8754 7.68454 12.8027 7.44972 12.7152L7.43687 12.7107C6.74719 12.4519 6.11063 12.0692 5.55857 11.5814C4.81888 10.9289 4.25004 10.1054 3.90166 9.18257C3.55328 8.25978 3.43593 7.26577 3.55984 6.28721C3.68375 5.30866 4.04517 4.37527 4.61257 3.56844C5.17997 2.76161 5.93613 2.10583 6.81511 1.65828C7.6941 1.21073 8.66923 0.985001 9.65547 1.00077C10.6417 1.01655 11.6091 1.27334 12.4733 1.74877C13.3376 2.22419 14.0724 2.90382 14.6137 3.72838C15.155 4.55294 15.4864 5.49741 15.5789 6.47942C15.6084 6.79159 15.3522 7.04631 15.0385 7.04631C14.7256 7.04631 14.4754 6.79159 14.4391 6.48018C14.3392 5.62099 14.0142 4.80341 13.497 4.11009C12.9798 3.41676 12.2887 2.87227 11.4937 2.53165C10.6986 2.19103 9.82764 2.06636 8.96893 2.17023C8.11021 2.27411 7.29413 2.60285 6.6032 3.12323C5.91226 3.64362 5.37095 4.33718 5.034 5.13383C4.69704 5.93048 4.57638 6.80197 4.68421 7.6602C4.79204 8.51843 5.12454 9.33299 5.64809 10.0215C6.17165 10.7101 6.8677 11.2482 7.66589 11.5814L7.69613 11.5943C7.8473 11.6563 8.003 11.7107 8.16173 11.7583C8.30734 11.4035 8.58234 11.1174 8.93104 10.9577C9.27974 10.7981 9.67607 10.777 10.0398 10.8986C10.4035 11.0203 10.7073 11.2756 10.8898 11.6129C11.0723 11.9502 11.1198 12.3442 11.0226 12.7152C10.9388 13.0398 10.7495 13.3273 10.4845 13.5325C10.2195 13.7378 9.89376 13.8491 9.55855 13.849ZM4.26757 12.7152H5.15116C4.72838 12.3861 4.34355 12.0109 4.00377 11.5966C3.45178 11.6612 2.94276 11.9263 2.57336 12.3416C2.20397 12.7568 1.99993 13.2932 2 13.849V14.3894C2 17.1997 5.18215 19.14 9.55855 19.14C13.935 19.14 17.1171 17.0931 17.1171 14.3894V13.849C17.1171 13.2476 16.8782 12.6709 16.453 12.2456C16.0277 11.8203 15.4509 11.5814 14.8495 11.5814H12.0944C12.204 11.9489 12.2324 12.3357 12.1776 12.7152H14.8495L14.9591 12.7205C15.2395 12.7478 15.4998 12.8784 15.6891 13.087C15.8784 13.2956 15.9833 13.5673 15.9833 13.849V14.3894L15.9795 14.5111C15.8737 16.4159 13.2819 18.0062 9.55855 18.0062C5.69538 18.0062 3.13378 16.4106 3.13378 14.3894V13.849L3.13907 13.7394C3.16631 13.459 3.29696 13.1988 3.50558 13.0094C3.7142 12.8201 3.98584 12.7152 4.26757 12.7152ZM13.3378 7.04631C13.338 7.73095 13.1521 8.40276 12.8001 8.98999C12.4481 9.57721 11.9432 10.0578 11.3394 10.3804C10.8527 9.93637 10.2173 9.69071 9.55855 9.69181C9.90597 9.69181 10.25 9.62338 10.5709 9.49043C10.8919 9.35748 11.1835 9.16262 11.4292 8.91696C11.6749 8.6713 11.8697 8.37967 12.0027 8.0587C12.1356 7.73773 12.204 7.39372 12.204 7.04631C12.204 6.6989 12.1356 6.35489 12.0027 6.03393C11.8697 5.71296 11.6749 5.42132 11.4292 5.17567C11.1835 4.93001 10.8919 4.73514 10.5709 4.60219C10.25 4.46925 9.90597 4.40082 9.55855 4.40082C8.85693 4.40082 8.18403 4.67954 7.68791 5.17567C7.19178 5.67179 6.91306 6.34468 6.91306 7.04631C6.91306 7.74794 7.19178 8.42083 7.68791 8.91696C8.18403 9.41309 8.85693 9.69181 9.55855 9.69181C8.87224 9.69181 8.2479 9.95333 7.77852 10.3811C7.17549 10.0581 6.67094 9.57806 6.3182 8.99189C6.01848 8.49255 5.83821 7.9307 5.79147 7.3502C5.74473 6.76969 5.83278 6.18624 6.04875 5.64538C6.26472 5.10452 6.60276 4.62089 7.03649 4.23224C7.47023 3.8436 7.98791 3.56045 8.54914 3.4049C9.11036 3.24935 9.69995 3.22561 10.2719 3.33553C10.8438 3.44545 11.3826 3.68605 11.8461 4.03857C12.3097 4.39108 12.6855 4.84596 12.9443 5.3677C13.2031 5.88944 13.3377 6.46393 13.3378 7.04631Z" fill="#575665"/>
        <path d="M9.55855 9.69181C10.2173 9.69071 10.8527 9.93637 11.3394 10.3804C11.9432 10.0578 12.4481 9.57721 12.8001 8.98999C13.1521 8.40276 13.338 7.73095 13.3378 7.04631C13.3377 6.46393 13.2031 5.88944 12.9443 5.3677C12.6855 4.84596 12.3097 4.39108 11.8461 4.03857C11.3826 3.68605 10.8438 3.44545 10.2719 3.33553C9.69995 3.22561 9.11036 3.24935 8.54914 3.4049C7.98791 3.56045 7.47023 3.8436 7.03649 4.23225C6.60276 4.62089 6.26472 5.10452 6.04875 5.64538C5.83278 6.18624 5.74473 6.76969 5.79147 7.3502C5.83821 7.9307 6.01848 8.49255 6.3182 8.99189C6.67094 9.57806 7.17549 10.0581 7.77852 10.3811C8.2479 9.95333 8.87224 9.69181 9.55855 9.69181ZM9.55855 9.69181C9.90597 9.69181 10.25 9.62338 10.5709 9.49043C10.8919 9.35748 11.1835 9.16262 11.4292 8.91696C11.6749 8.6713 11.8697 8.37967 12.0027 8.0587C12.1356 7.73773 12.204 7.39372 12.204 7.04631C12.204 6.6989 12.1356 6.35489 12.0027 6.03393C11.8697 5.71296 11.6749 5.42132 11.4292 5.17567C11.1835 4.93001 10.8919 4.73514 10.5709 4.60219C10.25 4.46925 9.90597 4.40082 9.55855 4.40082C8.85693 4.40082 8.18403 4.67954 7.68791 5.17567C7.19178 5.67179 6.91306 6.34468 6.91306 7.04631C6.91306 7.74794 7.19178 8.42083 7.68791 8.91696C8.18403 9.41309 8.85693 9.69181 9.55855 9.69181ZM9.55855 13.849C9.26263 13.8491 8.97317 13.7624 8.72608 13.5995C8.47899 13.4367 8.28513 13.2049 8.16854 12.9329C7.92462 12.8754 7.68454 12.8027 7.44972 12.7152L7.43687 12.7107C6.74719 12.4519 6.11063 12.0692 5.55857 11.5814C4.81888 10.9289 4.25004 10.1054 3.90166 9.18257C3.55328 8.25978 3.43593 7.26577 3.55984 6.28721C3.68375 5.30866 4.04517 4.37527 4.61257 3.56844C5.17997 2.76161 5.93613 2.10583 6.81511 1.65828C7.6941 1.21073 8.66923 0.985001 9.65547 1.00077C10.6417 1.01655 11.6091 1.27334 12.4733 1.74877C13.3376 2.22419 14.0724 2.90382 14.6137 3.72838C15.155 4.55294 15.4864 5.49741 15.5789 6.47942C15.6084 6.79159 15.3522 7.04631 15.0385 7.04631C14.7256 7.04631 14.4754 6.79159 14.4391 6.48018C14.3392 5.62099 14.0142 4.80341 13.497 4.11008C12.9798 3.41676 12.2887 2.87227 11.4937 2.53165C10.6986 2.19103 9.82764 2.06636 8.96893 2.17023C8.11021 2.27411 7.29413 2.60285 6.6032 3.12323C5.91226 3.64362 5.37095 4.33718 5.034 5.13383C4.69704 5.93048 4.57638 6.80197 4.68421 7.6602C4.79204 8.51843 5.12454 9.33299 5.64809 10.0215C6.17165 10.7101 6.8677 11.2482 7.66589 11.5814L7.69613 11.5943C7.8473 11.6563 8.003 11.7107 8.16173 11.7583C8.30734 11.4035 8.58234 11.1174 8.93104 10.9577C9.27974 10.7981 9.67607 10.777 10.0398 10.8986C10.4035 11.0203 10.7073 11.2756 10.8898 11.6129C11.0723 11.9502 11.1198 12.3442 11.0226 12.7152C10.9388 13.0398 10.7495 13.3273 10.4845 13.5325C10.2195 13.7378 9.89376 13.8491 9.55855 13.849ZM4.26757 12.7152H5.15116C4.72838 12.3861 4.34355 12.0109 4.00377 11.5966C3.45178 11.6612 2.94276 11.9263 2.57336 12.3416C2.20397 12.7568 1.99993 13.2932 2 13.849V14.3894C2 17.1997 5.18215 19.14 9.55855 19.14C13.935 19.14 17.1171 17.0931 17.1171 14.3894V13.849C17.1171 13.2476 16.8782 12.6709 16.453 12.2456C16.0277 11.8203 15.4509 11.5814 14.8495 11.5814H12.0944C12.204 11.9489 12.2324 12.3357 12.1776 12.7152H14.8495L14.9591 12.7205C15.2395 12.7478 15.4998 12.8784 15.6891 13.087C15.8784 13.2956 15.9833 13.5673 15.9833 13.849V14.3894L15.9795 14.5111C15.8737 16.4159 13.2819 18.0062 9.55855 18.0062C5.69538 18.0062 3.13378 16.4106 3.13378 14.3894V13.849L3.13907 13.7394C3.16631 13.459 3.29696 13.1988 3.50558 13.0094C3.7142 12.8201 3.98584 12.7152 4.26757 12.7152Z" stroke="#575665" stroke-width="0.5"/>
    </g>
    <defs>
        <clipPath id="clip0_499_3204">
            <rect width="20" height="20" fill="white" transform="translate(0 0.0112305)"/>
        </clipPath>
    </defs>
</svg>
