<svg width="20" height="21" viewBox="0 0 20 21" fill="none" xmlns="http://www.w3.org/2000/svg">
    <path d="M5.33333 8.24337C5.79357 8.24337 6.16667 8.61647 6.16667 9.0767C6.16667 9.53694 5.79357 9.91004 5.33333 9.91004H3.66667V17.41H15.3333V9.91004H13.6667C13.2064 9.91004 12.8333 9.53694 12.8333 9.0767C12.8333 8.61647 13.2064 8.24337 13.6667 8.24337H15.3333C15.7754 8.24337 16.1993 8.41897 16.5118 8.73153C16.8244 9.04409 17 9.46801 17 9.91004V17.41C17 17.8521 16.8244 18.276 16.5118 18.5885C16.1993 18.9011 15.7754 19.0767 15.3333 19.0767H3.66667C3.22464 19.0767 2.80072 18.9011 2.48816 18.5885C2.17559 18.276 2 17.8521 2 17.41V9.91004C2 9.46801 2.17559 9.04409 2.48816 8.73153C2.80072 8.41897 3.22464 8.24337 3.66667 8.24337H5.33333ZM10.2367 2.80087L13.0358 5.5992C13.1922 5.75557 13.28 5.96765 13.28 6.18879C13.28 6.40992 13.1922 6.622 13.0358 6.77837C12.8795 6.93474 12.6674 7.02258 12.4462 7.02258C12.2251 7.02258 12.013 6.93474 11.8567 6.77837L10.3333 5.2542V13.2434C10.3333 13.4644 10.2455 13.6763 10.0893 13.8326C9.93297 13.9889 9.72101 14.0767 9.5 14.0767C9.27899 14.0767 9.06702 13.9889 8.91074 13.8326C8.75446 13.6763 8.66667 13.4644 8.66667 13.2434V5.2542L7.14333 6.77837C7.06591 6.8558 6.97399 6.91721 6.87283 6.95912C6.77167 7.00102 6.66325 7.02258 6.55375 7.02258C6.44425 7.02258 6.33583 7.00102 6.23467 6.95912C6.13351 6.91721 6.04159 6.8558 5.96417 6.77837C5.88674 6.70095 5.82532 6.60903 5.78342 6.50787C5.74152 6.40671 5.71995 6.29828 5.71995 6.18879C5.71995 6.07929 5.74152 5.97087 5.78342 5.86971C5.82532 5.76855 5.88674 5.67663 5.96417 5.5992L8.76417 2.80087C8.95949 2.60572 9.22431 2.49609 9.50042 2.49609C9.77653 2.49609 10.0413 2.60572 10.2367 2.80087Z" fill="#575665"/>
</svg>
