<svg width="20" height="20" viewBox="0 0 20 20" fill="none" xmlns="http://www.w3.org/2000/svg">
<g id="arcticons:huawei-email">
<path id="Vector" fill-rule="evenodd" clip-rule="evenodd" d="M9.99997 1.04166C8.95015 1.04166 7.94333 1.4587 7.201 2.20103C6.45867 2.94336 6.04163 3.95018 6.04163 5C6.04163 6.04981 6.45867 7.05663 7.201 7.79896C7.94333 8.54129 8.95015 8.95833 9.99997 8.95833C11.0498 8.95833 12.0566 8.54129 12.7989 7.79896C13.5413 7.05663 13.9583 6.04981 13.9583 5C13.9583 3.95018 13.5413 2.94336 12.7989 2.20103C12.0566 1.4587 11.0498 1.04166 9.99997 1.04166ZM7.29163 5C7.29163 4.2817 7.57697 3.59283 8.08488 3.08492C8.5928 2.57701 9.28167 2.29166 9.99997 2.29166C10.7183 2.29166 11.4071 2.57701 11.915 3.08492C12.423 3.59283 12.7083 4.2817 12.7083 5C12.7083 5.71829 12.423 6.40717 11.915 6.91508C11.4071 7.42299 10.7183 7.70833 9.99997 7.70833C9.28167 7.70833 8.5928 7.42299 8.08488 6.91508C7.57697 6.40717 7.29163 5.71829 7.29163 5ZM9.99997 10.2083C8.07247 10.2083 6.2958 10.6467 4.97996 11.3867C3.6833 12.1167 2.7083 13.2217 2.7083 14.5833V14.6683C2.70747 15.6367 2.70663 16.8517 3.77247 17.72C4.29663 18.1467 5.0308 18.4508 6.02247 18.6508C7.0158 18.8525 8.31163 18.9583 9.99997 18.9583C11.6883 18.9583 12.9833 18.8525 13.9783 18.6508C14.97 18.4508 15.7033 18.1467 16.2283 17.72C17.2941 16.8517 17.2925 15.6367 17.2916 14.6683V14.5833C17.2916 13.2217 16.3166 12.1167 15.0208 11.3867C13.7041 10.6467 11.9283 10.2083 9.99997 10.2083ZM3.9583 14.5833C3.9583 13.8742 4.47663 13.1042 5.59246 12.4767C6.68913 11.86 8.2458 11.4583 10.0008 11.4583C11.7541 11.4583 13.3108 11.86 14.4075 12.4767C15.5241 13.1042 16.0416 13.8742 16.0416 14.5833C16.0416 15.6733 16.0083 16.2867 15.4383 16.75C15.13 17.0017 14.6133 17.2475 13.73 17.4258C12.8491 17.6042 11.645 17.7083 9.99997 17.7083C8.35497 17.7083 7.14997 17.6042 6.26997 17.4258C5.38663 17.2475 4.86997 17.0017 4.56163 16.7508C3.99163 16.2867 3.9583 15.6733 3.9583 14.5833Z" fill="#575665" stroke="#575665" stroke-width="0.3"/>
</g>
</svg>
